<svg width="160" height="50" viewBox="0 0 160 50" fill="none" xmlns="http://www.w3.org/2000/svg">
<rect x="0.62759" y="0.62759" width="158.745" height="48.7448" rx="6.90349" fill="black"/>
<rect x="0.62759" y="0.62759" width="158.745" height="48.7448" rx="6.90349" stroke="#A6A6A6" stroke-width="1.25518"/>
<path d="M30.9221 25.9957C30.9373 24.8458 31.2502 23.7184 31.8316 22.7183C32.413 21.7181 33.2441 20.8779 34.2475 20.2756C33.6101 19.3868 32.7691 18.6553 31.7914 18.1393C30.8138 17.6233 29.7264 17.337 28.6155 17.303C26.2459 17.0602 23.9487 18.6873 22.7412 18.6873C21.5103 18.6873 19.6512 17.3271 17.6492 17.3673C16.3543 17.4082 15.0922 17.7758 13.9861 18.4344C12.88 19.093 11.9674 20.0201 11.3374 21.1254C8.6084 25.7384 10.644 32.518 13.2582 36.2468C14.5662 38.0727 16.0948 40.1123 18.095 40.0399C20.0523 39.9607 20.7833 38.8214 23.1459 38.8214C25.4866 38.8214 26.1724 40.0399 28.2132 39.9939C30.3135 39.9607 31.6368 38.1599 32.8988 36.3168C33.8386 35.0158 34.5618 33.5779 35.0415 32.0563C33.8213 31.5525 32.78 30.7091 32.0475 29.6313C31.3149 28.5536 30.9236 27.2892 30.9221 25.9957Z" fill="white"/>
<path d="M27.0676 14.8504C28.2127 13.5083 28.7769 11.7832 28.6403 10.0415C26.8907 10.2209 25.2747 11.0372 24.114 12.3279C23.5466 12.9584 23.112 13.6919 22.835 14.4865C22.5581 15.2811 22.4443 16.1212 22.5001 16.9588C23.3752 16.9676 24.2409 16.7824 25.0321 16.4172C25.8232 16.052 26.5192 15.5163 27.0676 14.8504Z" fill="white"/>
<path d="M47.9355 18.1055H46.4512L46.4609 17.3389H47.9355C48.4434 17.3389 48.8665 17.2331 49.2051 17.0215C49.5436 16.8066 49.7975 16.5072 49.9668 16.123C50.1393 15.7357 50.2256 15.2832 50.2256 14.7656V14.3311C50.2256 13.9242 50.1768 13.5628 50.0791 13.2471C49.9814 12.9281 49.8382 12.6595 49.6494 12.4414C49.4606 12.2201 49.2295 12.0524 48.9561 11.9385C48.6859 11.8245 48.375 11.7676 48.0234 11.7676H46.4219V10.9961H48.0234C48.4889 10.9961 48.9137 11.0742 49.2979 11.2305C49.682 11.3835 50.0124 11.6064 50.2891 11.8994C50.569 12.1891 50.7839 12.5407 50.9336 12.9541C51.0833 13.3643 51.1582 13.8265 51.1582 14.3408V14.7656C51.1582 15.2799 51.0833 15.7438 50.9336 16.1572C50.7839 16.5674 50.5674 16.9173 50.2842 17.207C50.0042 17.4967 49.6657 17.7197 49.2686 17.876C48.8747 18.029 48.4303 18.1055 47.9355 18.1055ZM46.9541 10.9961V18.1055H46.0117V10.9961H46.9541ZM52.1982 15.5225V15.4102C52.1982 15.0293 52.2536 14.6761 52.3643 14.3506C52.4749 14.0218 52.6344 13.737 52.8428 13.4961C53.0511 13.252 53.3034 13.0632 53.5996 12.9297C53.8958 12.793 54.2279 12.7246 54.5957 12.7246C54.9668 12.7246 55.3005 12.793 55.5967 12.9297C55.8962 13.0632 56.1501 13.252 56.3584 13.4961C56.57 13.737 56.7311 14.0218 56.8418 14.3506C56.9525 14.6761 57.0078 15.0293 57.0078 15.4102V15.5225C57.0078 15.9033 56.9525 16.2565 56.8418 16.582C56.7311 16.9076 56.57 17.1924 56.3584 17.4365C56.1501 17.6774 55.8978 17.8662 55.6016 18.0029C55.3086 18.1364 54.9766 18.2031 54.6055 18.2031C54.2344 18.2031 53.9007 18.1364 53.6045 18.0029C53.3083 17.8662 53.0544 17.6774 52.8428 17.4365C52.6344 17.1924 52.4749 16.9076 52.3643 16.582C52.2536 16.2565 52.1982 15.9033 52.1982 15.5225ZM53.1016 15.4102V15.5225C53.1016 15.7861 53.1325 16.0352 53.1943 16.2695C53.2562 16.5007 53.349 16.7057 53.4727 16.8848C53.5996 17.0638 53.7575 17.2054 53.9463 17.3096C54.1351 17.4105 54.3548 17.4609 54.6055 17.4609C54.8529 17.4609 55.0693 17.4105 55.2549 17.3096C55.4437 17.2054 55.5999 17.0638 55.7236 16.8848C55.8473 16.7057 55.9401 16.5007 56.002 16.2695C56.0671 16.0352 56.0996 15.7861 56.0996 15.5225V15.4102C56.0996 15.1497 56.0671 14.904 56.002 14.6729C55.9401 14.4385 55.8457 14.2318 55.7188 14.0527C55.5951 13.8704 55.4388 13.7272 55.25 13.623C55.0645 13.5189 54.8464 13.4668 54.5957 13.4668C54.3483 13.4668 54.1302 13.5189 53.9414 13.623C53.7559 13.7272 53.5996 13.8704 53.4727 14.0527C53.349 14.2318 53.2562 14.4385 53.1943 14.6729C53.1325 14.904 53.1016 15.1497 53.1016 15.4102ZM59.4785 17.168L60.8359 12.8223H61.4316L61.3145 13.6865L59.9326 18.1055H59.3516L59.4785 17.168ZM58.5654 12.8223L59.7227 17.2168L59.8057 18.1055H59.1953L57.6621 12.8223H58.5654ZM62.7305 17.1826L63.834 12.8223H64.7324L63.1992 18.1055H62.5938L62.7305 17.1826ZM61.5635 12.8223L62.8916 17.0947L63.043 18.1055H62.4668L61.0459 13.6768L60.9287 12.8223H61.5635ZM66.5635 13.9502V18.1055H65.6602V12.8223H66.5146L66.5635 13.9502ZM66.3486 15.2637L65.9727 15.249C65.9759 14.8877 66.0296 14.554 66.1338 14.248C66.238 13.9388 66.3844 13.6702 66.5732 13.4424C66.762 13.2145 66.9867 13.0387 67.2471 12.915C67.5107 12.7881 67.8021 12.7246 68.1211 12.7246C68.3815 12.7246 68.6159 12.7604 68.8242 12.832C69.0326 12.9004 69.21 13.0111 69.3564 13.1641C69.5062 13.3171 69.6201 13.5156 69.6982 13.7598C69.7764 14.0007 69.8154 14.2952 69.8154 14.6436V18.1055H68.9072V14.6338C68.9072 14.3571 68.8665 14.1357 68.7852 13.9697C68.7038 13.8005 68.585 13.6784 68.4287 13.6035C68.2725 13.5254 68.0804 13.4863 67.8525 13.4863C67.6279 13.4863 67.4229 13.5335 67.2373 13.6279C67.055 13.7223 66.8971 13.8525 66.7637 14.0186C66.6335 14.1846 66.5309 14.375 66.4561 14.5898C66.3844 14.8014 66.3486 15.026 66.3486 15.2637ZM72.1689 10.6055V18.1055H71.2607V10.6055H72.1689ZM73.3799 15.5225V15.4102C73.3799 15.0293 73.4352 14.6761 73.5459 14.3506C73.6566 14.0218 73.8161 13.737 74.0244 13.4961C74.2327 13.252 74.485 13.0632 74.7812 12.9297C75.0775 12.793 75.4095 12.7246 75.7773 12.7246C76.1484 12.7246 76.4821 12.793 76.7783 12.9297C77.0778 13.0632 77.3317 13.252 77.54 13.4961C77.7516 13.737 77.9128 14.0218 78.0234 14.3506C78.1341 14.6761 78.1895 15.0293 78.1895 15.4102V15.5225C78.1895 15.9033 78.1341 16.2565 78.0234 16.582C77.9128 16.9076 77.7516 17.1924 77.54 17.4365C77.3317 17.6774 77.0794 17.8662 76.7832 18.0029C76.4902 18.1364 76.1582 18.2031 75.7871 18.2031C75.416 18.2031 75.0824 18.1364 74.7861 18.0029C74.4899 17.8662 74.236 17.6774 74.0244 17.4365C73.8161 17.1924 73.6566 16.9076 73.5459 16.582C73.4352 16.2565 73.3799 15.9033 73.3799 15.5225ZM74.2832 15.4102V15.5225C74.2832 15.7861 74.3141 16.0352 74.376 16.2695C74.4378 16.5007 74.5306 16.7057 74.6543 16.8848C74.7812 17.0638 74.9391 17.2054 75.1279 17.3096C75.3167 17.4105 75.5365 17.4609 75.7871 17.4609C76.0345 17.4609 76.251 17.4105 76.4365 17.3096C76.6253 17.2054 76.7816 17.0638 76.9053 16.8848C77.029 16.7057 77.1217 16.5007 77.1836 16.2695C77.2487 16.0352 77.2812 15.7861 77.2812 15.5225V15.4102C77.2812 15.1497 77.2487 14.904 77.1836 14.6729C77.1217 14.4385 77.0273 14.2318 76.9004 14.0527C76.7767 13.8704 76.6204 13.7272 76.4316 13.623C76.2461 13.5189 76.028 13.4668 75.7773 13.4668C75.5299 13.4668 75.3118 13.5189 75.123 13.623C74.9375 13.7272 74.7812 13.8704 74.6543 14.0527C74.5306 14.2318 74.4378 14.4385 74.376 14.6729C74.3141 14.904 74.2832 15.1497 74.2832 15.4102ZM82.4375 17.2021V14.4824C82.4375 14.2741 82.3952 14.0934 82.3105 13.9404C82.2292 13.7842 82.1055 13.6637 81.9395 13.5791C81.7734 13.4945 81.5684 13.4521 81.3242 13.4521C81.0964 13.4521 80.8962 13.4912 80.7236 13.5693C80.5544 13.6475 80.4209 13.75 80.3232 13.877C80.2288 14.0039 80.1816 14.1406 80.1816 14.2871H79.2783C79.2783 14.0983 79.3271 13.9111 79.4248 13.7256C79.5225 13.54 79.6624 13.3724 79.8447 13.2227C80.0303 13.0697 80.2516 12.9492 80.5088 12.8613C80.7692 12.7702 81.0589 12.7246 81.3779 12.7246C81.762 12.7246 82.1006 12.7897 82.3936 12.9199C82.6898 13.0501 82.9209 13.2471 83.0869 13.5107C83.2562 13.7712 83.3408 14.0983 83.3408 14.4922V16.9531C83.3408 17.1289 83.3555 17.3161 83.3848 17.5146C83.4173 17.7132 83.4645 17.8841 83.5264 18.0273V18.1055H82.584C82.5384 18.0013 82.5026 17.863 82.4766 17.6904C82.4505 17.5146 82.4375 17.3519 82.4375 17.2021ZM82.5938 14.9023L82.6035 15.5371H81.6904C81.4333 15.5371 81.2038 15.5583 81.002 15.6006C80.8001 15.6396 80.6309 15.6999 80.4941 15.7812C80.3574 15.8626 80.2533 15.9652 80.1816 16.0889C80.11 16.2093 80.0742 16.3509 80.0742 16.5137C80.0742 16.6797 80.1117 16.8311 80.1865 16.9678C80.2614 17.1045 80.3737 17.2135 80.5234 17.2949C80.6764 17.373 80.8636 17.4121 81.085 17.4121C81.3617 17.4121 81.6058 17.3535 81.8174 17.2363C82.029 17.1191 82.1966 16.9759 82.3203 16.8066C82.4473 16.6374 82.5156 16.473 82.5254 16.3135L82.9111 16.748C82.8883 16.8848 82.8265 17.0361 82.7256 17.2021C82.6247 17.3682 82.4896 17.5277 82.3203 17.6807C82.1543 17.8304 81.9557 17.9557 81.7246 18.0566C81.4967 18.1543 81.2396 18.2031 80.9531 18.2031C80.5951 18.2031 80.2809 18.1331 80.0107 17.9932C79.7438 17.8532 79.5355 17.666 79.3857 17.4316C79.2393 17.194 79.166 16.9287 79.166 16.6357C79.166 16.3525 79.2214 16.1035 79.332 15.8887C79.4427 15.6706 79.6022 15.4899 79.8105 15.3467C80.0189 15.2002 80.2695 15.0895 80.5625 15.0146C80.8555 14.9398 81.1826 14.9023 81.5439 14.9023H82.5938ZM88.0918 17.0801V10.6055H89V18.1055H88.1699L88.0918 17.0801ZM84.5371 15.5225V15.4199C84.5371 15.0163 84.5859 14.6501 84.6836 14.3213C84.7845 13.9893 84.9261 13.7044 85.1084 13.4668C85.2939 13.2292 85.5137 13.0469 85.7676 12.9199C86.0247 12.7897 86.3112 12.7246 86.627 12.7246C86.959 12.7246 87.2487 12.7832 87.4961 12.9004C87.7467 13.0143 87.9583 13.182 88.1309 13.4033C88.3066 13.6214 88.445 13.8851 88.5459 14.1943C88.6468 14.5036 88.7168 14.8535 88.7559 15.2441V15.6934C88.7201 16.0807 88.6501 16.429 88.5459 16.7383C88.445 17.0475 88.3066 17.3112 88.1309 17.5293C87.9583 17.7474 87.7467 17.915 87.4961 18.0322C87.2454 18.1462 86.9525 18.2031 86.6172 18.2031C86.3079 18.2031 86.0247 18.1364 85.7676 18.0029C85.5137 17.8695 85.2939 17.6823 85.1084 17.4414C84.9261 17.2005 84.7845 16.9173 84.6836 16.5918C84.5859 16.263 84.5371 15.9066 84.5371 15.5225ZM85.4453 15.4199V15.5225C85.4453 15.7861 85.4714 16.0335 85.5234 16.2646C85.5788 16.4958 85.6634 16.6992 85.7773 16.875C85.8913 17.0508 86.0361 17.1891 86.2119 17.29C86.3877 17.3877 86.5977 17.4365 86.8418 17.4365C87.1413 17.4365 87.387 17.373 87.5791 17.2461C87.7744 17.1191 87.9307 16.9515 88.0479 16.7432C88.165 16.5348 88.2562 16.3086 88.3213 16.0645V14.8877C88.2822 14.7087 88.2253 14.5361 88.1504 14.3701C88.0788 14.2008 87.9844 14.0511 87.8672 13.9209C87.7533 13.7874 87.6117 13.6816 87.4424 13.6035C87.2764 13.5254 87.0794 13.4863 86.8516 13.4863C86.6042 13.4863 86.391 13.5384 86.2119 13.6426C86.0361 13.7435 85.8913 13.8835 85.7773 14.0625C85.6634 14.2383 85.5788 14.4434 85.5234 14.6777C85.4714 14.9089 85.4453 15.1562 85.4453 15.4199ZM92.6475 15.5225V15.4102C92.6475 15.0293 92.7028 14.6761 92.8135 14.3506C92.9242 14.0218 93.0837 13.737 93.292 13.4961C93.5003 13.252 93.7526 13.0632 94.0488 12.9297C94.3451 12.793 94.6771 12.7246 95.0449 12.7246C95.416 12.7246 95.7497 12.793 96.0459 12.9297C96.3454 13.0632 96.5993 13.252 96.8076 13.4961C97.0192 13.737 97.1803 14.0218 97.291 14.3506C97.4017 14.6761 97.457 15.0293 97.457 15.4102V15.5225C97.457 15.9033 97.4017 16.2565 97.291 16.582C97.1803 16.9076 97.0192 17.1924 96.8076 17.4365C96.5993 17.6774 96.347 17.8662 96.0508 18.0029C95.7578 18.1364 95.4258 18.2031 95.0547 18.2031C94.6836 18.2031 94.3499 18.1364 94.0537 18.0029C93.7575 17.8662 93.5036 17.6774 93.292 17.4365C93.0837 17.1924 92.9242 16.9076 92.8135 16.582C92.7028 16.2565 92.6475 15.9033 92.6475 15.5225ZM93.5508 15.4102V15.5225C93.5508 15.7861 93.5817 16.0352 93.6436 16.2695C93.7054 16.5007 93.7982 16.7057 93.9219 16.8848C94.0488 17.0638 94.2067 17.2054 94.3955 17.3096C94.5843 17.4105 94.804 17.4609 95.0547 17.4609C95.3021 17.4609 95.5186 17.4105 95.7041 17.3096C95.8929 17.2054 96.0492 17.0638 96.1729 16.8848C96.2965 16.7057 96.3893 16.5007 96.4512 16.2695C96.5163 16.0352 96.5488 15.7861 96.5488 15.5225V15.4102C96.5488 15.1497 96.5163 14.904 96.4512 14.6729C96.3893 14.4385 96.2949 14.2318 96.168 14.0527C96.0443 13.8704 95.888 13.7272 95.6992 13.623C95.5137 13.5189 95.2956 13.4668 95.0449 13.4668C94.7975 13.4668 94.5794 13.5189 94.3906 13.623C94.2051 13.7272 94.0488 13.8704 93.9219 14.0527C93.7982 14.2318 93.7054 14.4385 93.6436 14.6729C93.5817 14.904 93.5508 15.1497 93.5508 15.4102ZM99.4932 13.9502V18.1055H98.5898V12.8223H99.4443L99.4932 13.9502ZM99.2783 15.2637L98.9023 15.249C98.9056 14.8877 98.9593 14.554 99.0635 14.248C99.1676 13.9388 99.3141 13.6702 99.5029 13.4424C99.6917 13.2145 99.9163 13.0387 100.177 12.915C100.44 12.7881 100.732 12.7246 101.051 12.7246C101.311 12.7246 101.546 12.7604 101.754 12.832C101.962 12.9004 102.14 13.0111 102.286 13.1641C102.436 13.3171 102.55 13.5156 102.628 13.7598C102.706 14.0007 102.745 14.2952 102.745 14.6436V18.1055H101.837V14.6338C101.837 14.3571 101.796 14.1357 101.715 13.9697C101.633 13.8005 101.515 13.6784 101.358 13.6035C101.202 13.5254 101.01 13.4863 100.782 13.4863C100.558 13.4863 100.353 13.5335 100.167 13.6279C99.9847 13.7223 99.8268 13.8525 99.6934 14.0186C99.5632 14.1846 99.4606 14.375 99.3857 14.5898C99.3141 14.8014 99.2783 15.026 99.2783 15.2637ZM108.81 12.8223V13.5156H105.953V12.8223H108.81ZM106.92 11.5381H107.823V16.7969C107.823 16.9759 107.851 17.111 107.906 17.2021C107.962 17.2933 108.033 17.3535 108.121 17.3828C108.209 17.4121 108.303 17.4268 108.404 17.4268C108.479 17.4268 108.557 17.4202 108.639 17.4072C108.723 17.391 108.787 17.3779 108.829 17.3682L108.834 18.1055C108.762 18.1283 108.668 18.1494 108.551 18.1689C108.437 18.1917 108.299 18.2031 108.136 18.2031C107.914 18.2031 107.711 18.1592 107.525 18.0713C107.34 17.9834 107.192 17.8369 107.081 17.6318C106.974 17.4235 106.92 17.1436 106.92 16.792V11.5381ZM110.772 10.6055V18.1055H109.869V10.6055H110.772ZM110.558 15.2637L110.182 15.249C110.185 14.8877 110.239 14.554 110.343 14.248C110.447 13.9388 110.593 13.6702 110.782 13.4424C110.971 13.2145 111.196 13.0387 111.456 12.915C111.72 12.7881 112.011 12.7246 112.33 12.7246C112.59 12.7246 112.825 12.7604 113.033 12.832C113.242 12.9004 113.419 13.0111 113.565 13.1641C113.715 13.3171 113.829 13.5156 113.907 13.7598C113.985 14.0007 114.024 14.2952 114.024 14.6436V18.1055H113.116V14.6338C113.116 14.3571 113.076 14.1357 112.994 13.9697C112.913 13.8005 112.794 13.6784 112.638 13.6035C112.481 13.5254 112.289 13.4863 112.062 13.4863C111.837 13.4863 111.632 13.5335 111.446 13.6279C111.264 13.7223 111.106 13.8525 110.973 14.0186C110.842 14.1846 110.74 14.375 110.665 14.5898C110.593 14.8014 110.558 15.026 110.558 15.2637ZM117.569 18.2031C117.201 18.2031 116.868 18.1413 116.568 18.0176C116.272 17.8906 116.017 17.7132 115.802 17.4854C115.59 17.2575 115.427 16.9873 115.313 16.6748C115.2 16.3623 115.143 16.0205 115.143 15.6494V15.4443C115.143 15.0146 115.206 14.6322 115.333 14.2969C115.46 13.9583 115.632 13.6719 115.851 13.4375C116.069 13.2031 116.316 13.0257 116.593 12.9053C116.869 12.7848 117.156 12.7246 117.452 12.7246C117.83 12.7246 118.155 12.7897 118.429 12.9199C118.705 13.0501 118.932 13.2324 119.107 13.4668C119.283 13.6979 119.413 13.9714 119.498 14.2871C119.583 14.5996 119.625 14.9414 119.625 15.3125V15.7178H115.68V14.9805H118.722V14.9121C118.709 14.6777 118.66 14.4499 118.575 14.2285C118.494 14.0072 118.364 13.8249 118.185 13.6816C118.006 13.5384 117.761 13.4668 117.452 13.4668C117.247 13.4668 117.058 13.5107 116.886 13.5986C116.713 13.6833 116.565 13.8102 116.441 13.9795C116.318 14.1488 116.222 14.3555 116.153 14.5996C116.085 14.8438 116.051 15.1253 116.051 15.4443V15.6494C116.051 15.9001 116.085 16.1361 116.153 16.3574C116.225 16.5755 116.327 16.7676 116.461 16.9336C116.598 17.0996 116.762 17.2298 116.954 17.3242C117.149 17.4186 117.371 17.4658 117.618 17.4658C117.937 17.4658 118.207 17.4007 118.429 17.2705C118.65 17.1403 118.844 16.9661 119.01 16.748L119.557 17.1826C119.443 17.3551 119.298 17.5195 119.122 17.6758C118.946 17.832 118.73 17.959 118.473 18.0566C118.219 18.1543 117.918 18.2031 117.569 18.2031Z" fill="white"/>
<path d="M52.1006 25.1465L47.3936 38.1055H45.4697L50.8896 23.8867H52.1299L52.1006 25.1465ZM56.0459 38.1055L51.3291 25.1465L51.2998 23.8867H52.54L57.9795 38.1055H56.0459ZM55.8018 32.8418V34.3848H47.8135V32.8418H55.8018ZM60.8271 29.5703V42.168H59.0107V27.5391H60.6708L60.8271 29.5703ZM67.9462 32.7344V32.9395C67.9462 33.7077 67.8551 34.4206 67.6728 35.0781C67.4905 35.7292 67.2235 36.2956 66.872 36.7773C66.5269 37.2591 66.1005 37.6335 65.5927 37.9004C65.0849 38.1673 64.5022 38.3008 63.8446 38.3008C63.1741 38.3008 62.5816 38.1901 62.0673 37.9688C61.553 37.7474 61.1168 37.4251 60.7587 37.002C60.4006 36.5788 60.1142 36.071 59.8993 35.4785C59.691 34.8861 59.5478 34.2188 59.4696 33.4766V32.3828C59.5478 31.6016 59.6942 30.9017 59.9091 30.2832C60.1239 29.6647 60.4071 29.1374 60.7587 28.7012C61.1168 28.2585 61.5497 27.9232 62.0575 27.6953C62.5653 27.4609 63.1513 27.3438 63.8153 27.3438C64.4794 27.3438 65.0686 27.474 65.5829 27.7344C66.0972 27.9883 66.5302 28.3529 66.8817 28.8281C67.2333 29.3034 67.497 29.873 67.6728 30.5371C67.8551 31.1947 67.9462 31.9271 67.9462 32.7344ZM66.1298 32.9395V32.7344C66.1298 32.207 66.0745 31.7122 65.9638 31.25C65.8531 30.7812 65.6806 30.3711 65.4462 30.0195C65.2183 29.6615 64.9254 29.3815 64.5673 29.1797C64.2092 28.9714 63.7828 28.8672 63.288 28.8672C62.8323 28.8672 62.4351 28.9453 62.0966 29.1016C61.7646 29.2578 61.4814 29.4694 61.247 29.7363C61.0126 29.9967 60.8205 30.2962 60.6708 30.6348C60.5276 30.9668 60.4202 31.3118 60.3485 31.6699V34.1992C60.4787 34.6549 60.661 35.0846 60.8954 35.4883C61.1298 35.8854 61.4423 36.2077 61.8329 36.4551C62.2235 36.696 62.7151 36.8164 63.3075 36.8164C63.7958 36.8164 64.2157 36.7155 64.5673 36.5137C64.9254 36.3053 65.2183 36.0221 65.4462 35.6641C65.6806 35.306 65.8531 34.8958 65.9638 34.4336C66.0745 33.9648 66.1298 33.4668 66.1298 32.9395ZM71.4676 29.5703V42.168H69.6512V27.5391H71.3113L71.4676 29.5703ZM78.5867 32.7344V32.9395C78.5867 33.7077 78.4956 34.4206 78.3133 35.0781C78.131 35.7292 77.8641 36.2956 77.5125 36.7773C77.1675 37.2591 76.741 37.6335 76.2332 37.9004C75.7254 38.1673 75.1427 38.3008 74.4852 38.3008C73.8146 38.3008 73.2221 38.1901 72.7078 37.9688C72.1935 37.7474 71.7573 37.4251 71.3992 37.002C71.0412 36.5788 70.7547 36.071 70.5399 35.4785C70.3315 34.8861 70.1883 34.2188 70.1102 33.4766V32.3828C70.1883 31.6016 70.3348 30.9017 70.5496 30.2832C70.7645 29.6647 71.0477 29.1374 71.3992 28.7012C71.7573 28.2585 72.1902 27.9232 72.6981 27.6953C73.2059 27.4609 73.7918 27.3438 74.4559 27.3438C75.1199 27.3438 75.7091 27.474 76.2234 27.7344C76.7378 27.9883 77.1707 28.3529 77.5223 28.8281C77.8738 29.3034 78.1375 29.873 78.3133 30.5371C78.4956 31.1947 78.5867 31.9271 78.5867 32.7344ZM76.7703 32.9395V32.7344C76.7703 32.207 76.715 31.7122 76.6043 31.25C76.4936 30.7812 76.3211 30.3711 76.0867 30.0195C75.8589 29.6615 75.5659 29.3815 75.2078 29.1797C74.8498 28.9714 74.4233 28.8672 73.9285 28.8672C73.4728 28.8672 73.0757 28.9453 72.7371 29.1016C72.4051 29.2578 72.1219 29.4694 71.8875 29.7363C71.6531 29.9967 71.4611 30.2962 71.3113 30.6348C71.1681 30.9668 71.0607 31.3118 70.9891 31.6699V34.1992C71.1193 34.6549 71.3016 35.0846 71.5359 35.4883C71.7703 35.8854 72.0828 36.2077 72.4734 36.4551C72.8641 36.696 73.3556 36.8164 73.9481 36.8164C74.4363 36.8164 74.8563 36.7155 75.2078 36.5137C75.5659 36.3053 75.8589 36.0221 76.0867 35.6641C76.3211 35.306 76.4936 34.8958 76.6043 34.4336C76.715 33.9648 76.7703 33.4668 76.7703 32.9395ZM92.524 34.5117C92.524 34.1797 92.472 33.8867 92.3678 33.6328C92.2701 33.3724 92.0944 33.138 91.8405 32.9297C91.5931 32.7214 91.248 32.5228 90.8053 32.334C90.3691 32.1452 89.8157 31.9531 89.1451 31.7578C88.442 31.5495 87.8073 31.3184 87.2408 31.0645C86.6744 30.804 86.1894 30.5078 85.7858 30.1758C85.3821 29.8438 85.0729 29.4629 84.858 29.0332C84.6432 28.6035 84.5358 28.112 84.5358 27.5586C84.5358 27.0052 84.6497 26.4941 84.8776 26.0254C85.1054 25.5566 85.4309 25.1497 85.8541 24.8047C86.2838 24.4531 86.7949 24.1797 87.3873 23.9844C87.9798 23.7891 88.6406 23.6914 89.3698 23.6914C90.4375 23.6914 91.3424 23.8965 92.0846 24.3066C92.8333 24.7103 93.403 25.2409 93.7936 25.8984C94.1842 26.5495 94.3795 27.2461 94.3795 27.9883H92.5045C92.5045 27.4544 92.3906 26.9824 92.1627 26.5723C91.9349 26.1556 91.5898 25.8301 91.1276 25.5957C90.6653 25.3548 90.0794 25.2344 89.3698 25.2344C88.6992 25.2344 88.1458 25.3353 87.7096 25.5371C87.2734 25.7389 86.9479 26.0124 86.733 26.3574C86.5247 26.7025 86.4205 27.0964 86.4205 27.5391C86.4205 27.8385 86.4824 28.112 86.6061 28.3594C86.7363 28.6003 86.9349 28.8249 87.2018 29.0332C87.4752 29.2415 87.8203 29.4336 88.2369 29.6094C88.6601 29.7852 89.1647 29.9544 89.7506 30.1172C90.5579 30.3451 91.2545 30.599 91.8405 30.8789C92.4264 31.1589 92.9082 31.4746 93.2858 31.8262C93.6699 32.1712 93.9531 32.5651 94.1354 33.0078C94.3242 33.444 94.4186 33.9388 94.4186 34.4922C94.4186 35.0716 94.3014 35.5957 94.067 36.0645C93.8326 36.5332 93.4974 36.9336 93.0612 37.2656C92.625 37.5977 92.1009 37.8548 91.4889 38.0371C90.8834 38.2129 90.2063 38.3008 89.4576 38.3008C88.8001 38.3008 88.1523 38.2096 87.5143 38.0273C86.8828 37.8451 86.3066 37.5716 85.7858 37.207C85.2714 36.8424 84.858 36.3932 84.5455 35.8594C84.2395 35.319 84.0865 34.694 84.0865 33.9844H85.9615C85.9615 34.4727 86.0559 34.8926 86.2448 35.2441C86.4336 35.5892 86.6907 35.8757 87.0162 36.1035C87.3483 36.3314 87.7226 36.5007 88.1393 36.6113C88.5625 36.7155 89.0019 36.7676 89.4576 36.7676C90.1152 36.7676 90.6718 36.6764 91.1276 36.4941C91.5833 36.3118 91.9283 36.0514 92.1627 35.7129C92.4036 35.3743 92.524 34.974 92.524 34.5117ZM100.381 27.5391V28.9258H94.6685V27.5391H100.381ZM96.6021 24.9707H98.4087V35.4883C98.4087 35.8464 98.4641 36.1165 98.5747 36.2988C98.6854 36.4811 98.8286 36.6016 99.0044 36.6602C99.1802 36.7188 99.369 36.748 99.5708 36.748C99.7206 36.748 99.8768 36.735 100.04 36.709C100.209 36.6764 100.336 36.6504 100.42 36.6309L100.43 38.1055C100.287 38.151 100.098 38.1934 99.8638 38.2324C99.6359 38.278 99.3592 38.3008 99.0337 38.3008C98.591 38.3008 98.1841 38.2129 97.813 38.0371C97.4419 37.8613 97.1457 37.5684 96.9243 37.1582C96.7095 36.7415 96.6021 36.1816 96.6021 35.4785V24.9707ZM101.237 32.9395V32.7148C101.237 31.9531 101.347 31.2467 101.569 30.5957C101.79 29.9382 102.109 29.3685 102.526 28.8867C102.942 28.3984 103.447 28.0208 104.039 27.7539C104.632 27.4805 105.296 27.3438 106.032 27.3438C106.774 27.3438 107.441 27.4805 108.034 27.7539C108.633 28.0208 109.14 28.3984 109.557 28.8867C109.98 29.3685 110.303 29.9382 110.524 30.5957C110.745 31.2467 110.856 31.9531 110.856 32.7148V32.9395C110.856 33.7012 110.745 34.4076 110.524 35.0586C110.303 35.7096 109.98 36.2793 109.557 36.7676C109.14 37.2493 108.636 37.627 108.043 37.9004C107.457 38.1673 106.793 38.3008 106.051 38.3008C105.309 38.3008 104.642 38.1673 104.049 37.9004C103.457 37.627 102.949 37.2493 102.526 36.7676C102.109 36.2793 101.79 35.7096 101.569 35.0586C101.347 34.4076 101.237 33.7012 101.237 32.9395ZM103.043 32.7148V32.9395C103.043 33.4668 103.105 33.9648 103.229 34.4336C103.353 34.8958 103.538 35.306 103.786 35.6641C104.039 36.0221 104.355 36.3053 104.733 36.5137C105.11 36.7155 105.55 36.8164 106.051 36.8164C106.546 36.8164 106.979 36.7155 107.35 36.5137C107.728 36.3053 108.04 36.0221 108.288 35.6641C108.535 35.306 108.72 34.8958 108.844 34.4336C108.974 33.9648 109.039 33.4668 109.039 32.9395V32.7148C109.039 32.194 108.974 31.7025 108.844 31.2402C108.72 30.7715 108.532 30.3581 108.278 30C108.03 29.6354 107.718 29.349 107.34 29.1406C106.969 28.9323 106.533 28.8281 106.032 28.8281C105.537 28.8281 105.101 28.9323 104.723 29.1406C104.352 29.349 104.039 29.6354 103.786 30C103.538 30.3581 103.353 30.7715 103.229 31.2402C103.105 31.7025 103.043 32.194 103.043 32.7148ZM114.338 29.1992V38.1055H112.532V27.5391H114.289L114.338 29.1992ZM117.639 27.4805L117.629 29.1602C117.48 29.1276 117.336 29.1081 117.2 29.1016C117.069 29.0885 116.92 29.082 116.75 29.082C116.334 29.082 115.966 29.1471 115.647 29.2773C115.328 29.4076 115.058 29.5898 114.836 29.8242C114.615 30.0586 114.439 30.3385 114.309 30.6641C114.185 30.9831 114.104 31.3346 114.065 31.7188L113.557 32.0117C113.557 31.3737 113.619 30.7747 113.743 30.2148C113.873 29.6549 114.071 29.1602 114.338 28.7305C114.605 28.2943 114.944 27.9557 115.354 27.7148C115.771 27.4674 116.265 27.3438 116.838 27.3438C116.968 27.3438 117.118 27.36 117.287 27.3926C117.457 27.4186 117.574 27.4479 117.639 27.4805ZM122.908 38.3008C122.173 38.3008 121.505 38.1771 120.906 37.9297C120.314 37.6758 119.803 37.321 119.373 36.8652C118.95 36.4095 118.625 35.8691 118.397 35.2441C118.169 34.6191 118.055 33.9355 118.055 33.1934V32.7832C118.055 31.9238 118.182 31.1589 118.436 30.4883C118.69 29.8112 119.035 29.2383 119.471 28.7695C119.907 28.3008 120.402 27.946 120.955 27.7051C121.509 27.4642 122.082 27.3438 122.674 27.3438C123.429 27.3438 124.08 27.474 124.627 27.7344C125.181 27.9948 125.633 28.3594 125.985 28.8281C126.336 29.2904 126.597 29.8372 126.766 30.4688C126.935 31.0938 127.02 31.7773 127.02 32.5195V33.3301H119.129V31.8555H125.213V31.7188C125.187 31.25 125.089 30.7943 124.92 30.3516C124.757 29.9089 124.497 29.5443 124.139 29.2578C123.781 28.9714 123.293 28.8281 122.674 28.8281C122.264 28.8281 121.886 28.916 121.541 29.0918C121.196 29.2611 120.9 29.515 120.653 29.8535C120.405 30.1921 120.213 30.6055 120.076 31.0938C119.94 31.582 119.871 32.1452 119.871 32.7832V33.1934C119.871 33.6947 119.94 34.1667 120.076 34.6094C120.22 35.0456 120.425 35.4297 120.692 35.7617C120.965 36.0938 121.294 36.3542 121.678 36.543C122.069 36.7318 122.511 36.8262 123.006 36.8262C123.644 36.8262 124.184 36.696 124.627 36.4355C125.07 36.1751 125.457 35.8268 125.789 35.3906L126.883 36.2598C126.655 36.6048 126.365 36.9336 126.014 37.2461C125.662 37.5586 125.229 37.8125 124.715 38.0078C124.207 38.2031 123.605 38.3008 122.908 38.3008Z" fill="white"/>
</svg>
