<svg width="326" height="96" viewBox="0 0 326 96" fill="none" xmlns="http://www.w3.org/2000/svg">
<path d="M322.645 95.4963C323.471 95.5544 324.188 94.9315 324.246 94.1051L325.192 80.6383C325.25 79.8119 324.627 79.0949 323.801 79.0369C322.975 78.9788 322.258 79.6017 322.2 80.4281L321.359 92.3986L309.388 91.5578C308.562 91.4997 307.845 92.1226 307.787 92.949C307.729 93.7754 308.352 94.4924 309.178 94.5504L322.645 95.4963ZM173.003 7.04659L172.712 8.51808L173.003 7.04659ZM0.325304 30.0442C0.0661176 30.8311 0.493864 31.679 1.2807 31.9382L14.103 36.1619C14.8898 36.4211 15.7378 35.9933 15.997 35.2065C16.2561 34.4197 15.8284 33.5717 15.0416 33.3125L3.64399 29.5581L7.39838 18.1606C7.65757 17.3737 7.22982 16.5257 6.44298 16.2666C5.65614 16.0074 4.80817 16.4351 4.54899 17.222L0.325304 30.0442ZM2.42557 31.8528C3.29474 31.4143 4.1659 30.9809 5.03899 30.5525L3.7174 27.8592C2.83444 28.2925 1.95343 28.7309 1.07443 29.1743L2.42557 31.8528ZM10.3056 28.0396C12.0717 27.2207 13.8454 26.4219 15.6261 25.6433L14.4243 22.8946C12.6234 23.6819 10.8297 24.4897 9.04355 25.318L10.3056 28.0396ZM20.9981 23.3648C22.7984 22.6245 24.6055 21.9047 26.419 21.2053L25.3395 18.4062C23.5054 19.1136 21.6779 19.8416 19.8572 20.5902L20.9981 23.3648ZM31.8862 19.1657C33.7171 18.5056 35.5541 17.8661 37.397 17.2473L36.442 14.4034C34.5782 15.0292 32.7203 15.676 30.8687 16.3436L31.8862 19.1657ZM42.9488 15.4509C44.8068 14.8722 46.6703 14.3144 48.539 13.7773L47.7104 10.8941C45.8205 11.4372 43.9359 12.0013 42.0567 12.5866L42.9488 15.4509ZM54.1649 12.2276C56.0464 11.7316 57.9328 11.2565 59.8236 10.8024L59.123 7.88535C57.2108 8.34458 55.303 8.82504 53.4001 9.3267L54.1649 12.2276ZM65.5123 9.50254C67.4136 9.09011 69.3191 8.69878 71.2283 8.3286L70.6572 5.38345C68.7264 5.75784 66.7993 6.15361 64.8763 6.57072L65.5123 9.50254ZM76.9688 7.2812C78.8863 6.95318 80.8071 6.64638 82.731 6.36085L82.2906 3.39335C80.3448 3.68213 78.4022 3.99241 76.4629 4.32415L76.9688 7.2812ZM88.5122 5.56802C90.442 5.32505 92.3745 5.1034 94.3094 4.90312L94.0005 1.91906C92.0436 2.12162 90.0892 2.34579 88.1374 2.59152L88.5122 5.56802ZM100.12 4.36648C102.058 4.20903 103.999 4.07298 105.941 3.95838L105.764 0.963589C103.8 1.07949 101.838 1.21709 99.877 1.37632L100.12 4.36648ZM111.77 3.67904C113.713 3.60743 115.657 3.55727 117.603 3.52862L117.559 0.528944C115.591 0.557922 113.624 0.60865 111.659 0.681078L111.77 3.67904ZM123.438 3.50719C125.383 3.52155 127.327 3.5574 129.273 3.61479L129.361 0.616095C127.394 0.558053 125.427 0.521796 123.46 0.507276L123.438 3.50719ZM135.103 3.85135C137.044 3.95163 138.986 4.07342 140.927 4.21676L141.148 1.2249C139.185 1.07994 137.221 0.956766 135.258 0.855343L135.103 3.85135ZM146.741 4.71083C148.676 4.89681 150.61 5.10429 152.543 5.33331L152.896 2.35415C150.941 2.12252 148.985 1.91269 147.028 1.72459L146.741 4.71083ZM158.329 6.08387C160.254 6.35514 162.177 6.64788 164.098 6.96212L164.582 4.00146C162.639 3.68365 160.694 3.38759 158.748 3.11324L158.329 6.08387ZM169.846 7.96758C170.802 8.14572 171.757 8.32922 172.712 8.51808L173.294 5.57509C172.329 5.38408 171.362 5.1985 170.395 5.01834L169.846 7.96758ZM172.712 8.51808C173.669 8.70725 174.624 8.90162 175.577 9.10118L176.192 6.16481C175.228 5.96298 174.262 5.7664 173.294 5.57509L172.712 8.51808ZM181.285 10.3617C183.184 10.8033 185.077 11.2655 186.963 11.7481L187.707 8.84181C185.799 8.35364 183.885 7.8862 181.964 7.43965L181.285 10.3617ZM192.609 13.2598C194.486 13.7848 196.357 14.3302 198.22 14.8959L199.091 12.0253C197.207 11.4532 195.315 10.9016 193.417 10.3706L192.609 13.2598ZM203.794 16.6556C205.646 17.263 207.49 17.8905 209.327 18.5381L210.324 15.7088C208.467 15.0539 206.602 14.4192 204.728 13.8049L203.794 16.6556ZM214.817 20.5423C216.641 21.2309 218.456 21.9393 220.263 22.6674L221.384 19.8849C219.557 19.1486 217.721 18.4321 215.877 17.7357L214.817 20.5423ZM225.659 24.9122C227.45 25.6805 229.233 26.4683 231.005 27.2755L232.249 24.5452C230.456 23.7289 228.653 22.9321 226.842 22.1552L225.659 24.9122ZM236.298 29.7562C238.053 30.6026 239.799 31.4682 241.535 32.3529L242.897 29.6801C241.141 28.7854 239.376 27.91 237.601 27.054L236.298 29.7562ZM246.713 35.0644C248.429 35.9872 250.134 36.9289 251.83 37.8893L253.308 35.2791C251.594 34.3078 249.869 33.3555 248.133 32.4222L246.713 35.0644ZM256.883 40.8262C258.557 41.8235 260.22 42.8394 261.871 43.8736L263.463 41.3309C261.793 40.285 260.112 39.2577 258.419 38.2491L256.883 40.8262ZM266.791 47.03C268.419 48.0998 270.035 49.1878 271.64 50.2938L273.342 47.8236C271.719 46.7052 270.085 45.6049 268.439 44.5229L266.791 47.03ZM276.416 53.6634C277.995 54.8037 279.562 55.9617 281.117 57.1372L282.926 54.7442C281.354 53.5554 279.769 52.3843 278.172 51.2312L276.416 53.6634ZM285.741 60.7134C287.268 61.9218 288.783 63.1474 290.285 64.3902L292.197 62.0789C290.679 60.8221 289.147 59.5827 287.602 58.3607L285.741 60.7134ZM294.747 68.1658C296.22 69.4398 297.679 70.7306 299.125 72.0382L301.137 69.813C299.675 68.4907 298.199 67.1853 296.71 65.897L294.747 68.1658ZM303.417 76.0058C304.833 77.3429 306.234 78.6965 307.622 80.0664L309.729 77.9315C308.326 76.5462 306.909 75.1774 305.478 73.8252L303.417 76.0058ZM311.736 84.2182C313.091 85.6159 314.432 87.0295 315.759 88.459L317.958 86.4184C316.617 84.9728 315.26 83.5433 313.89 82.1299L311.736 84.2182ZM319.688 92.7868C320.335 93.5153 320.978 94.2476 321.618 94.9837L323.882 93.0163C323.236 92.2718 322.585 91.5313 321.931 90.7947L319.688 92.7868ZM322.645 95.4963C323.471 95.5544 324.188 94.9315 324.246 94.1051L325.192 80.6383C325.25 79.8119 324.627 79.0949 323.801 79.0369C322.975 78.9788 322.258 79.6017 322.2 80.4281L321.359 92.3986L309.388 91.5578C308.562 91.4997 307.845 92.1226 307.787 92.949C307.729 93.7754 308.352 94.4924 309.178 94.5504L322.645 95.4963ZM173.003 7.04659L172.712 8.51808L173.003 7.04659ZM0.325304 30.0442C0.0661176 30.8311 0.493864 31.679 1.2807 31.9382L14.103 36.1619C14.8898 36.4211 15.7378 35.9933 15.997 35.2065C16.2561 34.4197 15.8284 33.5717 15.0416 33.3125L3.64399 29.5581L7.39838 18.1606C7.65757 17.3737 7.22982 16.5257 6.44298 16.2666C5.65614 16.0074 4.80817 16.4351 4.54899 17.222L0.325304 30.0442ZM2.42557 31.8528C3.29474 31.4143 4.1659 30.9809 5.03899 30.5525L3.7174 27.8592C2.83444 28.2925 1.95343 28.7309 1.07443 29.1743L2.42557 31.8528ZM10.3056 28.0396C12.0717 27.2207 13.8454 26.4219 15.6261 25.6433L14.4243 22.8946C12.6234 23.6819 10.8297 24.4897 9.04355 25.318L10.3056 28.0396ZM20.9981 23.3648C22.7984 22.6245 24.6055 21.9047 26.419 21.2053L25.3395 18.4062C23.5054 19.1136 21.6779 19.8416 19.8572 20.5902L20.9981 23.3648ZM31.8862 19.1657C33.7171 18.5056 35.5541 17.8661 37.397 17.2473L36.442 14.4034C34.5782 15.0292 32.7203 15.676 30.8687 16.3436L31.8862 19.1657ZM42.9488 15.4509C44.8068 14.8722 46.6703 14.3144 48.539 13.7773L47.7104 10.8941C45.8205 11.4372 43.9359 12.0013 42.0567 12.5866L42.9488 15.4509ZM54.1649 12.2276C56.0464 11.7316 57.9328 11.2565 59.8236 10.8024L59.123 7.88535C57.2108 8.34458 55.303 8.82504 53.4001 9.3267L54.1649 12.2276ZM65.5123 9.50254C67.4136 9.09011 69.3191 8.69878 71.2283 8.3286L70.6572 5.38345C68.7264 5.75784 66.7993 6.15361 64.8763 6.57072L65.5123 9.50254ZM76.9688 7.2812C78.8863 6.95318 80.8071 6.64638 82.731 6.36085L82.2906 3.39335C80.3448 3.68213 78.4022 3.99241 76.4629 4.32415L76.9688 7.2812ZM88.5122 5.56802C90.442 5.32505 92.3745 5.1034 94.3094 4.90312L94.0005 1.91906C92.0436 2.12162 90.0892 2.34579 88.1374 2.59152L88.5122 5.56802ZM100.12 4.36648C102.058 4.20903 103.999 4.07298 105.941 3.95838L105.764 0.963589C103.8 1.07949 101.838 1.21709 99.877 1.37632L100.12 4.36648ZM111.77 3.67904C113.713 3.60743 115.657 3.55727 117.603 3.52862L117.559 0.528944C115.591 0.557922 113.624 0.60865 111.659 0.681078L111.77 3.67904ZM123.438 3.50719C125.383 3.52155 127.327 3.5574 129.273 3.61479L129.361 0.616095C127.394 0.558053 125.427 0.521796 123.46 0.507276L123.438 3.50719ZM135.103 3.85135C137.044 3.95163 138.986 4.07342 140.927 4.21676L141.148 1.2249C139.185 1.07994 137.221 0.956766 135.258 0.855343L135.103 3.85135ZM146.741 4.71083C148.676 4.89681 150.61 5.10429 152.543 5.33331L152.896 2.35415C150.941 2.12252 148.985 1.91269 147.028 1.72459L146.741 4.71083ZM158.329 6.08387C160.254 6.35514 162.177 6.64788 164.098 6.96212L164.582 4.00146C162.639 3.68365 160.694 3.38759 158.748 3.11324L158.329 6.08387ZM169.846 7.96758C170.802 8.14572 171.757 8.32922 172.712 8.51808L173.294 5.57509C172.329 5.38408 171.362 5.1985 170.395 5.01834L169.846 7.96758ZM172.712 8.51808C173.669 8.70725 174.624 8.90162 175.577 9.10118L176.192 6.16481C175.228 5.96298 174.262 5.7664 173.294 5.57509L172.712 8.51808ZM181.285 10.3617C183.184 10.8033 185.077 11.2655 186.963 11.7481L187.707 8.84181C185.799 8.35364 183.885 7.8862 181.964 7.43965L181.285 10.3617ZM192.609 13.2598C194.486 13.7848 196.357 14.3302 198.22 14.8959L199.091 12.0253C197.207 11.4532 195.315 10.9016 193.417 10.3706L192.609 13.2598ZM203.794 16.6556C205.646 17.263 207.49 17.8905 209.327 18.5381L210.324 15.7088C208.467 15.0539 206.602 14.4192 204.728 13.8049L203.794 16.6556ZM214.817 20.5423C216.641 21.2309 218.456 21.9393 220.263 22.6674L221.384 19.8849C219.557 19.1486 217.721 18.4321 215.877 17.7357L214.817 20.5423ZM225.659 24.9122C227.45 25.6805 229.233 26.4683 231.005 27.2755L232.249 24.5452C230.456 23.7289 228.653 22.9321 226.842 22.1552L225.659 24.9122ZM236.298 29.7562C238.053 30.6026 239.799 31.4682 241.535 32.3529L242.897 29.6801C241.141 28.7854 239.376 27.91 237.601 27.054L236.298 29.7562ZM246.713 35.0644C248.429 35.9872 250.134 36.9289 251.83 37.8893L253.308 35.2791C251.594 34.3078 249.869 33.3555 248.133 32.4222L246.713 35.0644ZM256.883 40.8262C258.557 41.8235 260.22 42.8394 261.871 43.8736L263.463 41.3309C261.793 40.285 260.112 39.2577 258.419 38.2491L256.883 40.8262ZM266.791 47.03C268.419 48.0998 270.035 49.1878 271.64 50.2938L273.342 47.8236C271.719 46.7052 270.085 45.6049 268.439 44.5229L266.791 47.03ZM276.416 53.6634C277.995 54.8037 279.562 55.9617 281.117 57.1372L282.926 54.7442C281.354 53.5554 279.769 52.3843 278.172 51.2312L276.416 53.6634ZM285.741 60.7134C287.268 61.9218 288.783 63.1474 290.285 64.3902L292.197 62.0789C290.679 60.8221 289.147 59.5827 287.602 58.3607L285.741 60.7134ZM294.747 68.1658C296.22 69.4398 297.679 70.7306 299.125 72.0382L301.137 69.813C299.675 68.4907 298.199 67.1853 296.71 65.897L294.747 68.1658ZM303.417 76.0058C304.833 77.3429 306.234 78.6965 307.622 80.0664L309.729 77.9315C308.326 76.5462 306.909 75.1774 305.478 73.8252L303.417 76.0058ZM311.736 84.2182C313.091 85.6159 314.432 87.0295 315.759 88.459L317.958 86.4184C316.617 84.9728 315.26 83.5433 313.89 82.1299L311.736 84.2182ZM319.688 92.7868C320.335 93.5153 320.978 94.2476 321.618 94.9837L323.882 93.0163C323.236 92.2718 322.585 91.5313 321.931 90.7947L319.688 92.7868Z" fill="#77A1D3"/>
</svg>
