<svg width="161" height="50" viewBox="0 0 161 50" fill="none" xmlns="http://www.w3.org/2000/svg">
<rect x="1.38443" y="0.62759" width="158.745" height="48.7448" rx="6.90349" fill="black"/>
<rect x="1.38443" y="0.62759" width="158.745" height="48.7448" rx="6.90349" stroke="#A6A6A6" stroke-width="1.25518"/>
<path d="M23.4046 24.3681L10.9136 37.5484C10.9147 37.5508 10.9147 37.5543 10.9159 37.5566C11.2996 38.9878 12.6135 40.041 14.1739 40.041C14.798 40.041 15.3834 39.8731 15.8856 39.5791L15.9255 39.5558L29.985 31.4901L23.4046 24.3681Z" fill="#EA4335"/>
<path d="M36.0405 22.1238L36.0288 22.1156L29.9587 18.6176L23.1201 24.6677L29.9833 31.4888L36.0206 28.0257C37.0788 27.4565 37.7979 26.3473 37.7979 25.0689C37.7979 23.7975 37.0893 22.6941 36.0405 22.1238Z" fill="#FBBC04"/>
<path d="M10.9128 12.5326C10.8377 12.8078 10.7979 13.0971 10.7979 13.3957V36.6864C10.7979 36.985 10.8377 37.2742 10.914 37.5483L23.8332 24.7051L10.9128 12.5326Z" fill="#4285F4"/>
<path d="M23.4958 25.041L29.9601 18.6153L15.917 10.5205C15.4066 10.2161 14.8106 10.0411 14.1736 10.0411C12.6132 10.0411 11.2969 11.0967 10.9133 12.5291C10.9133 12.5302 10.9121 12.5314 10.9121 12.5326L23.4958 25.041Z" fill="#34A853"/>
<path d="M52.0225 11.7354V14.3379C51.9346 14.4681 51.7946 14.6146 51.6025 14.7773C51.4105 14.9368 51.1452 15.0768 50.8066 15.1973C50.4714 15.3145 50.0384 15.373 49.5078 15.373C49.0749 15.373 48.6761 15.2982 48.3115 15.1484C47.9502 14.9954 47.6361 14.7741 47.3691 14.4844C47.1055 14.1914 46.9004 13.8366 46.7539 13.4199C46.6107 13 46.5391 12.5247 46.5391 11.9941V11.4424C46.5391 10.9118 46.6009 10.4382 46.7246 10.0215C46.8516 9.60482 47.0371 9.25163 47.2812 8.96191C47.5254 8.66895 47.8249 8.44759 48.1797 8.29785C48.5345 8.14486 48.9414 8.06836 49.4004 8.06836C49.944 8.06836 50.3981 8.16276 50.7627 8.35156C51.1305 8.53711 51.417 8.79427 51.6221 9.12305C51.8304 9.45182 51.9639 9.82617 52.0225 10.2461H51.0801C51.0378 9.98893 50.9531 9.75456 50.8262 9.54297C50.7025 9.33138 50.5251 9.16211 50.2939 9.03516C50.0628 8.90495 49.765 8.83984 49.4004 8.83984C49.0716 8.83984 48.7868 8.90007 48.5459 9.02051C48.305 9.14095 48.1064 9.31348 47.9502 9.53809C47.7939 9.7627 47.6768 10.0345 47.5986 10.3535C47.5238 10.6725 47.4863 11.0322 47.4863 11.4326V11.9941C47.4863 12.4043 47.5335 12.7705 47.6279 13.0928C47.7256 13.415 47.8639 13.6901 48.043 13.918C48.222 14.1426 48.4352 14.3135 48.6826 14.4307C48.9333 14.5479 49.21 14.6064 49.5127 14.6064C49.848 14.6064 50.1198 14.5788 50.3281 14.5234C50.5365 14.4648 50.6992 14.3965 50.8164 14.3184C50.9336 14.237 51.0231 14.1605 51.085 14.0889V12.4971H49.4395V11.7354H52.0225ZM58.1016 14.5088V15.2754H54.3369V14.5088H58.1016ZM54.5273 8.16602V15.2754H53.585V8.16602H54.5273ZM57.6035 11.2227V11.9893H54.3369V11.2227H57.6035ZM58.0527 8.16602V8.9375H54.3369V8.16602H58.0527ZM61.9932 8.16602V15.2754H61.0654V8.16602H61.9932ZM64.2783 8.16602V8.9375H58.7852V8.16602H64.2783ZM68.6289 8.16602V15.2754H67.6865V8.16602H68.6289ZM72.8232 8.16602V15.2754H71.8955V8.16602H72.8232ZM75.1084 8.16602V8.9375H69.6152V8.16602H75.1084ZM83.9219 11.4961V11.9453C83.9219 12.4792 83.8551 12.9577 83.7217 13.3809C83.5882 13.804 83.3962 14.1637 83.1455 14.46C82.8949 14.7562 82.5938 14.9824 82.2422 15.1387C81.8939 15.2949 81.5033 15.373 81.0703 15.373C80.6504 15.373 80.2646 15.2949 79.9131 15.1387C79.5648 14.9824 79.262 14.7562 79.0049 14.46C78.751 14.1637 78.554 13.804 78.4141 13.3809C78.2741 12.9577 78.2041 12.4792 78.2041 11.9453V11.4961C78.2041 10.9622 78.2725 10.4854 78.4092 10.0654C78.5492 9.64225 78.7461 9.28255 79 8.98633C79.2539 8.68685 79.555 8.45898 79.9033 8.30273C80.2549 8.14648 80.6406 8.06836 81.0605 8.06836C81.4935 8.06836 81.8841 8.14648 82.2324 8.30273C82.584 8.45898 82.8851 8.68685 83.1357 8.98633C83.3896 9.28255 83.5833 9.64225 83.7168 10.0654C83.8535 10.4854 83.9219 10.9622 83.9219 11.4961ZM82.9893 11.9453V11.4863C82.9893 11.0632 82.9453 10.6888 82.8574 10.3633C82.7728 10.0378 82.6475 9.76432 82.4814 9.54297C82.3154 9.32161 82.112 9.15397 81.8711 9.04004C81.6335 8.92611 81.3633 8.86914 81.0605 8.86914C80.7676 8.86914 80.5023 8.92611 80.2646 9.04004C80.0303 9.15397 79.8285 9.32161 79.6592 9.54297C79.4932 9.76432 79.3646 10.0378 79.2734 10.3633C79.1823 10.6888 79.1367 11.0632 79.1367 11.4863V11.9453C79.1367 12.3717 79.1823 12.7493 79.2734 13.0781C79.3646 13.4036 79.4948 13.6787 79.6641 13.9033C79.8366 14.1247 80.04 14.2923 80.2744 14.4062C80.512 14.5202 80.7773 14.5771 81.0703 14.5771C81.3763 14.5771 81.6481 14.5202 81.8857 14.4062C82.1234 14.2923 82.3236 14.1247 82.4863 13.9033C82.6523 13.6787 82.7777 13.4036 82.8623 13.0781C82.9469 12.7493 82.9893 12.3717 82.9893 11.9453ZM90.8018 8.16602V15.2754H89.8545L86.2754 9.79199V15.2754H85.333V8.16602H86.2754L89.8691 13.6641V8.16602H90.8018Z" fill="white"/>
<path d="M118.139 36.3621H120.183V22.5407H118.139V36.3621ZM136.553 27.5193L134.21 33.5118H134.14L131.707 27.5193H129.505L133.152 35.8944L131.074 40.5535H133.205L138.827 27.5193H136.553ZM124.959 34.7921C124.289 34.7921 123.355 34.4549 123.355 33.618C123.355 32.5521 124.518 32.1431 125.522 32.1431C126.421 32.1431 126.845 32.3387 127.391 32.6052C127.232 33.8855 126.139 34.7921 124.959 34.7921ZM125.206 27.2175C123.726 27.2175 122.192 27.8753 121.558 29.3337L123.373 30.0976C123.761 29.3337 124.483 29.0838 125.241 29.0838C126.298 29.0838 127.373 29.7239 127.391 30.8627V31.0043C127.02 30.7909 126.228 30.4713 125.258 30.4713C123.303 30.4713 121.311 31.556 121.311 33.5826C121.311 35.4323 122.915 36.6242 124.712 36.6242C126.087 36.6242 126.845 36.0017 127.32 35.272H127.391V36.3389H129.364V31.0396C129.364 28.5863 127.549 27.2175 125.206 27.2175ZM112.571 29.2021H109.663V24.4645H112.571C114.099 24.4645 114.967 25.7415 114.967 26.8327C114.967 27.9041 114.099 29.2021 112.571 29.2021ZM112.518 22.5407H107.62V36.3621H109.663V31.1259H112.518C114.784 31.1259 117.012 29.4696 117.012 26.8327C117.012 24.1958 114.784 22.5407 112.518 22.5407ZM85.8058 34.7943C84.3935 34.7943 83.2113 33.6014 83.2113 31.9628C83.2113 30.3066 84.3935 29.0948 85.8058 29.0948C87.2005 29.0948 88.294 30.3066 88.294 31.9628C88.294 33.6014 87.2005 34.7943 85.8058 34.7943ZM88.1537 28.2933H88.0825C87.6234 27.7416 86.7414 27.2429 85.6294 27.2429C83.299 27.2429 81.1636 29.3082 81.1636 31.9628C81.1636 34.5986 83.299 36.6474 85.6294 36.6474C86.7414 36.6474 87.6234 36.1487 88.0825 35.5782H88.1537V36.256C88.1537 38.0548 87.2005 39.0167 85.6644 39.0167C84.411 39.0167 83.6342 38.1079 83.3165 37.3417L81.5339 38.0902C82.0456 39.3374 83.4052 40.8687 85.6644 40.8687C88.065 40.8687 90.0952 39.4435 90.0952 35.9707V27.5271H88.1537V28.2933ZM91.5074 36.3621H93.5552V22.5396H91.5074V36.3621ZM96.5726 31.8025C96.52 29.986 97.9673 29.0595 99.0081 29.0595C99.8211 29.0595 100.509 29.4685 100.738 30.0567L96.5726 31.8025ZM102.927 30.2347C102.539 29.1844 101.356 27.2429 98.938 27.2429C96.5375 27.2429 94.5434 29.1479 94.5434 31.9451C94.5434 34.581 96.52 36.6474 99.167 36.6474C101.304 36.6474 102.539 35.3295 103.051 34.5633L101.462 33.4941C100.933 34.278 100.209 34.7943 99.167 34.7943C98.1262 34.7943 97.3844 34.3134 96.9078 33.3703L103.139 30.7688L102.927 30.2347ZM53.2863 28.6858V30.6803H58.0161C57.8748 31.8025 57.5045 32.6218 56.9402 33.1912C56.2511 33.8866 55.1741 34.6528 53.2863 34.6528C50.373 34.6528 48.0963 32.2835 48.0963 29.3447C48.0963 26.4049 50.373 24.0366 53.2863 24.0366C54.8574 24.0366 56.0046 24.6602 56.8515 25.4618L58.2462 24.0543C57.0629 22.9144 55.4929 22.0409 53.2863 22.0409C49.2971 22.0409 45.9434 25.3191 45.9434 29.3447C45.9434 33.3703 49.2971 36.6474 53.2863 36.6474C55.4392 36.6474 57.0629 35.9342 58.3339 34.5986C59.641 33.2807 60.0463 31.4288 60.0463 29.9318C60.0463 29.4685 60.0113 29.0418 59.9401 28.6858H53.2863ZM65.4248 34.7943C64.0125 34.7943 62.7942 33.6191 62.7942 31.9451C62.7942 30.2524 64.0125 29.0948 65.4248 29.0948C66.836 29.0948 68.0543 30.2524 68.0543 31.9451C68.0543 33.6191 66.836 34.7943 65.4248 34.7943ZM65.4248 27.2429C62.8468 27.2429 60.7465 29.2198 60.7465 31.9451C60.7465 34.6528 62.8468 36.6474 65.4248 36.6474C68.0017 36.6474 70.1021 34.6528 70.1021 31.9451C70.1021 29.2198 68.0017 27.2429 65.4248 27.2429ZM75.6284 34.7943C74.2162 34.7943 72.9978 33.6191 72.9978 31.9451C72.9978 30.2524 74.2162 29.0948 75.6284 29.0948C77.0407 29.0948 78.258 30.2524 78.258 31.9451C78.258 33.6191 77.0407 34.7943 75.6284 34.7943ZM75.6284 27.2429C73.0515 27.2429 70.9512 29.2198 70.9512 31.9451C70.9512 34.6528 73.0515 36.6474 75.6284 36.6474C78.2054 36.6474 80.3057 34.6528 80.3057 31.9451C80.3057 29.2198 78.2054 27.2429 75.6284 27.2429Z" fill="white"/>
</svg>
