<svg width="139" height="33" viewBox="0 0 139 33" fill="none" xmlns="http://www.w3.org/2000/svg">
<g clip-path="url(#clip0_185_697)">
<path d="M16.2257 6.41387V27.657H17.7261V11.6494C17.7261 11.6494 21.5333 17.1221 22.0516 20.0152C22.0516 20.0152 22.5699 22.7926 20.4936 24.9343C20.142 25.2963 19.7297 25.64 19.4721 26.0872C19.2053 26.5527 19.1508 27.1276 19.1659 27.6539V29.9416C19.1659 29.9416 19.3114 30.9242 18.5021 30.9242C17.6958 30.9242 14.4373 30.9242 14.4373 30.9242V3.57862L13.8038 2.6234L12.852 4.0106V30.839L5.04069 30.9242C4.81638 30.9272 4.59814 30.8268 4.47386 30.6413C4.41627 30.5561 4.37383 30.4496 4.37383 30.3188C4.37383 29.8838 4.37383 29.6161 4.37383 29.6161H2.81885V30.2458C2.91888 31.925 3.98888 32.4118 4.70726 32.4605C6.06219 32.5487 18.9962 32.4605 18.9962 32.4605C18.9962 32.4605 20.6391 32.3144 20.6694 30.696L20.6967 27.3132C20.6967 27.1489 20.7633 26.9907 20.8785 26.8751C21.3029 26.4523 22.3608 25.3206 22.8609 24.1585C23.4944 22.6831 24.3613 21.0677 22.9185 17.5632C21.4757 14.0587 18.3414 9.45599 16.2257 6.41387Z" fill="url(#paint0_linear_185_697)"/>
<path d="M10.6605 7.33867L9.10547 9.74194V27.6874H10.6605V7.33867Z" fill="url(#paint1_linear_185_697)"/>
<path d="M12.6523 1.02932L12.1734 0.679481C11.746 0.366143 11.1458 0.475659 10.8518 0.916765L5.81701 8.52814V25.9503H3.97103C3.97103 25.9503 1.31876 24.3015 1.43395 20.508C1.43395 20.508 1.92499 16.9487 4.40449 13.8792V10.8979C4.40449 10.8979 0.397287 16.5989 0.0790152 19.5528C-0.227132 22.4032 0.27301 24.9282 3.28902 27.4166C3.5012 27.5931 3.76794 27.6874 4.04378 27.6874H7.34472L7.37503 8.96316L12.6523 1.02932Z" fill="url(#paint2_linear_185_697)"/>
</g>
<path d="M39.8956 27.948C39.8743 27.948 39.5223 27.9267 38.8396 27.884C38.1783 27.8627 37.4103 27.7773 36.5356 27.628C35.8103 27.5 35.1489 27.4147 34.5516 27.372C33.9756 27.308 33.6236 27.276 33.4956 27.276C33.4743 25.5053 33.3783 23.3613 33.2076 20.844C33.3783 20.8227 33.5489 20.812 33.7196 20.812C33.9116 20.812 34.0823 20.812 34.2316 20.812C34.6369 22.6893 35.3089 24.14 36.2476 25.164C37.2076 26.188 38.4663 26.7 40.0236 26.7C41.4103 26.7 42.5409 26.3267 43.4156 25.58C44.2903 24.812 44.7276 23.8093 44.7276 22.572C44.7276 21.6333 44.4823 20.8653 43.9916 20.268C43.5223 19.6707 42.8929 19.1693 42.1036 18.764C41.3356 18.3373 40.5143 17.9427 39.6396 17.58C38.6156 17.132 37.6343 16.6627 36.6956 16.172C35.7783 15.66 35.0209 15.0093 34.4236 14.22C33.8263 13.4307 33.5276 12.4067 33.5276 11.148C33.5276 9.804 33.8583 8.652 34.5196 7.692C35.2023 6.732 36.1089 6.00667 37.2396 5.516C38.3703 5.004 39.6183 4.748 40.9836 4.748C41.4103 4.748 41.8476 4.76933 42.2956 4.812C42.7649 4.85467 43.2449 4.91867 43.7356 5.004C44.3543 5.08933 44.8236 5.14267 45.1436 5.164C45.4849 5.18533 45.7089 5.196 45.8156 5.196C45.8796 5.196 45.9969 5.196 46.1676 5.196C46.3383 5.17467 46.4769 5.15333 46.5836 5.132C46.6263 6.07067 46.6689 7.04133 46.7116 8.044C46.7543 9.04667 46.8183 10.092 46.9036 11.18C46.4769 11.244 46.1249 11.2653 45.8476 11.244C45.3569 9.388 44.7489 8.05467 44.0236 7.244C43.2983 6.412 42.2636 5.996 40.9196 5.996C39.7463 5.996 38.7436 6.316 37.9116 6.956C37.0796 7.57467 36.6636 8.50267 36.6636 9.74C36.6636 10.4013 36.8129 10.988 37.1116 11.5C37.4316 12.012 37.9543 12.5027 38.6796 12.972C39.4049 13.4413 40.4076 13.9427 41.6876 14.476C42.3916 14.7747 43.0956 15.1053 43.7996 15.468C44.5249 15.8307 45.1863 16.268 45.7836 16.78C46.3809 17.2707 46.8609 17.8787 47.2236 18.604C47.5863 19.308 47.7676 20.1507 47.7676 21.132C47.7676 22.5827 47.4049 23.82 46.6796 24.844C45.9543 25.8467 44.9943 26.6147 43.7996 27.148C42.6263 27.6813 41.3249 27.948 39.8956 27.948ZM50.2276 27.532C50.1636 27.212 50.1636 26.8707 50.2276 26.508C51.2089 26.4227 51.9129 26.3267 52.3396 26.22C52.7876 26.1133 53.0649 25.9 53.1716 25.58C53.2996 25.2387 53.3636 24.6947 53.3636 23.948V9.068C53.3636 8.172 53.3103 7.532 53.2036 7.148C53.0969 6.764 52.8196 6.51867 52.3716 6.412C51.9236 6.284 51.1983 6.17733 50.1956 6.092C50.1316 5.772 50.1316 5.43067 50.1956 5.068C50.6223 5.068 51.1449 5.07867 51.7636 5.1C52.4036 5.1 53.0329 5.11067 53.6516 5.132C54.2703 5.132 54.7716 5.132 55.1556 5.132C55.5396 5.132 56.0303 5.132 56.6276 5.132C57.2463 5.11067 57.8649 5.1 58.4836 5.1C59.1236 5.07867 59.6356 5.068 60.0196 5.068C60.0836 5.388 60.0836 5.72933 60.0196 6.092C59.0383 6.17733 58.3236 6.27333 57.8756 6.38C57.4276 6.48667 57.1503 6.71067 57.0436 7.052C56.9369 7.372 56.8836 7.90533 56.8836 8.652V14.956H68.4036V9.068C68.4036 8.172 68.3503 7.532 68.2436 7.148C68.1369 6.764 67.8703 6.51867 67.4436 6.412C67.0169 6.284 66.3023 6.17733 65.2996 6.092C65.2569 5.772 65.2569 5.43067 65.2996 5.068C65.7049 5.068 66.2169 5.07867 66.8356 5.1C67.4543 5.1 68.0729 5.11067 68.6916 5.132C69.3103 5.132 69.8116 5.132 70.1956 5.132C70.6223 5.132 71.1343 5.132 71.7316 5.132C72.3289 5.11067 72.9263 5.1 73.5236 5.1C74.1423 5.07867 74.6649 5.068 75.0916 5.068C75.1343 5.388 75.1343 5.72933 75.0916 6.092C74.0889 6.17733 73.3636 6.27333 72.9156 6.38C72.4676 6.48667 72.1903 6.71067 72.0836 7.052C71.9769 7.372 71.9236 7.90533 71.9236 8.652V23.532C71.9236 24.4067 71.9769 25.0467 72.0836 25.452C72.1903 25.836 72.4569 26.092 72.8836 26.22C73.3316 26.3267 74.0676 26.4227 75.0916 26.508C75.1343 26.8707 75.1343 27.212 75.0916 27.532C74.6436 27.532 74.1103 27.5213 73.4916 27.5C72.8729 27.5 72.2543 27.5 71.6356 27.5C71.0383 27.4787 70.5369 27.468 70.1316 27.468C69.7476 27.468 69.2569 27.4787 68.6596 27.5C68.0623 27.5 67.4649 27.5 66.8676 27.5C66.2703 27.5213 65.7583 27.532 65.3316 27.532C65.2676 27.212 65.2676 26.8707 65.3316 26.508C66.3129 26.4227 67.0169 26.3267 67.4436 26.22C67.8703 26.1133 68.1369 25.9 68.2436 25.58C68.3503 25.2387 68.4036 24.6947 68.4036 23.948V16.364H56.8836V23.532C56.8836 24.428 56.9369 25.068 57.0436 25.452C57.1503 25.836 57.4169 26.092 57.8436 26.22C58.2916 26.3267 59.0169 26.4227 60.0196 26.508C60.0623 26.8707 60.0623 27.212 60.0196 27.532C59.5929 27.532 59.0703 27.5213 58.4516 27.5C57.8329 27.5 57.2143 27.5 56.5956 27.5C55.9983 27.4787 55.4969 27.468 55.0916 27.468C54.7076 27.468 54.2063 27.4787 53.5876 27.5C52.9903 27.5 52.3823 27.5 51.7636 27.5C51.1663 27.5213 50.6543 27.532 50.2276 27.532ZM77.1346 27.532C77.0919 27.212 77.0919 26.8707 77.1346 26.508C78.1373 26.4013 78.8519 26.3053 79.2786 26.22C79.7053 26.1133 79.9719 25.9 80.0786 25.58C80.1853 25.2387 80.2386 24.6947 80.2386 23.948V9.068C80.2386 8.172 80.1853 7.532 80.0786 7.148C79.9719 6.764 79.6946 6.51867 79.2466 6.412C78.8199 6.284 78.1159 6.17733 77.1346 6.092C77.0919 5.772 77.0919 5.43067 77.1346 5.068C77.6893 5.068 78.1693 5.07867 78.5746 5.1C79.0013 5.1 79.4279 5.1 79.8546 5.1C80.2813 5.1 80.7933 5.11067 81.3906 5.132C81.9879 5.132 82.7453 5.132 83.6626 5.132C85.3479 5.132 86.9266 5.132 88.3986 5.132C89.8706 5.11067 91.0973 5.1 92.0786 5.1C93.0599 5.07867 93.6359 5.068 93.8066 5.068C93.8919 5.85733 93.9879 6.668 94.0946 7.5C94.2226 8.332 94.3613 9.21733 94.5106 10.156C94.1479 10.1987 93.7959 10.1987 93.4546 10.156C93.1986 9.516 92.8999 8.95067 92.5586 8.46C92.2173 7.96933 91.8653 7.596 91.5026 7.34C91.0973 7.04133 90.6066 6.81733 90.0306 6.668C89.4759 6.51867 88.7826 6.444 87.9506 6.444H83.7586V15.18H85.5186C86.5426 15.18 87.3213 15.116 87.8546 14.988C88.3879 14.8387 88.7826 14.5293 89.0386 14.06C89.2946 13.5693 89.4973 12.8013 89.6466 11.756C90.0306 11.692 90.3933 11.692 90.7346 11.756C90.7133 13.036 90.6919 13.9747 90.6706 14.572C90.6706 15.1693 90.6706 15.6173 90.6706 15.916C90.6706 16.2573 90.6706 16.78 90.6706 17.484C90.6919 18.1667 90.7133 19.052 90.7346 20.14C90.4146 20.204 90.0519 20.204 89.6466 20.14C89.5186 19.0093 89.3266 18.1987 89.0706 17.708C88.8146 17.2173 88.4306 16.908 87.9186 16.78C87.4279 16.652 86.7239 16.588 85.8066 16.588H83.7586V23.532C83.7586 24.2573 83.7586 24.844 83.7586 25.292C83.7799 25.7187 83.8013 25.996 83.8226 26.124H88.2066C89.2733 26.124 90.1266 26.0387 90.7666 25.868C91.4279 25.676 91.9719 25.3987 92.3986 25.036C92.6973 24.8013 93.0493 24.396 93.4546 23.82C93.8599 23.2227 94.2439 22.54 94.6066 21.772C94.9479 21.7293 95.2786 21.7293 95.5986 21.772C95.3853 22.9667 95.2039 24.044 95.0546 25.004C94.9053 25.964 94.7773 26.796 94.6706 27.5C93.7106 27.5 92.6653 27.5 91.5346 27.5C90.4039 27.5 89.2733 27.5 88.1426 27.5C87.0119 27.4787 85.9773 27.468 85.0386 27.468C84.1213 27.468 83.3853 27.468 82.8306 27.468C81.8279 27.468 81.0066 27.4787 80.3666 27.5C79.7479 27.5 79.1933 27.5 78.7026 27.5C78.2333 27.5213 77.7106 27.532 77.1346 27.532ZM106.979 27.564C106.233 27.564 105.454 27.5427 104.643 27.5C103.854 27.4787 103.15 27.468 102.531 27.468C102.19 27.468 101.71 27.4787 101.091 27.5C100.473 27.5 99.8434 27.5 99.2034 27.5C98.5634 27.5213 98.03 27.532 97.6034 27.532C97.5607 27.212 97.5607 26.8707 97.6034 26.508C98.606 26.4013 99.3207 26.3053 99.7474 26.22C100.174 26.1133 100.441 25.9 100.547 25.58C100.654 25.2387 100.707 24.6947 100.707 23.948V9.068C100.707 8.172 100.654 7.532 100.547 7.148C100.441 6.764 100.163 6.51867 99.7154 6.412C99.2887 6.284 98.5847 6.17733 97.6034 6.092C97.5607 5.772 97.5607 5.43067 97.6034 5.068C98.0514 5.068 98.5847 5.07867 99.2034 5.1C99.822 5.1 100.43 5.11067 101.027 5.132C101.646 5.132 102.158 5.132 102.563 5.132C103.225 5.132 103.982 5.12133 104.835 5.1C105.71 5.07867 106.403 5.068 106.915 5.068C109.518 5.068 111.449 5.49467 112.707 6.348C113.966 7.20133 114.595 8.43867 114.595 10.06C114.595 12.7693 112.921 14.604 109.571 15.564V15.596C110.723 15.6813 111.769 15.948 112.707 16.396C113.667 16.844 114.435 17.4733 115.011 18.284C115.587 19.0947 115.875 20.0973 115.875 21.292C115.875 22.8067 115.417 24.076 114.499 25.1C113.582 26.1027 112.441 26.7853 111.075 27.148C110.478 27.2973 109.838 27.404 109.155 27.468C108.473 27.532 107.747 27.564 106.979 27.564ZM106.115 16.588C105.859 16.588 105.561 16.5987 105.219 16.62C104.899 16.62 104.569 16.6413 104.227 16.684V23.788C104.227 24.3213 104.227 24.7693 104.227 25.132C104.227 25.4947 104.238 25.7933 104.259 26.028C105.198 26.22 106.041 26.316 106.787 26.316C108.43 26.316 109.699 25.9107 110.595 25.1C111.513 24.268 111.971 23.0093 111.971 21.324C111.971 19.6813 111.502 18.4867 110.563 17.74C109.625 16.972 108.142 16.588 106.115 16.588ZM104.227 15.276C104.398 15.2973 104.547 15.308 104.675 15.308C104.825 15.308 104.963 15.308 105.091 15.308C107.139 15.308 108.59 14.9453 109.443 14.22C110.318 13.4733 110.755 12.3533 110.755 10.86C110.755 7.87333 109.209 6.38 106.115 6.38C105.795 6.38 105.486 6.40133 105.187 6.444C104.91 6.46533 104.59 6.49733 104.227 6.54V15.276ZM115.59 27.532C115.547 27.1907 115.547 26.8493 115.59 26.508C116.187 26.444 116.667 26.3693 117.03 26.284C117.392 26.1987 117.702 26.0493 117.958 25.836C118.214 25.6013 118.459 25.26 118.694 24.812C118.928 24.3427 119.206 23.692 119.526 22.86L126.438 5.132C126.672 5.04667 126.95 4.98267 127.27 4.94C127.611 4.89733 127.899 4.876 128.134 4.876L135.014 23.148C135.312 23.916 135.558 24.524 135.75 24.972C135.942 25.3987 136.155 25.708 136.39 25.9C136.624 26.092 136.923 26.2307 137.286 26.316C137.648 26.38 138.15 26.444 138.79 26.508C138.832 26.8493 138.832 27.1907 138.79 27.532C138.043 27.532 137.275 27.5213 136.486 27.5C135.696 27.4787 134.907 27.468 134.118 27.468C133.307 27.468 132.486 27.4787 131.654 27.5C130.843 27.5213 130.032 27.532 129.222 27.532C129.158 27.212 129.158 26.8707 129.222 26.508C130.267 26.4013 130.992 26.3053 131.398 26.22C131.803 26.1133 132.006 25.8573 132.006 25.452C132.006 25.2813 131.974 25.0893 131.91 24.876C131.846 24.6627 131.76 24.396 131.654 24.076L129.83 19.148H122.63L121.03 23.564C120.88 23.9693 120.763 24.3107 120.678 24.588C120.614 24.844 120.582 25.0787 120.582 25.292C120.582 25.7613 120.795 26.06 121.222 26.188C121.67 26.2947 122.395 26.4013 123.398 26.508C123.44 26.8707 123.44 27.212 123.398 27.532C122.672 27.532 121.958 27.5213 121.254 27.5C120.55 27.4787 119.835 27.468 119.11 27.468C118.512 27.468 117.936 27.4787 117.382 27.5C116.827 27.5213 116.23 27.532 115.59 27.532ZM123.11 17.804H129.35L126.214 9.292L123.11 17.804Z" fill="url(#paint3_linear_185_697)"/>
<defs>
<linearGradient id="paint0_linear_185_697" x1="2.81885" y1="17.5615" x2="25.7122" y2="17.5615" gradientUnits="userSpaceOnUse">
<stop stop-color="#77A1D3"/>
<stop offset="0.46445" stop-color="#79CBCA"/>
<stop offset="1" stop-color="#E684AE"/>
</linearGradient>
<linearGradient id="paint1_linear_185_697" x1="9.10547" y1="17.513" x2="10.81" y2="17.513" gradientUnits="userSpaceOnUse">
<stop stop-color="#77A1D3"/>
<stop offset="0.46445" stop-color="#79CBCA"/>
<stop offset="1" stop-color="#E684AE"/>
</linearGradient>
<linearGradient id="paint2_linear_185_697" x1="0.000976563" y1="14.0939" x2="13.8688" y2="14.0939" gradientUnits="userSpaceOnUse">
<stop stop-color="#77A1D3"/>
<stop offset="0.46445" stop-color="#79CBCA"/>
<stop offset="1" stop-color="#E684AE"/>
</linearGradient>
<linearGradient id="paint3_linear_185_697" x1="31.7036" y1="16.5" x2="148.992" y2="16.5" gradientUnits="userSpaceOnUse">
<stop stop-color="#77A1D3"/>
<stop offset="0.46445" stop-color="#79CBCA"/>
<stop offset="1" stop-color="#E684AE"/>
</linearGradient>
<clipPath id="clip0_185_697">
<rect width="23.7037" height="32" fill="white" transform="translate(0 0.5)"/>
</clipPath>
</defs>
</svg>
