<svg width="140" height="32" viewBox="0 0 140 32" fill="none" xmlns="http://www.w3.org/2000/svg">
<g clip-path="url(#clip0_185_990)">
<path d="M16.7257 5.91352V27.1566H18.2261V11.149C18.2261 11.149 22.0333 16.6218 22.5516 19.5148C22.5516 19.5148 23.0699 22.2923 20.9936 24.4339C20.642 24.7959 20.2297 25.1397 19.9721 25.5869C19.7053 26.0523 19.6508 26.6273 19.6659 27.1536V29.4412C19.6659 29.4412 19.8114 30.4238 19.0021 30.4238C18.1958 30.4238 14.9373 30.4238 14.9373 30.4238V3.07827L14.3038 2.12305L13.352 3.51025V30.3387L5.54069 30.4238C5.31638 30.4269 5.09814 30.3265 4.97386 30.1409C4.91627 30.0557 4.87383 29.9493 4.87383 29.8185C4.87383 29.3834 4.87383 29.1157 4.87383 29.1157H3.31885V29.7454C3.41888 31.4247 4.48888 31.9114 5.20726 31.9601C6.56219 32.0483 19.4962 31.9601 19.4962 31.9601C19.4962 31.9601 21.1391 31.8141 21.1694 30.1957L21.1967 26.8128C21.1967 26.6486 21.2633 26.4904 21.3785 26.3748C21.8029 25.9519 22.8608 24.8203 23.3609 23.6582C23.9944 22.1827 24.8613 20.5674 23.4185 17.0629C21.9757 13.5584 18.8414 8.95564 16.7257 5.91352Z" fill="white"/>
<path d="M11.1605 6.83887L9.60547 9.24214V27.1876H11.1605V6.83887Z" fill="white"/>
<path d="M13.1523 0.528927L12.6734 0.179084C12.246 -0.134254 11.6458 -0.0247379 11.3518 0.416369L6.31701 8.02774V25.4499H4.47103C4.47103 25.4499 1.81876 23.8011 1.93395 20.0076C1.93395 20.0076 2.42499 16.4483 4.90449 13.3788V10.3975C4.90449 10.3975 0.897287 16.0985 0.579015 19.0524C0.272868 21.9028 0.77301 24.4278 3.78902 26.9162C4.0012 27.0927 4.26794 27.187 4.54378 27.187H7.84472L7.87503 8.46276L13.1523 0.528927Z" fill="white"/>
</g>
<path d="M40.3956 27.448C40.3743 27.448 40.0223 27.4267 39.3396 27.384C38.6783 27.3627 37.9103 27.2773 37.0356 27.128C36.3103 27 35.6489 26.9147 35.0516 26.872C34.4756 26.808 34.1236 26.776 33.9956 26.776C33.9743 25.0053 33.8783 22.8613 33.7076 20.344C33.8783 20.3227 34.0489 20.312 34.2196 20.312C34.4116 20.312 34.5823 20.312 34.7316 20.312C35.1369 22.1893 35.8089 23.64 36.7476 24.664C37.7076 25.688 38.9663 26.2 40.5236 26.2C41.9103 26.2 43.0409 25.8267 43.9156 25.08C44.7903 24.312 45.2276 23.3093 45.2276 22.072C45.2276 21.1333 44.9823 20.3653 44.4916 19.768C44.0223 19.1707 43.3929 18.6693 42.6036 18.264C41.8356 17.8373 41.0143 17.4427 40.1396 17.08C39.1156 16.632 38.1343 16.1627 37.1956 15.672C36.2783 15.16 35.5209 14.5093 34.9236 13.72C34.3263 12.9307 34.0276 11.9067 34.0276 10.648C34.0276 9.304 34.3583 8.152 35.0196 7.192C35.7023 6.232 36.6089 5.50667 37.7396 5.016C38.8703 4.504 40.1183 4.248 41.4836 4.248C41.9103 4.248 42.3476 4.26933 42.7956 4.312C43.2649 4.35467 43.7449 4.41867 44.2356 4.504C44.8543 4.58933 45.3236 4.64267 45.6436 4.664C45.9849 4.68533 46.2089 4.696 46.3156 4.696C46.3796 4.696 46.4969 4.696 46.6676 4.696C46.8383 4.67467 46.9769 4.65333 47.0836 4.632C47.1263 5.57067 47.1689 6.54133 47.2116 7.544C47.2543 8.54667 47.3183 9.592 47.4036 10.68C46.9769 10.744 46.6249 10.7653 46.3476 10.744C45.8569 8.888 45.2489 7.55467 44.5236 6.744C43.7983 5.912 42.7636 5.496 41.4196 5.496C40.2463 5.496 39.2436 5.816 38.4116 6.456C37.5796 7.07467 37.1636 8.00267 37.1636 9.24C37.1636 9.90133 37.3129 10.488 37.6116 11C37.9316 11.512 38.4543 12.0027 39.1796 12.472C39.9049 12.9413 40.9076 13.4427 42.1876 13.976C42.8916 14.2747 43.5956 14.6053 44.2996 14.968C45.0249 15.3307 45.6863 15.768 46.2836 16.28C46.8809 16.7707 47.3609 17.3787 47.7236 18.104C48.0863 18.808 48.2676 19.6507 48.2676 20.632C48.2676 22.0827 47.9049 23.32 47.1796 24.344C46.4543 25.3467 45.4943 26.1147 44.2996 26.648C43.1263 27.1813 41.8249 27.448 40.3956 27.448ZM50.7276 27.032C50.6636 26.712 50.6636 26.3707 50.7276 26.008C51.7089 25.9227 52.4129 25.8267 52.8396 25.72C53.2876 25.6133 53.5649 25.4 53.6716 25.08C53.7996 24.7387 53.8636 24.1947 53.8636 23.448V8.568C53.8636 7.672 53.8103 7.032 53.7036 6.648C53.5969 6.264 53.3196 6.01867 52.8716 5.912C52.4236 5.784 51.6983 5.67733 50.6956 5.592C50.6316 5.272 50.6316 4.93067 50.6956 4.568C51.1223 4.568 51.6449 4.57867 52.2636 4.6C52.9036 4.6 53.5329 4.61067 54.1516 4.632C54.7703 4.632 55.2716 4.632 55.6556 4.632C56.0396 4.632 56.5303 4.632 57.1276 4.632C57.7463 4.61067 58.3649 4.6 58.9836 4.6C59.6236 4.57867 60.1356 4.568 60.5196 4.568C60.5836 4.888 60.5836 5.22933 60.5196 5.592C59.5383 5.67733 58.8236 5.77333 58.3756 5.88C57.9276 5.98667 57.6503 6.21067 57.5436 6.552C57.4369 6.872 57.3836 7.40533 57.3836 8.152V14.456H68.9036V8.568C68.9036 7.672 68.8503 7.032 68.7436 6.648C68.6369 6.264 68.3703 6.01867 67.9436 5.912C67.5169 5.784 66.8023 5.67733 65.7996 5.592C65.7569 5.272 65.7569 4.93067 65.7996 4.568C66.2049 4.568 66.7169 4.57867 67.3356 4.6C67.9543 4.6 68.5729 4.61067 69.1916 4.632C69.8103 4.632 70.3116 4.632 70.6956 4.632C71.1223 4.632 71.6343 4.632 72.2316 4.632C72.8289 4.61067 73.4263 4.6 74.0236 4.6C74.6423 4.57867 75.1649 4.568 75.5916 4.568C75.6343 4.888 75.6343 5.22933 75.5916 5.592C74.5889 5.67733 73.8636 5.77333 73.4156 5.88C72.9676 5.98667 72.6903 6.21067 72.5836 6.552C72.4769 6.872 72.4236 7.40533 72.4236 8.152V23.032C72.4236 23.9067 72.4769 24.5467 72.5836 24.952C72.6903 25.336 72.9569 25.592 73.3836 25.72C73.8316 25.8267 74.5676 25.9227 75.5916 26.008C75.6343 26.3707 75.6343 26.712 75.5916 27.032C75.1436 27.032 74.6103 27.0213 73.9916 27C73.3729 27 72.7543 27 72.1356 27C71.5383 26.9787 71.0369 26.968 70.6316 26.968C70.2476 26.968 69.7569 26.9787 69.1596 27C68.5623 27 67.9649 27 67.3676 27C66.7703 27.0213 66.2583 27.032 65.8316 27.032C65.7676 26.712 65.7676 26.3707 65.8316 26.008C66.8129 25.9227 67.5169 25.8267 67.9436 25.72C68.3703 25.6133 68.6369 25.4 68.7436 25.08C68.8503 24.7387 68.9036 24.1947 68.9036 23.448V15.864H57.3836V23.032C57.3836 23.928 57.4369 24.568 57.5436 24.952C57.6503 25.336 57.9169 25.592 58.3436 25.72C58.7916 25.8267 59.5169 25.9227 60.5196 26.008C60.5623 26.3707 60.5623 26.712 60.5196 27.032C60.0929 27.032 59.5703 27.0213 58.9516 27C58.3329 27 57.7143 27 57.0956 27C56.4983 26.9787 55.9969 26.968 55.5916 26.968C55.2076 26.968 54.7063 26.9787 54.0876 27C53.4903 27 52.8823 27 52.2636 27C51.6663 27.0213 51.1543 27.032 50.7276 27.032ZM77.6346 27.032C77.5919 26.712 77.5919 26.3707 77.6346 26.008C78.6373 25.9013 79.3519 25.8053 79.7786 25.72C80.2053 25.6133 80.4719 25.4 80.5786 25.08C80.6853 24.7387 80.7386 24.1947 80.7386 23.448V8.568C80.7386 7.672 80.6853 7.032 80.5786 6.648C80.4719 6.264 80.1946 6.01867 79.7466 5.912C79.3199 5.784 78.6159 5.67733 77.6346 5.592C77.5919 5.272 77.5919 4.93067 77.6346 4.568C78.1893 4.568 78.6693 4.57867 79.0746 4.6C79.5013 4.6 79.9279 4.6 80.3546 4.6C80.7813 4.6 81.2933 4.61067 81.8906 4.632C82.4879 4.632 83.2453 4.632 84.1626 4.632C85.8479 4.632 87.4266 4.632 88.8986 4.632C90.3706 4.61067 91.5973 4.6 92.5786 4.6C93.5599 4.57867 94.1359 4.568 94.3066 4.568C94.3919 5.35733 94.4879 6.168 94.5946 7C94.7226 7.832 94.8613 8.71733 95.0106 9.656C94.6479 9.69867 94.2959 9.69867 93.9546 9.656C93.6986 9.016 93.3999 8.45067 93.0586 7.96C92.7173 7.46933 92.3653 7.096 92.0026 6.84C91.5973 6.54133 91.1066 6.31733 90.5306 6.168C89.9759 6.01867 89.2826 5.944 88.4506 5.944H84.2586V14.68H86.0186C87.0426 14.68 87.8213 14.616 88.3546 14.488C88.8879 14.3387 89.2826 14.0293 89.5386 13.56C89.7946 13.0693 89.9973 12.3013 90.1466 11.256C90.5306 11.192 90.8933 11.192 91.2346 11.256C91.2133 12.536 91.1919 13.4747 91.1706 14.072C91.1706 14.6693 91.1706 15.1173 91.1706 15.416C91.1706 15.7573 91.1706 16.28 91.1706 16.984C91.1919 17.6667 91.2133 18.552 91.2346 19.64C90.9146 19.704 90.5519 19.704 90.1466 19.64C90.0186 18.5093 89.8266 17.6987 89.5706 17.208C89.3146 16.7173 88.9306 16.408 88.4186 16.28C87.9279 16.152 87.2239 16.088 86.3066 16.088H84.2586V23.032C84.2586 23.7573 84.2586 24.344 84.2586 24.792C84.2799 25.2187 84.3013 25.496 84.3226 25.624H88.7066C89.7733 25.624 90.6266 25.5387 91.2666 25.368C91.9279 25.176 92.4719 24.8987 92.8986 24.536C93.1973 24.3013 93.5493 23.896 93.9546 23.32C94.3599 22.7227 94.7439 22.04 95.1066 21.272C95.4479 21.2293 95.7786 21.2293 96.0986 21.272C95.8853 22.4667 95.7039 23.544 95.5546 24.504C95.4053 25.464 95.2773 26.296 95.1706 27C94.2106 27 93.1653 27 92.0346 27C90.9039 27 89.7733 27 88.6426 27C87.5119 26.9787 86.4773 26.968 85.5386 26.968C84.6213 26.968 83.8853 26.968 83.3306 26.968C82.3279 26.968 81.5066 26.9787 80.8666 27C80.2479 27 79.6933 27 79.2026 27C78.7333 27.0213 78.2106 27.032 77.6346 27.032ZM107.479 27.064C106.733 27.064 105.954 27.0427 105.143 27C104.354 26.9787 103.65 26.968 103.031 26.968C102.69 26.968 102.21 26.9787 101.591 27C100.973 27 100.343 27 99.7034 27C99.0634 27.0213 98.53 27.032 98.1034 27.032C98.0607 26.712 98.0607 26.3707 98.1034 26.008C99.106 25.9013 99.8207 25.8053 100.247 25.72C100.674 25.6133 100.941 25.4 101.047 25.08C101.154 24.7387 101.207 24.1947 101.207 23.448V8.568C101.207 7.672 101.154 7.032 101.047 6.648C100.941 6.264 100.663 6.01867 100.215 5.912C99.7887 5.784 99.0847 5.67733 98.1034 5.592C98.0607 5.272 98.0607 4.93067 98.1034 4.568C98.5514 4.568 99.0847 4.57867 99.7034 4.6C100.322 4.6 100.93 4.61067 101.527 4.632C102.146 4.632 102.658 4.632 103.063 4.632C103.725 4.632 104.482 4.62133 105.335 4.6C106.21 4.57867 106.903 4.568 107.415 4.568C110.018 4.568 111.949 4.99467 113.207 5.848C114.466 6.70133 115.095 7.93867 115.095 9.56C115.095 12.2693 113.421 14.104 110.071 15.064V15.096C111.223 15.1813 112.269 15.448 113.207 15.896C114.167 16.344 114.935 16.9733 115.511 17.784C116.087 18.5947 116.375 19.5973 116.375 20.792C116.375 22.3067 115.917 23.576 114.999 24.6C114.082 25.6027 112.941 26.2853 111.575 26.648C110.978 26.7973 110.338 26.904 109.655 26.968C108.973 27.032 108.247 27.064 107.479 27.064ZM106.615 16.088C106.359 16.088 106.061 16.0987 105.719 16.12C105.399 16.12 105.069 16.1413 104.727 16.184V23.288C104.727 23.8213 104.727 24.2693 104.727 24.632C104.727 24.9947 104.738 25.2933 104.759 25.528C105.698 25.72 106.541 25.816 107.287 25.816C108.93 25.816 110.199 25.4107 111.095 24.6C112.013 23.768 112.471 22.5093 112.471 20.824C112.471 19.1813 112.002 17.9867 111.063 17.24C110.125 16.472 108.642 16.088 106.615 16.088ZM104.727 14.776C104.898 14.7973 105.047 14.808 105.175 14.808C105.325 14.808 105.463 14.808 105.591 14.808C107.639 14.808 109.09 14.4453 109.943 13.72C110.818 12.9733 111.255 11.8533 111.255 10.36C111.255 7.37333 109.709 5.88 106.615 5.88C106.295 5.88 105.986 5.90133 105.687 5.944C105.41 5.96533 105.09 5.99733 104.727 6.04V14.776ZM116.09 27.032C116.047 26.6907 116.047 26.3493 116.09 26.008C116.687 25.944 117.167 25.8693 117.53 25.784C117.892 25.6987 118.202 25.5493 118.458 25.336C118.714 25.1013 118.959 24.76 119.194 24.312C119.428 23.8427 119.706 23.192 120.026 22.36L126.938 4.632C127.172 4.54667 127.45 4.48267 127.77 4.44C128.111 4.39733 128.399 4.376 128.634 4.376L135.514 22.648C135.812 23.416 136.058 24.024 136.25 24.472C136.442 24.8987 136.655 25.208 136.89 25.4C137.124 25.592 137.423 25.7307 137.786 25.816C138.148 25.88 138.65 25.944 139.29 26.008C139.332 26.3493 139.332 26.6907 139.29 27.032C138.543 27.032 137.775 27.0213 136.986 27C136.196 26.9787 135.407 26.968 134.618 26.968C133.807 26.968 132.986 26.9787 132.154 27C131.343 27.0213 130.532 27.032 129.722 27.032C129.658 26.712 129.658 26.3707 129.722 26.008C130.767 25.9013 131.492 25.8053 131.898 25.72C132.303 25.6133 132.506 25.3573 132.506 24.952C132.506 24.7813 132.474 24.5893 132.41 24.376C132.346 24.1627 132.26 23.896 132.154 23.576L130.33 18.648H123.13L121.53 23.064C121.38 23.4693 121.263 23.8107 121.178 24.088C121.114 24.344 121.082 24.5787 121.082 24.792C121.082 25.2613 121.295 25.56 121.722 25.688C122.17 25.7947 122.895 25.9013 123.898 26.008C123.94 26.3707 123.94 26.712 123.898 27.032C123.172 27.032 122.458 27.0213 121.754 27C121.05 26.9787 120.335 26.968 119.61 26.968C119.012 26.968 118.436 26.9787 117.882 27C117.327 27.0213 116.73 27.032 116.09 27.032ZM123.61 17.304H129.85L126.714 8.792L123.61 17.304Z" fill="white"/>
<defs>
<clipPath id="clip0_185_990">
<rect width="23.7037" height="32" fill="white" transform="translate(0.5)"/>
</clipPath>
</defs>
</svg>
