<svg width="255" height="197" viewBox="0 0 255 197" fill="none" xmlns="http://www.w3.org/2000/svg">
<path d="M0.448851 184.804C-0.106076 185.419 -0.057297 186.367 0.557801 186.922L10.5814 195.965C11.1965 196.52 12.145 196.471 12.6999 195.856C13.2549 195.241 13.2061 194.293 12.591 193.738L3.68111 185.7L11.7194 176.79C12.2743 176.175 12.2255 175.226 11.6104 174.671C10.9953 174.116 10.0468 174.165 9.49192 174.78L0.448851 184.804ZM152.333 131.324L153.231 132.525L152.333 131.324ZM248.718 1.35294C248.361 0.605621 247.465 0.289604 246.718 0.647099L234.539 6.47278C233.792 6.83028 233.476 7.72591 233.834 8.47323C234.191 9.22055 235.087 9.53657 235.834 9.17908L246.659 4.00069L251.838 14.8259C252.195 15.5732 253.091 15.8892 253.838 15.5317C254.585 15.1742 254.901 14.2786 254.544 13.5313L248.718 1.35294ZM1.63963 187.306C2.61255 187.256 3.58482 187.201 4.5564 187.141L4.37073 184.147C3.40968 184.206 2.44794 184.261 1.48555 184.31L1.63963 187.306ZM10.382 186.718C12.3236 186.557 14.2621 186.375 16.1973 186.172L15.8855 183.189C13.9713 183.389 12.0538 183.569 10.1332 183.728L10.382 186.718ZM21.9997 185.504C23.9327 185.261 25.862 184.997 27.7873 184.714L27.3499 181.746C25.4455 182.026 23.5371 182.287 21.625 182.528L21.9997 185.504ZM33.5568 183.801C35.4776 183.476 37.394 183.132 39.3057 182.767L38.7435 179.82C36.8524 180.181 34.9568 180.522 33.0569 180.843L33.5568 183.801ZM45.0314 181.612C46.9365 181.206 48.8366 180.781 50.7314 180.336L50.0454 177.415C48.1711 177.856 46.2915 178.276 44.4071 178.677L45.0314 181.612ZM56.4032 178.94C58.2893 178.455 60.1697 177.95 62.0443 177.425L61.2356 174.536C59.3813 175.055 57.5213 175.555 55.6557 176.035L56.4032 178.94ZM67.6523 175.791C69.516 175.227 71.3736 174.643 73.2246 174.039L72.2947 171.187C70.4637 171.784 68.6264 172.362 66.7828 172.92L67.6523 175.791ZM78.7586 172.17C80.5966 171.528 82.4278 170.866 84.2519 170.185L83.2025 167.375C81.3982 168.048 79.5869 168.703 77.7687 169.338L78.7586 172.17ZM89.7022 168.084C91.5113 167.365 93.313 166.627 95.1069 165.869L93.9399 163.105C92.1654 163.855 90.3832 164.585 88.5937 165.297L89.7022 168.084ZM100.464 163.54C102.241 162.745 104.01 161.932 105.77 161.099L104.488 158.387C102.746 159.211 100.996 160.016 99.2387 160.802L100.464 163.54ZM111.024 158.547C112.765 157.677 114.498 156.79 116.222 155.884L114.827 153.228C113.121 154.124 111.407 155.003 109.684 155.862L111.024 158.547ZM121.364 153.112C123.067 152.17 124.761 151.21 126.446 150.232L124.939 147.637C123.273 148.605 121.597 149.555 119.912 150.486L121.364 153.112ZM131.466 147.245C133.128 146.233 134.78 145.202 136.422 144.154L134.807 141.625C133.183 142.662 131.549 143.682 129.905 144.683L131.466 147.245ZM141.311 140.958C142.929 139.877 144.536 138.778 146.132 137.661L144.412 135.203C142.833 136.307 141.243 137.395 139.644 138.464L141.311 140.958ZM150.882 134.262C151.668 133.687 152.451 133.108 153.231 132.525L151.435 130.122C150.663 130.699 149.888 131.272 149.111 131.841L150.882 134.262ZM153.231 132.525C154.012 131.941 154.79 131.353 155.564 130.761L153.742 128.378C152.976 128.963 152.207 129.545 151.435 130.122L153.231 132.525ZM160.171 127.162C161.696 125.945 163.206 124.713 164.702 123.466L162.781 121.162C161.301 122.395 159.807 123.614 158.3 124.817L160.171 127.162ZM169.153 119.676C170.625 118.396 172.082 117.101 173.524 115.792L171.508 113.57C170.081 114.865 168.64 116.146 167.185 117.412L169.153 119.676ZM177.813 111.817C179.228 110.476 180.63 109.121 182.016 107.752L179.908 105.618C178.536 106.972 177.15 108.312 175.75 109.638L177.813 111.817ZM186.132 103.6C187.49 102.201 188.833 100.788 190.16 99.3618L187.964 97.318C186.651 98.729 185.323 100.126 183.98 101.51L186.132 103.6ZM194.098 95.0398C195.396 93.5851 196.678 92.117 197.944 90.6359L195.664 88.6865C194.411 90.1516 193.143 91.6038 191.859 93.0428L194.098 95.0398ZM201.696 86.1518C202.931 84.6438 204.151 83.123 205.353 81.5896L202.993 79.738C201.803 81.2548 200.597 82.7592 199.375 84.2508L201.696 86.1518ZM208.914 76.9516C210.084 75.3932 211.238 73.8224 212.375 72.2396L209.939 70.489C208.814 72.0547 207.672 73.6085 206.515 75.15L208.914 76.9516ZM215.737 67.4558C216.841 65.8496 217.928 64.2317 218.997 62.6023L216.49 60.9557C215.431 62.5676 214.356 64.168 213.264 65.7568L215.737 67.4558ZM222.155 57.6811C223.19 56.0302 224.208 54.368 225.208 52.6949L222.633 51.1553C221.644 52.8104 220.637 54.4546 219.613 56.0877L222.155 57.6811ZM228.156 47.6455C229.12 45.9527 230.067 44.2491 230.997 42.5352L228.359 41.1052C227.44 42.8007 226.503 44.4858 225.549 46.1604L228.156 47.6455ZM233.729 37.3662C234.622 35.6345 235.496 33.8926 236.353 32.1409L233.658 30.8231C232.81 32.5559 231.945 34.279 231.063 35.992L233.729 37.3662ZM238.866 26.8614C239.684 25.0938 240.485 23.3167 241.267 21.5302L238.519 20.3269C237.745 22.0941 236.953 23.852 236.144 25.6005L238.866 26.8614ZM243.556 16.1503C244.3 14.3502 245.025 12.5412 245.731 10.7234L242.935 9.63653C242.236 11.4347 241.519 13.2243 240.783 15.0049L243.556 16.1503ZM247.792 5.2519C248.126 4.33649 248.455 3.41897 248.78 2.49935L245.95 1.50114C245.63 2.41084 245.304 3.31848 244.974 4.22403L247.792 5.2519ZM0.448851 184.804C-0.106076 185.419 -0.057297 186.367 0.557801 186.922L10.5814 195.965C11.1965 196.52 12.145 196.471 12.6999 195.856C13.2549 195.241 13.2061 194.293 12.591 193.738L3.68111 185.7L11.7194 176.79C12.2743 176.175 12.2255 175.226 11.6104 174.671C10.9953 174.116 10.0468 174.165 9.49192 174.78L0.448851 184.804ZM152.333 131.324L153.231 132.525L152.333 131.324ZM248.718 1.35294C248.361 0.605621 247.465 0.289604 246.718 0.647099L234.539 6.47278C233.792 6.83028 233.476 7.72591 233.834 8.47323C234.191 9.22055 235.087 9.53657 235.834 9.17908L246.659 4.00069L251.838 14.8259C252.195 15.5732 253.091 15.8892 253.838 15.5317C254.585 15.1742 254.901 14.2786 254.544 13.5313L248.718 1.35294ZM1.63963 187.306C2.61255 187.256 3.58482 187.201 4.5564 187.141L4.37073 184.147C3.40968 184.206 2.44794 184.261 1.48555 184.31L1.63963 187.306ZM10.382 186.718C12.3236 186.557 14.2621 186.375 16.1973 186.172L15.8855 183.189C13.9713 183.389 12.0538 183.569 10.1332 183.728L10.382 186.718ZM21.9997 185.504C23.9327 185.261 25.862 184.997 27.7873 184.714L27.3499 181.746C25.4455 182.026 23.5371 182.287 21.625 182.528L21.9997 185.504ZM33.5568 183.801C35.4776 183.476 37.394 183.132 39.3057 182.767L38.7435 179.82C36.8524 180.181 34.9568 180.522 33.0569 180.843L33.5568 183.801ZM45.0314 181.612C46.9365 181.206 48.8366 180.781 50.7314 180.336L50.0454 177.415C48.1711 177.856 46.2915 178.276 44.4071 178.677L45.0314 181.612ZM56.4032 178.94C58.2893 178.455 60.1697 177.95 62.0443 177.425L61.2356 174.536C59.3813 175.055 57.5213 175.555 55.6557 176.035L56.4032 178.94ZM67.6523 175.791C69.516 175.227 71.3736 174.643 73.2246 174.039L72.2947 171.187C70.4637 171.784 68.6264 172.362 66.7828 172.92L67.6523 175.791ZM78.7586 172.17C80.5966 171.528 82.4278 170.866 84.2519 170.185L83.2025 167.375C81.3982 168.048 79.5869 168.703 77.7687 169.338L78.7586 172.17ZM89.7022 168.084C91.5113 167.365 93.313 166.627 95.1069 165.869L93.9399 163.105C92.1654 163.855 90.3832 164.585 88.5937 165.297L89.7022 168.084ZM100.464 163.54C102.241 162.745 104.01 161.932 105.77 161.099L104.488 158.387C102.746 159.211 100.996 160.016 99.2387 160.802L100.464 163.54ZM111.024 158.547C112.765 157.677 114.498 156.79 116.222 155.884L114.827 153.228C113.121 154.124 111.407 155.003 109.684 155.862L111.024 158.547ZM121.364 153.112C123.067 152.17 124.761 151.21 126.446 150.232L124.939 147.637C123.273 148.605 121.597 149.555 119.912 150.486L121.364 153.112ZM131.466 147.245C133.128 146.233 134.78 145.202 136.422 144.154L134.807 141.625C133.183 142.662 131.549 143.682 129.905 144.683L131.466 147.245ZM141.311 140.958C142.929 139.877 144.536 138.778 146.132 137.661L144.412 135.203C142.833 136.307 141.243 137.395 139.644 138.464L141.311 140.958ZM150.882 134.262C151.668 133.687 152.451 133.108 153.231 132.525L151.435 130.122C150.663 130.699 149.888 131.272 149.111 131.841L150.882 134.262ZM153.231 132.525C154.012 131.941 154.79 131.353 155.564 130.761L153.742 128.378C152.976 128.963 152.207 129.545 151.435 130.122L153.231 132.525ZM160.171 127.162C161.696 125.945 163.206 124.713 164.702 123.466L162.781 121.162C161.301 122.395 159.807 123.614 158.3 124.817L160.171 127.162ZM169.153 119.676C170.625 118.396 172.082 117.101 173.524 115.792L171.508 113.57C170.081 114.865 168.64 116.146 167.185 117.412L169.153 119.676ZM177.813 111.817C179.228 110.476 180.63 109.121 182.016 107.752L179.908 105.618C178.536 106.972 177.15 108.312 175.75 109.638L177.813 111.817ZM186.132 103.6C187.49 102.201 188.833 100.788 190.16 99.3618L187.964 97.318C186.651 98.729 185.323 100.126 183.98 101.51L186.132 103.6ZM194.098 95.0398C195.396 93.5851 196.678 92.117 197.944 90.6359L195.664 88.6865C194.411 90.1516 193.143 91.6038 191.859 93.0428L194.098 95.0398ZM201.696 86.1518C202.931 84.6438 204.151 83.123 205.353 81.5896L202.993 79.738C201.803 81.2548 200.597 82.7592 199.375 84.2508L201.696 86.1518ZM208.914 76.9516C210.084 75.3932 211.238 73.8224 212.375 72.2396L209.939 70.489C208.814 72.0547 207.672 73.6085 206.515 75.15L208.914 76.9516ZM215.737 67.4558C216.841 65.8496 217.928 64.2317 218.997 62.6023L216.49 60.9557C215.431 62.5676 214.356 64.168 213.264 65.7568L215.737 67.4558ZM222.155 57.6811C223.19 56.0302 224.208 54.368 225.208 52.6949L222.633 51.1553C221.644 52.8104 220.637 54.4546 219.613 56.0877L222.155 57.6811ZM228.156 47.6455C229.12 45.9527 230.067 44.2491 230.997 42.5352L228.359 41.1052C227.44 42.8007 226.503 44.4858 225.549 46.1604L228.156 47.6455ZM233.729 37.3662C234.622 35.6345 235.496 33.8926 236.353 32.1409L233.658 30.8231C232.81 32.5559 231.945 34.279 231.063 35.992L233.729 37.3662ZM238.866 26.8614C239.684 25.0938 240.485 23.3167 241.267 21.5302L238.519 20.3269C237.745 22.0941 236.953 23.852 236.144 25.6005L238.866 26.8614ZM243.556 16.1503C244.3 14.3502 245.025 12.5412 245.731 10.7234L242.935 9.63653C242.236 11.4347 241.519 13.2243 240.783 15.0049L243.556 16.1503ZM247.792 5.2519C248.126 4.33649 248.455 3.41897 248.78 2.49935L245.95 1.50114C245.63 2.41084 245.304 3.31848 244.974 4.22403L247.792 5.2519Z" fill="#77A1D3"/>
</svg>
