<svg width="68" height="68" viewBox="0 0 68 68" fill="none" xmlns="http://www.w3.org/2000/svg">
<g clip-path="url(#clip0_185_447)">
<path d="M15.01 52.3441H10.3704C9.18875 52.3443 8.01867 52.1117 6.92695 51.6596C5.83524 51.2075 4.84328 50.5447 4.00775 49.7092C3.17221 48.8737 2.50946 47.8817 2.05735 46.79C1.60524 45.6983 1.37263 44.5282 1.3728 43.3466V31.0555C1.3728 30.1799 1.72063 29.3402 2.33976 28.721C2.95889 28.1019 3.79861 27.7541 4.6742 27.7541H63.1861C64.0617 27.7541 64.9014 28.1019 65.5205 28.721C66.1397 29.3402 66.4875 30.1799 66.4875 31.0555V43.3531C66.4875 45.7391 65.5397 48.0273 63.8525 49.7145C62.1654 51.4016 59.8772 52.3494 57.4912 52.3494H15.01V52.3441Z" fill="#7BF6FF"/>
<path d="M57.4899 53.4718H10.3704C7.68551 53.47 5.11113 52.4027 3.21266 50.5042C1.31418 48.6058 0.24686 46.0314 0.245117 43.3465L0.245117 31.0555C0.24651 29.8812 0.713588 28.7555 1.54389 27.9252C2.3742 27.0949 3.49994 26.6278 4.67417 26.6264H63.1861C64.3603 26.6278 65.486 27.0949 66.3163 27.9252C67.1466 28.7555 67.6137 29.8812 67.6151 31.0555V43.3531C67.6116 46.0368 66.5435 48.6095 64.6453 50.5066C62.747 52.4036 60.1736 53.47 57.4899 53.4718ZM4.67417 28.8765C4.38843 28.8768 4.10555 28.9334 3.84171 29.0432C3.57787 29.1529 3.33822 29.3135 3.13648 29.5158C2.93473 29.7182 2.77484 29.9583 2.66593 30.2225C2.55702 30.4867 2.50123 30.7697 2.50175 31.0555V43.3531C2.50419 45.4392 3.33398 47.4392 4.8091 48.9144C6.28422 50.3895 8.28422 51.2193 10.3704 51.2217H57.4899C59.576 51.2193 61.576 50.3895 63.0511 48.9144C64.5263 47.4392 65.356 45.4392 65.3585 43.3531V31.0555C65.3578 30.4795 65.1287 29.9273 64.7214 29.5201C64.3142 29.1128 63.762 28.8837 63.1861 28.883L4.67417 28.8765Z" fill="#5E1235"/>
<path d="M8.23486 42.515H58.9795V46.14H8.23486V42.515Z" fill="#627EBD"/>
<path d="M58.9795 47.269H8.23484C7.93576 47.269 7.64894 47.1502 7.43746 46.9387C7.22598 46.7272 7.10718 46.4404 7.10718 46.1413V42.5149C7.10718 42.2159 7.22598 41.929 7.43746 41.7176C7.64894 41.5061 7.93576 41.3873 8.23484 41.3873H58.9795C59.2785 41.3873 59.5653 41.5061 59.7768 41.7176C59.9883 41.929 60.1071 42.2159 60.1071 42.5149V46.14C60.1073 46.2882 60.0782 46.435 60.0216 46.572C59.9651 46.7089 59.882 46.8334 59.7773 46.9382C59.6726 47.0431 59.5482 47.1263 59.4113 47.183C59.2744 47.2398 59.1276 47.269 58.9795 47.269ZM9.36249 45.0124H57.8505V43.6439H9.36249V45.0124Z" fill="#5E1235"/>
<path d="M20.5773 65.3983L19.0207 63.7641L19.0062 63.7772C19.022 63.7615 20.5563 62.1456 20.5563 57.9363C20.5563 56.8837 20.1615 56.381 19.5523 55.6297C18.7997 54.6928 17.8628 53.5244 17.8628 51.202C17.8628 47.1479 19.3931 45.6018 19.5734 45.4387L21.1129 47.0887L21.1366 47.0663C21.126 47.0769 20.1247 48.1664 20.1247 51.2033C20.1247 52.7336 20.651 53.3875 21.3168 54.2165C21.9826 55.0455 22.8182 56.085 22.8182 57.9363C22.8129 63.1246 20.8063 65.1865 20.5773 65.3983ZM26.0143 65.3983L24.4564 63.7694L24.4419 63.7825C24.4577 63.7667 25.9919 62.1509 25.9919 57.9416C25.9919 56.8889 25.5972 56.3863 24.988 55.635C24.2353 54.6981 23.2984 53.5296 23.2984 51.2072C23.2984 47.1532 24.8287 45.6071 25.009 45.4439L26.5485 47.094L26.5722 47.0716C26.5617 47.0821 25.5603 48.1716 25.5603 51.2085C25.5603 52.7388 26.0867 53.3928 26.7525 54.2218C27.4183 55.0507 28.2538 56.0902 28.2538 57.9416C28.2499 63.1246 26.2433 65.1865 26.0143 65.3983ZM31.4513 65.3983L29.8947 63.7641L29.8802 63.7772C29.896 63.7615 31.4302 62.1456 31.4302 57.9363C31.4302 56.8837 31.0355 56.381 30.4262 55.6297C29.6736 54.6928 28.7367 53.5244 28.7367 51.202C28.7367 47.1479 30.267 45.6018 30.4473 45.4387L31.9868 47.0887L32.0105 47.0663C32 47.0769 30.9986 48.1664 30.9986 51.2033C30.9986 52.7336 31.525 53.3875 32.1908 54.2165C32.8566 55.0455 33.6921 56.085 33.6921 57.9363C33.6868 63.1246 31.6802 65.1865 31.4513 65.3983ZM36.8882 65.3983L35.3316 63.7641L35.3172 63.7772C35.3329 63.7615 36.8672 62.1456 36.8672 57.9363C36.8672 56.8837 36.4724 56.381 35.8632 55.6297C35.1106 54.6928 34.1737 53.5244 34.1737 51.202C34.1737 47.1479 35.704 45.6018 35.8843 45.4387L37.4238 47.0887L37.4475 47.0663C37.4369 47.0769 36.4356 48.1664 36.4356 51.2033C36.4356 52.7336 36.9619 53.3875 37.6277 54.2165C38.2935 55.0455 39.1291 56.085 39.1291 57.9363C39.1238 63.1246 37.1172 65.1865 36.8882 65.3983ZM42.3252 65.3983L40.7725 63.7694L40.7581 63.7825C40.7739 63.7667 42.3081 62.1509 42.3081 57.9416C42.3081 56.8889 41.9134 56.3863 41.3041 55.635C40.5515 54.6981 39.6146 53.5296 39.6146 51.2072C39.6146 47.1532 41.1449 45.6071 41.3252 45.4439L42.8647 47.094L42.8884 47.0716C42.8779 47.0821 41.8765 48.1716 41.8765 51.2085C41.8765 52.7388 42.4028 53.3928 43.0686 54.2218C43.7345 55.0507 44.57 56.0902 44.57 57.9416C44.5608 63.1246 42.5542 65.1865 42.3252 65.3983ZM47.7622 65.3983L46.2056 63.7641L46.1911 63.7772C46.2069 63.7615 47.7411 62.1456 47.7411 57.9363C47.7411 56.8837 47.3464 56.381 46.7372 55.6297C45.9845 54.6928 45.0476 53.5244 45.0476 51.202C45.0476 47.1479 46.5779 45.6018 46.7582 45.4387L48.2977 47.0887L48.3214 47.0663C48.3109 47.0769 47.3095 48.1664 47.3095 51.2033C47.3095 52.7336 47.8359 53.3875 48.5017 54.2165C49.1675 55.0455 50.003 56.085 50.003 57.9363C49.9978 63.1246 47.9911 65.1865 47.7622 65.3983Z" fill="#5E1235"/>
<path d="M27.2892 23.6961C26.168 22.5748 25.4132 21.1399 25.1242 19.5808C24.8353 18.0216 25.0258 16.4116 25.6708 14.963L28.9432 18.2354C29.2071 18.4993 29.521 18.7078 29.8664 18.849C30.2119 18.9901 30.582 19.061 30.9552 19.0575C31.3284 19.0539 31.6971 18.976 32.0398 18.8283C32.3825 18.6806 32.6923 18.4661 32.9512 18.1972C34.0249 17.0841 33.942 15.2906 32.8486 14.1972L29.6432 10.9918C31.0916 10.3471 32.7014 10.1566 34.2603 10.4456C35.8191 10.7346 37.2537 11.4894 38.3748 12.6105C39.4958 13.7315 40.2507 15.1661 40.5396 16.725C40.8286 18.2838 40.6382 19.8937 39.9935 21.3421L47.0502 28.3988C49.3199 25.1201 50.2796 21.1103 49.7403 17.1592C49.2009 13.2082 47.2017 9.60229 44.1362 7.05182C41.0708 4.50135 37.1615 3.19117 33.1782 3.37936C29.195 3.56755 25.4266 5.24046 22.6153 8.06858C19.804 10.8967 18.1536 14.675 17.9892 18.6593C17.8247 22.6436 19.1582 26.5451 21.7269 29.5952C24.2956 32.6454 27.9134 34.6231 31.8676 35.1388C35.8218 35.6546 39.8258 34.671 43.0909 32.3818L36.0223 25.3145C34.5737 25.9594 32.9636 26.15 31.4045 25.861C29.8454 25.5721 28.4105 24.8172 27.2892 23.6961Z" fill="white"/>
<path d="M33.9302 36.4016C30.1104 36.4009 26.4011 35.1198 23.395 32.7631C20.389 30.4064 18.2596 27.1101 17.3472 23.4009C16.4348 19.6916 16.7921 15.7837 18.3619 12.3014C19.9317 8.81907 22.6234 5.96347 26.007 4.19086C29.3906 2.41826 33.2707 1.83097 37.0273 2.52284C40.7838 3.21471 44.2001 5.14581 46.7302 8.00755C49.2602 10.8693 50.758 14.4965 50.9841 18.3096C51.2103 22.1226 50.1519 25.9015 47.9779 29.0423C47.8839 29.1781 47.7611 29.2917 47.6183 29.3749C47.4756 29.4581 47.3163 29.5089 47.1517 29.5237C46.9871 29.5385 46.8213 29.517 46.666 29.4606C46.5107 29.4042 46.3696 29.3144 46.2528 29.1975L39.1935 22.1408C39.0321 21.9795 38.9234 21.773 38.8818 21.5487C38.8402 21.3243 38.8677 21.0926 38.9606 20.8842C39.4515 19.7804 39.6353 18.5646 39.4927 17.365C39.3501 16.1654 38.8863 15.0266 38.1503 14.0686C37.4143 13.1107 36.4334 12.3692 35.311 11.9224C34.1887 11.4756 32.9665 11.34 31.7736 11.53L33.6447 13.4011C35.1881 14.9446 35.2407 17.4473 33.7618 18.9815C33.3988 19.3582 32.9644 19.6588 32.4839 19.8657C32.0035 20.0727 31.4866 20.1818 30.9635 20.1867C30.4404 20.1916 29.9216 20.0922 29.4374 19.8943C28.9531 19.6964 28.5132 19.404 28.1432 19.0341L26.2063 17.0972C26.0435 18.1439 26.1289 19.2141 26.4558 20.2216C26.7826 21.2291 27.3417 22.1457 28.0879 22.8974C29.0508 23.8526 30.279 24.4956 31.6126 24.7428C32.9462 24.9899 34.3232 24.8297 35.5644 24.2829C35.7734 24.1894 36.0058 24.1615 36.231 24.2031C36.4561 24.2447 36.6633 24.3538 36.825 24.5158L43.8896 31.5818C44.0062 31.6981 44.0958 31.8385 44.1523 31.9932C44.2088 32.1478 44.2307 32.313 44.2165 32.477C44.2023 32.641 44.1524 32.8 44.0703 32.9427C43.9881 33.0853 43.8757 33.2083 43.7409 33.3029C40.87 35.3259 37.4423 36.4086 33.9302 36.4016ZM33.9302 4.48906C31.6584 4.48973 29.4171 5.01241 27.3793 6.01676C25.3416 7.0211 23.5618 8.48025 22.1775 10.2816C20.7932 12.0829 19.8412 14.1782 19.3952 16.4058C18.9492 18.6334 19.021 20.9337 19.605 23.1292C20.1891 25.3246 21.2698 27.3565 22.7638 29.068C24.2577 30.7795 26.125 32.1249 28.2214 33.0002C30.3178 33.8755 32.5873 34.2574 34.8548 34.1164C37.1222 33.9755 39.3269 33.3154 41.2988 32.1871L35.746 26.633C34.157 27.1713 32.4495 27.2563 30.8149 26.8784C29.1803 26.5005 27.6833 25.6746 26.4919 24.4935C25.2156 23.2069 24.3564 21.5659 24.0262 19.784C23.696 18.0022 23.91 16.1622 24.6405 14.5038C24.7147 14.3363 24.8287 14.1895 24.9724 14.0759C25.1162 13.9624 25.2854 13.8856 25.4655 13.8522C25.6457 13.8187 25.8312 13.8297 26.0061 13.8841C26.181 13.9385 26.3401 14.0346 26.4695 14.1643L29.7419 17.4367C29.8971 17.5929 30.0816 17.7167 30.2848 17.8012C30.4881 17.8857 30.7061 17.9291 30.9262 17.9288H30.942C31.1654 17.9274 31.3863 17.8811 31.5915 17.7927C31.7967 17.7044 31.9821 17.5757 32.1367 17.4144C32.767 16.7564 32.7275 15.6748 32.0486 14.9959L28.8459 11.7905C28.7162 11.6611 28.62 11.5021 28.5656 11.3272C28.5113 11.1523 28.5003 10.9667 28.5337 10.7866C28.5672 10.6065 28.644 10.4373 28.7575 10.2935C28.871 10.1497 29.0179 10.0358 29.1853 9.96155C30.7808 9.25092 32.549 9.02167 34.2729 9.30193C35.9968 9.5822 37.6014 10.3598 38.8895 11.5392C40.1777 12.7187 41.0934 14.2486 41.5242 15.9412C41.955 17.6338 41.8821 19.4153 41.3146 21.0671L46.8502 26.6027C48.1212 24.346 48.7792 21.7959 48.7586 19.206C48.7381 16.6161 48.0398 14.0767 46.7331 11.8404C45.4265 9.60418 43.5572 7.74903 41.311 6.45953C39.0648 5.17003 36.5202 4.49113 33.9302 4.49037V4.48906Z" fill="#5E1235"/>
<path d="M47.0503 28.4001L39.9935 21.3434C40.6383 19.895 40.8287 18.2852 40.5397 16.7263C40.2507 15.1675 39.4959 13.7329 38.3749 12.6118C37.2538 11.4907 35.8192 10.7359 34.2604 10.447C32.7015 10.158 31.0917 10.3484 29.6433 10.9931L32.85 14.1998C33.9434 15.2932 34.0263 17.0867 32.9526 18.1999C32.6937 18.4687 32.3839 18.6832 32.0412 18.8309C31.6985 18.9786 31.3298 19.0565 30.9566 19.0601C30.5834 19.0636 30.2133 18.9928 29.8678 18.8516C29.5224 18.7105 29.2085 18.5019 28.9446 18.238L25.6722 14.963C25.0274 16.4114 24.837 18.0212 25.126 19.58C25.4149 21.1389 26.1698 22.5735 27.2908 23.6945C28.4119 24.8156 29.8465 25.5704 31.4053 25.8594C32.9642 26.1484 34.574 25.9579 36.0224 25.3132L43.091 32.3818C44.6344 31.2975 45.9747 29.9497 47.0503 28.4001Z" fill="#FFD150"/>
<path d="M43.0921 33.5108C42.9438 33.511 42.7969 33.482 42.6598 33.4253C42.5227 33.3686 42.3982 33.2855 42.2934 33.1805L35.7459 26.633C34.0941 27.2006 32.3126 27.2734 30.62 26.8426C28.9274 26.4118 27.3975 25.4961 26.218 24.208C25.0386 22.9198 24.261 21.3153 23.9807 19.5914C23.7004 17.8674 23.9297 16.0992 24.6403 14.5038C24.7146 14.3363 24.8285 14.1895 24.9723 14.0759C25.116 13.9624 25.2853 13.8856 25.4654 13.8522C25.6455 13.8187 25.831 13.8297 26.006 13.8841C26.1809 13.9385 26.3399 14.0346 26.4693 14.1643L29.7418 17.4367C29.8997 17.5945 30.0874 17.7192 30.294 17.8037C30.5006 17.8881 30.722 17.9305 30.9452 17.9284C31.1684 17.9263 31.3889 17.8798 31.5939 17.7915C31.7989 17.7033 31.9843 17.5751 32.1392 17.4144C32.7695 16.7565 32.73 15.6749 32.051 14.9959L28.8457 11.7906C28.716 11.6611 28.6199 11.5021 28.5655 11.3272C28.5111 11.1523 28.5002 10.9667 28.5336 10.7866C28.567 10.6065 28.6438 10.4373 28.7573 10.2935C28.8709 10.1498 29.0177 10.0358 29.1852 9.96156C30.7806 9.25093 32.5489 9.02168 34.2728 9.30195C35.9967 9.58221 37.6012 10.3598 38.8894 11.5392C40.1775 12.7187 41.0932 14.2486 41.524 15.9412C41.9548 17.6338 41.882 19.4153 41.3144 21.0671L47.8501 27.6028C48.0375 27.7894 48.1534 28.0359 48.1774 28.2993C48.2015 28.5627 48.1322 28.8261 47.9817 29.0436C46.8315 30.7036 45.3966 32.147 43.7434 33.3068C43.5526 33.4406 43.3251 33.5118 43.0921 33.5108ZM36.0222 24.1856C36.1712 24.1849 36.3188 24.2137 36.4566 24.2704C36.5943 24.3271 36.7195 24.4105 36.8248 24.5159L43.2026 30.8936C44.0798 30.1916 44.8744 29.3921 45.5711 28.5107L39.1933 22.1408C39.0319 21.9795 38.9232 21.773 38.8817 21.5487C38.8401 21.3243 38.8675 21.0926 38.9604 20.8842C39.4513 19.7804 39.6352 18.5646 39.4925 17.365C39.3499 16.1654 38.8862 15.0266 38.1502 14.0687C37.4142 13.1107 36.4332 12.3692 35.3109 11.9224C34.1885 11.4756 32.9664 11.34 31.7734 11.53L33.6445 13.4011C35.188 14.9446 35.2406 17.4473 33.7616 18.9815C33.3986 19.3582 32.9642 19.6588 32.4838 19.8658C32.0033 20.0727 31.4865 20.1818 30.9634 20.1867C30.4403 20.1916 29.9214 20.0922 29.4372 19.8943C28.953 19.6964 28.513 19.404 28.143 19.0341L26.2062 17.0973C26.0162 18.2902 26.1517 19.5124 26.5986 20.6348C27.0454 21.7571 27.7869 22.738 28.7448 23.474C29.7027 24.21 30.8416 24.6738 32.0411 24.8164C33.2407 24.959 34.4565 24.7752 35.5603 24.2843C35.7056 24.2191 35.863 24.1855 36.0222 24.1856Z" fill="#5E1235"/>
<path d="M18.4902 34.6293H7.75576C7.45651 34.6293 7.16952 34.5104 6.95792 34.2988C6.74632 34.0872 6.62744 33.8002 6.62744 33.5009C6.62744 33.2017 6.74632 32.9147 6.95792 32.7031C7.16952 32.4915 7.45651 32.3726 7.75576 32.3726H18.4902C18.7895 32.3726 19.0765 32.4915 19.2881 32.7031C19.4997 32.9147 19.6185 33.2017 19.6185 33.5009C19.6185 33.8002 19.4997 34.0872 19.2881 34.2988C19.0765 34.5104 18.7895 34.6293 18.4902 34.6293Z" fill="white"/>
</g>
<defs>
<clipPath id="clip0_185_447">
<rect width="67.37" height="67.37" fill="white" transform="translate(0.245117 0.133667)"/>
</clipPath>
</defs>
</svg>
