<svg width="69" height="68" viewBox="0 0 69 68" fill="none" xmlns="http://www.w3.org/2000/svg">
<g clip-path="url(#clip0_185_483)">
<path d="M7.55029 16.1161H9.77929V41.0075H7.55029V16.1161Z" fill="#616484"/>
<path d="M59.3438 16.1161H61.5728V41.0075H59.3438V16.1161Z" fill="#424566"/>
<path d="M62.9069 16.1162H6.21611C5.09898 16.1162 4.19238 15.2109 4.19238 14.0924V2.65532C4.19238 1.53819 5.09767 0.631592 6.21611 0.631592H62.9069C64.0241 0.631592 64.9306 1.53688 64.9306 2.65532V14.0924C64.9306 15.2109 64.0241 16.1162 62.9069 16.1162Z" fill="#E6EAFF"/>
<path d="M62.9069 0.632935H34.5615V16.1162H62.9069C64.0241 16.1162 64.9293 15.2109 64.9293 14.0938V2.65667C64.9293 1.53822 64.0241 0.632935 62.9069 0.632935Z" fill="#CAD4FF"/>
<path d="M28.6403 5.28826V7.71727H30.7811C31.0079 7.71727 31.2255 7.80738 31.3859 7.96778C31.5463 8.12817 31.6364 8.34572 31.6364 8.57255C31.6364 8.79939 31.5463 9.01693 31.3859 9.17733C31.2255 9.33773 31.0079 9.42784 30.7811 9.42784H28.6403V11.8568H32.5232C32.7501 11.8568 32.9676 11.9469 33.128 12.1073C33.2884 12.2677 33.3785 12.4853 33.3785 12.7121C33.3785 12.939 33.2884 13.1565 33.128 13.3169C32.9676 13.4773 32.7501 13.5674 32.5232 13.5674H27.785C27.5581 13.5674 27.3406 13.4773 27.1802 13.3169C27.0198 13.1565 26.9297 12.939 26.9297 12.7121V4.43298C26.9297 4.20615 27.0198 3.9886 27.1802 3.8282C27.3406 3.66781 27.5581 3.5777 27.785 3.5777H32.5232C32.7501 3.5777 32.9676 3.66781 33.128 3.8282C33.2884 3.9886 33.3785 4.20615 33.3785 4.43298C33.3785 4.65982 33.2884 4.87736 33.128 5.03776C32.9676 5.19815 32.7501 5.28826 32.5232 5.28826H28.6403Z" fill="#616484"/>
<path d="M42.1104 3.5777C41.8836 3.5777 41.666 3.66781 41.5056 3.8282C41.3452 3.9886 41.2551 4.20615 41.2551 4.43298V9.54363L38.2129 4.31719C38.0182 3.98297 37.6235 3.82112 37.2511 3.92244C36.8787 4.02376 36.6182 4.36193 36.6182 4.74878V12.7121C36.6182 12.939 36.7083 13.1565 36.8687 13.3169C37.0291 13.4773 37.2466 13.5674 37.4734 13.5674C37.7003 13.5674 37.9178 13.4773 38.0782 13.3169C38.2386 13.1565 38.3287 12.939 38.3287 12.7121V7.91596L41.3722 13.1424C41.4476 13.2717 41.5555 13.379 41.6852 13.4536C41.815 13.5282 41.962 13.5674 42.1117 13.5674C42.1854 13.5674 42.2604 13.5582 42.3341 13.5371C42.5157 13.4881 42.6762 13.3806 42.7906 13.2312C42.905 13.0818 42.967 12.899 42.967 12.7108V4.43298C42.9665 4.20608 42.876 3.98864 42.7154 3.82832C42.5549 3.668 42.3373 3.57787 42.1104 3.5777Z" fill="#424566"/>
<path d="M20.502 9.42918H20.7651C22.377 9.42918 23.6889 8.11599 23.6889 6.50411C23.6889 4.89091 22.377 3.57904 20.7651 3.57904H17.115C16.8882 3.57904 16.6707 3.66915 16.5103 3.82955C16.3499 3.98994 16.2598 4.20749 16.2598 4.43432V12.7135C16.2598 12.9403 16.3499 13.1578 16.5103 13.3182C16.6707 13.4786 16.8882 13.5687 17.115 13.5687C17.3419 13.5687 17.5594 13.4786 17.7198 13.3182C17.8802 13.1578 17.9703 12.9403 17.9703 12.7135V9.42918H18.1572L21.7441 13.2556C21.8238 13.3413 21.9203 13.4096 22.0276 13.4563C22.135 13.5029 22.2508 13.5269 22.3678 13.5266C22.577 13.5266 22.7876 13.4503 22.952 13.2951C23.0341 13.2183 23.1002 13.1261 23.1466 13.0238C23.193 12.9214 23.2187 12.8109 23.2224 12.6986C23.2261 12.5863 23.2076 12.4744 23.168 12.3692C23.1283 12.2641 23.0684 12.1678 22.9915 12.0858L20.502 9.42918ZM17.9703 7.71861V5.28961H20.7651C21.4336 5.28961 21.9783 5.83436 21.9783 6.50411C21.9783 7.17386 21.4336 7.71861 20.7651 7.71861H17.9703Z" fill="#616484"/>
<path d="M52.0065 3.5777H47.0604C46.8335 3.5777 46.616 3.66781 46.4556 3.8282C46.2952 3.9886 46.2051 4.20615 46.2051 4.43298C46.2051 4.65982 46.2952 4.87736 46.4556 5.03776C46.616 5.19815 46.8335 5.28826 47.0604 5.28826H48.6788V12.7121C48.6788 12.939 48.7689 13.1565 48.9293 13.3169C49.0897 13.4773 49.3073 13.5674 49.5341 13.5674C49.7609 13.5674 49.9785 13.4773 50.1389 13.3169C50.2993 13.1565 50.3894 12.939 50.3894 12.7121V5.28826H52.0078C52.4802 5.28826 52.8631 4.90536 52.8631 4.43298C52.8631 3.9606 52.4789 3.5777 52.0065 3.5777Z" fill="#424566"/>
<path d="M64.6174 67.9766H60.5159C59.5172 67.9766 58.708 67.1674 58.708 66.1686V53.4749C58.708 52.4762 59.5172 51.667 60.5159 51.667H64.6174C65.6161 51.667 66.4253 52.4762 66.4253 53.4749V66.1686C66.4253 67.1674 65.6161 67.9766 64.6174 67.9766Z" fill="#333756"/>
<path d="M8.60676 67.9766H4.50667C3.50796 67.9766 2.69873 67.1674 2.69873 66.1686V53.4749C2.69873 52.4762 3.50796 51.667 4.50667 51.667H8.60808C9.60679 51.667 10.416 52.4762 10.416 53.4749V66.1686C10.416 67.1674 9.60547 67.9766 8.60676 67.9766Z" fill="#424566"/>
<path d="M2.92533 53.8552C3.03849 54.346 3.50429 58.3988 3.83061 60.8488C3.95693 61.7936 4.76221 62.4989 5.71618 62.4989H63.407C64.361 62.4989 65.1663 61.7936 65.2926 60.8488C65.6189 58.3988 66.0847 54.3474 66.1979 53.8552C66.5531 52.3052 67.1229 50.8038 67.3045 49.217C67.5334 47.2064 67.2821 45.1642 66.5176 43.2879C65.2597 40.201 63.0688 37.5956 61.8241 34.5008C60.524 31.2665 59.024 28.1178 57.6148 24.9309C55.641 20.4676 51.2238 17.5873 46.3435 17.5873H22.7797C17.8994 17.5873 13.4835 20.4689 11.5084 24.9309C10.0992 28.1178 8.59915 31.2652 7.29911 34.5008C6.05566 37.597 3.86482 40.201 2.60558 43.2879C1.84109 45.1642 1.58977 47.2077 1.81872 49.217C2.00031 50.8052 2.57006 52.3052 2.92533 53.8552Z" fill="#47B5FF"/>
<path d="M66.5189 43.2879C65.2596 40.201 63.0688 37.597 61.8253 34.5008C60.5253 31.2665 59.0253 28.1178 57.616 24.9309C55.641 20.4689 51.2251 17.5873 46.3447 17.5873H34.5615V62.4989H63.4083C64.3622 62.4989 65.1675 61.7949 65.2938 60.8488C65.6201 58.3988 66.0859 54.3474 66.1991 53.8566C66.5544 52.3065 67.1241 50.8052 67.3057 49.2183C67.5347 47.2077 67.2833 45.1642 66.5189 43.2879Z" fill="#2192FF"/>
<path d="M57.2239 28.6691C56.7831 27.6967 56.3265 26.6927 55.8857 25.6953C54.2133 21.9189 50.4698 19.4767 46.3447 19.4767H22.7796C18.6532 19.4767 14.9084 21.9176 13.236 25.6953C12.7952 26.6914 12.3412 27.6967 11.9004 28.6678C11.0649 30.5138 10.2057 32.4126 9.41748 34.3113C17.3874 34.9982 25.8271 35.3653 34.5615 35.3653C43.2959 35.3653 51.7356 34.9982 59.7042 34.3113C58.9186 32.4139 58.0607 30.5152 57.2239 28.6691Z" fill="#616484"/>
<path d="M57.2252 28.6704C56.7831 27.698 56.3278 26.694 55.887 25.6953C54.2146 21.9202 50.4698 19.4767 46.346 19.4767H34.5615V35.3653H34.5628C43.2986 35.3653 51.7369 34.9982 59.7055 34.3113C58.92 32.4152 58.0608 30.5165 57.2252 28.6704Z" fill="#424566"/>
<path d="M53.9159 52.9447L55.6409 49.5288C56.2291 48.363 57.0975 47.3538 58.1897 46.6393C59.4213 45.834 61.2266 45.005 63.5201 44.9077C63.5201 44.9077 64.7398 45.005 64.7398 47.0551V49.3051C64.7398 50.0249 64.3319 50.6828 63.6845 50.9986C62.3003 51.6736 59.3923 52.7078 54.0448 53.1328C53.9435 53.1421 53.8698 53.0355 53.9159 52.9447Z" fill="#CAD4FF"/>
<path d="M61.654 46.5485C60.5013 46.5485 59.5645 47.4827 59.5645 48.638C59.5645 49.7933 60.5013 50.7275 61.654 50.7275C62.8093 50.7275 63.7435 49.7933 63.7435 48.638C63.7435 47.4827 62.8093 46.5485 61.654 46.5485ZM61.654 50.1143C60.8395 50.1143 60.1776 49.4525 60.1776 48.638C60.1776 47.8235 60.8395 47.1616 61.654 47.1616C62.4685 47.1616 63.1303 47.8235 63.1303 48.638C63.1303 49.4525 62.4685 50.1143 61.654 50.1143Z" fill="#E6EAFF"/>
<path d="M61.654 47.5867C61.0737 47.5867 60.6027 48.0577 60.6027 48.638C60.6027 49.2183 61.0737 49.6894 61.654 49.6894C62.2343 49.6894 62.7054 49.2183 62.7054 48.638C62.7054 48.0577 62.2343 47.5867 61.654 47.5867ZM61.654 49.0196C61.4435 49.0196 61.2737 48.8485 61.2737 48.638C61.2737 48.4275 61.4435 48.2577 61.654 48.2577C61.8645 48.2577 62.0343 48.4275 62.0343 48.638C62.0343 48.8485 61.8645 49.0196 61.654 49.0196ZM57.5881 49.6183C56.9302 49.6183 56.396 50.1512 56.396 50.8104C56.396 51.4697 56.9302 52.0026 57.5881 52.0026C58.2474 52.0026 58.7803 51.4697 58.7803 50.8104C58.7803 50.1512 58.2474 49.6183 57.5881 49.6183ZM57.5881 51.6526C57.1236 51.6526 56.746 51.2749 56.746 50.8104C56.746 50.3459 57.1236 49.9683 57.5881 49.9683C58.0526 49.9683 58.4303 50.3459 58.4303 50.8104C58.4303 51.2749 58.0526 51.6526 57.5881 51.6526Z" fill="#E6EAFF"/>
<path d="M57.5892 50.3578C57.3392 50.3578 57.1353 50.5604 57.1353 50.8104C57.1353 51.0604 57.3392 51.2631 57.5892 51.2631C57.7093 51.2631 57.8244 51.2154 57.9093 51.1305C57.9942 51.0456 58.0419 50.9305 58.0419 50.8104C58.0419 50.6904 57.9942 50.5752 57.9093 50.4904C57.8244 50.4055 57.7093 50.3578 57.5892 50.3578ZM57.5892 50.9749C57.5456 50.9749 57.5038 50.9576 57.4729 50.9267C57.4421 50.8959 57.4247 50.8541 57.4247 50.8104C57.4247 50.7668 57.4421 50.725 57.4729 50.6941C57.5038 50.6633 57.5456 50.646 57.5892 50.646C57.6787 50.646 57.7524 50.7196 57.7524 50.8104C57.7524 50.9012 57.6787 50.9749 57.5892 50.9749Z" fill="#E6EAFF"/>
<path d="M63.5215 44.9063C61.2281 45.0024 59.4214 45.8326 58.1911 46.6392C57.0964 47.3537 56.2293 48.363 55.6411 49.5275L53.9174 52.9447C53.8713 53.0354 53.945 53.142 54.045 53.1341C54.1082 53.1302 54.1713 53.1236 54.2345 53.117L55.9108 49.7985C56.499 48.6327 57.3661 47.6222 58.4609 46.909C59.6504 46.1287 61.3794 45.3274 63.5663 45.1879C63.8242 45.1708 64.086 45.2392 64.2939 45.3932C64.2965 45.3958 64.2992 45.3971 64.3018 45.3997C63.9518 44.9405 63.5215 44.9063 63.5215 44.9063Z" fill="#FFC738"/>
<path d="M15.2072 52.9447L13.4822 49.5288C12.894 48.363 12.0256 47.3538 10.9335 46.6393C9.70185 45.834 7.89654 45.005 5.60307 44.9077C5.60307 44.9077 4.3833 45.005 4.3833 47.0551V49.3051C4.3833 50.0249 4.7912 50.6828 5.43859 50.9986C6.82283 51.6736 9.73079 52.7078 15.0783 53.1328C15.1809 53.1421 15.2533 53.0355 15.2072 52.9447Z" fill="#E6EAFF"/>
<path d="M5.38037 48.638C5.38037 49.7933 6.3146 50.7275 7.46989 50.7275C8.62255 50.7275 9.55942 49.7933 9.55942 48.638C9.55942 47.4827 8.62255 46.5485 7.46989 46.5485C6.3146 46.5485 5.38037 47.4827 5.38037 48.638ZM5.99354 48.638C5.99354 47.8235 6.6554 47.1616 7.46989 47.1616C8.28439 47.1616 8.94624 47.8235 8.94624 48.638C8.94624 49.4525 8.28439 50.1143 7.46989 50.1143C6.6554 50.1143 5.99354 49.4525 5.99354 48.638Z" fill="white"/>
<path d="M7.4698 47.5867C6.88952 47.5867 6.41846 48.0577 6.41846 48.638C6.41846 49.2183 6.88952 49.6894 7.4698 49.6894C8.05007 49.6894 8.52114 49.2183 8.52114 48.638C8.52114 48.0577 8.05007 47.5867 7.4698 47.5867ZM7.4698 49.0196C7.25927 49.0196 7.08953 48.8485 7.08953 48.638C7.08953 48.4275 7.25927 48.2577 7.4698 48.2577C7.68033 48.2577 7.85007 48.4275 7.85007 48.638C7.85007 48.8485 7.68033 49.0196 7.4698 49.0196ZM10.3422 50.8104C10.3422 51.4697 10.8751 52.0026 11.5344 52.0026C12.1923 52.0026 12.7265 51.4697 12.7265 50.8104C12.7265 50.1512 12.1923 49.6183 11.5344 49.6183C10.8751 49.6183 10.3422 50.1512 10.3422 50.8104ZM10.6922 50.8104C10.6922 50.3459 11.0699 49.9683 11.5344 49.9683C11.9989 49.9683 12.3765 50.3459 12.3765 50.8104C12.3765 51.2749 11.9989 51.6526 11.5344 51.6526C11.0699 51.6526 10.6922 51.2749 10.6922 50.8104Z" fill="white"/>
<path d="M11.5347 50.3578C11.286 50.3578 11.082 50.5604 11.082 50.8104C11.082 51.0604 11.286 51.2631 11.5347 51.2631C11.7847 51.2631 11.9886 51.0604 11.9886 50.8104C11.9886 50.5604 11.7847 50.3578 11.5347 50.3578ZM11.5347 50.9749C11.4452 50.9749 11.3715 50.9012 11.3715 50.8104C11.3715 50.7196 11.4452 50.646 11.5347 50.646C11.5783 50.646 11.6201 50.6633 11.651 50.6941C11.6818 50.725 11.6992 50.7668 11.6992 50.8104C11.6992 50.8541 11.6818 50.8959 11.651 50.9267C11.6201 50.9576 11.5783 50.9749 11.5347 50.9749Z" fill="white"/>
<path d="M5.60304 44.9063C7.89651 45.0024 9.70313 45.8326 10.9334 46.6392C12.0282 47.3537 12.8953 48.363 13.4835 49.5275L15.2072 52.9447C15.2533 53.0354 15.1796 53.142 15.0796 53.1341C15.0164 53.1302 14.9533 53.1236 14.8901 53.117L13.2137 49.7985C12.6256 48.6327 11.7584 47.6222 10.6637 46.909C9.47418 46.1287 7.74519 45.3274 5.5583 45.1879C5.3004 45.1708 5.03855 45.2392 4.83065 45.3932C4.82802 45.3958 4.82539 45.3971 4.82275 45.3997C5.17276 44.9405 5.60304 44.9063 5.60304 44.9063Z" fill="#FFF259"/>
<path d="M51.6278 56.7132C51.5002 56.7316 51.4225 56.8685 51.4752 56.9856C52.1844 58.5698 53.52 60.3751 55.4016 60.3751C56.4253 60.3751 59.6491 60.0712 60.6688 59.9646C61.4794 59.8804 62.6531 59.8251 63.3268 59.3067C63.6873 59.0291 63.7334 58.5212 63.7426 58.1014C63.761 57.2409 63.8478 55.9593 63.0412 55.3777C62.6123 55.0684 62.161 55.2184 61.682 55.2882C59.0622 55.6698 54.245 56.3277 51.6278 56.7132Z" fill="#0085F2"/>
<path d="M54.6814 56.654C54.5709 56.6698 54.5038 56.7882 54.5499 56.8895C55.163 58.2606 56.3196 59.8225 57.9473 59.8225C58.8342 59.8225 59.7224 59.812 60.604 59.7185C61.3053 59.6449 62.3211 59.5975 62.904 59.1488C63.2159 58.9093 63.2553 58.4698 63.2632 58.1053C63.279 57.3606 63.354 56.2514 62.6566 55.7487C62.2856 55.4816 61.8948 55.6106 61.4803 55.6711C59.2144 56.0014 56.9473 56.3185 54.6814 56.654Z" fill="#424566"/>
<path d="M17.4967 56.7132C17.6244 56.7316 17.702 56.8685 17.6494 56.9856C16.9402 58.5698 15.6046 60.3751 13.723 60.3751C12.6993 60.3751 9.47551 60.0712 8.45574 59.9646C7.6452 59.8804 6.47149 59.8251 5.79779 59.3067C5.43725 59.0291 5.3912 58.5212 5.38199 58.1014C5.36357 57.2409 5.27672 55.9593 6.08332 55.3777C6.51228 55.0684 6.9636 55.2184 7.44256 55.2882C10.061 55.6698 14.8783 56.3277 17.4967 56.7132Z" fill="#2192FF"/>
<path d="M14.4411 56.654C14.5516 56.6698 14.6187 56.7882 14.5727 56.8895C13.9595 58.2606 12.8029 59.8225 11.1752 59.8225C10.2884 59.8225 9.40017 59.812 8.51857 59.7185C7.81724 59.6449 6.80143 59.5975 6.21852 59.1488C5.90667 58.9093 5.8672 58.4698 5.8593 58.1053C5.84351 57.3606 5.76851 56.2514 6.46589 55.7487C6.83695 55.4816 7.22775 55.6106 7.64224 55.6711C9.90808 56.0014 12.1766 56.3185 14.4411 56.654Z" fill="#616484"/>
<path d="M67.4607 30.2468C67.0305 29.9363 66.5028 29.7889 65.9712 29.7889H64.4028C63.8843 29.7889 63.4936 29.9507 63.1988 30.1692C62.6988 30.5415 62.4277 31.1481 62.4277 31.7718V33.0692H67.8042C68.22 32.4284 68.245 31.7192 68.245 31.7192C68.2463 31.0073 67.8687 30.5402 67.4607 30.2468Z" fill="#2192FF"/>
<path d="M61.2329 33.0718C61.3763 33.406 61.5145 33.7416 61.6527 34.0784H65.7778C66.8554 34.0784 67.462 33.5981 67.8041 33.0705H61.4303L61.2329 33.0718Z" fill="#424566"/>
<path d="M6.69634 31.7718C6.69634 31.1481 6.42528 30.5415 5.92395 30.1692C5.63184 29.9507 5.23973 29.7889 4.71998 29.7889H3.15283C2.62124 29.7889 2.09491 29.9363 1.66333 30.2468C1.25411 30.5402 0.876465 31.0073 0.876465 31.7192C0.876465 31.7192 0.901465 32.4232 1.31332 33.0613H6.69634V31.7718Z" fill="#47B5FF"/>
<path d="M6.6965 33.0613H1.31348C1.65427 33.5916 2.26218 34.0784 3.3451 34.0784H7.46888C7.60573 33.7429 7.74652 33.406 7.88731 33.0718L6.6965 33.0613ZM65.1505 61.3619C64.8518 62.0383 64.1781 62.4988 63.407 62.4988H5.71621C4.94514 62.4988 4.27144 62.0383 3.97538 61.3619H17.5573C18.8573 61.3619 20.0547 60.6527 20.6758 59.5093L21.2429 58.4711C21.6145 57.7884 22.1634 57.2185 22.8317 56.8216C23.5 56.4247 24.263 56.2154 25.0403 56.2158H44.1197C44.897 56.2157 45.6599 56.4251 46.3282 56.822C46.9964 57.2189 47.5454 57.7886 47.9172 58.4711L48.4843 59.5093C48.7895 60.0699 49.2403 60.5379 49.7891 60.864C50.3379 61.19 50.9645 61.362 51.6028 61.3619H65.1505Z" fill="#616484"/>
<path d="M51.6027 61.362C50.3027 61.362 49.1053 60.6528 48.4829 59.5107L47.9171 58.4725C47.5454 57.7899 46.9965 57.2201 46.3282 56.8232C45.6599 56.4263 44.8969 56.2169 44.1196 56.2172H34.5615V62.4989H63.4083C64.1793 62.4989 64.853 62.0384 65.1517 61.362H51.6027Z" fill="#424566"/>
<path d="M59.6965 34.2876L58.7807 34.3863L58.6899 34.3968H58.6623C51.0002 35.0284 42.9171 35.3653 34.5617 35.3653C26.2062 35.3653 18.1205 35.0297 10.4585 34.3968H10.4309L10.3401 34.3863L9.42425 34.2876L7.46631 34.0771C7.46631 34.0771 11.1901 46.3905 18.306 46.3905H50.8134C57.9293 46.3905 61.6505 34.0771 61.6505 34.0771L59.6965 34.2876Z" fill="#5CC5FF"/>
<path d="M59.6963 34.2876L58.7805 34.3863L58.691 34.3969H58.6634C51.0014 35.0298 42.9183 35.3653 34.5628 35.3653H34.5615V46.3919H50.8172C57.8871 46.3919 61.6056 34.239 61.6543 34.0797V34.0784L59.6963 34.2876Z" fill="#47B5FF"/>
<path d="M52.7882 46.0656C52.1618 46.2761 51.5052 46.3906 50.8157 46.3906H18.3084C17.6176 46.3906 16.9597 46.2748 16.3347 46.0656C16.1899 46.8471 16.511 47.6761 16.8071 48.4051C17.3255 49.692 18.1676 50.8538 19.0874 51.892C19.5584 52.4249 20.2808 52.7947 20.8269 52.8144C25.4099 52.9736 29.9837 53.0539 34.5627 53.0539C39.1418 53.0539 43.7156 52.9736 48.2959 52.8144C48.8446 52.796 49.5644 52.4262 50.0368 51.892C50.9552 50.8538 51.7987 49.6933 52.3171 48.4051C52.6145 47.6774 52.9316 46.8498 52.7882 46.0656Z" fill="#616484"/>
<path d="M52.7896 46.0669C52.1633 46.2761 51.5053 46.3919 50.8172 46.3919H34.5615V53.0539H34.5628C39.1419 53.0539 43.7157 52.9736 48.2961 52.8144C48.8448 52.796 49.5645 52.4263 50.0382 51.892C50.9553 50.8552 51.8001 49.6933 52.3185 48.4064C52.6146 47.6775 52.9317 46.8498 52.7896 46.0669Z" fill="#424566"/>
<path d="M20.2376 46.3918V52.6841C20.0008 52.5959 19.76 52.4644 19.5376 52.3012V46.3918H20.2376ZM22.9061 46.3918V52.8815C22.6732 52.8749 22.439 52.867 22.2061 52.8604V46.3918H22.9061ZM25.5733 46.3918V52.9499C25.3404 52.946 25.1061 52.9407 24.8732 52.9328V46.3918H25.5733ZM28.2417 46.3918V53.0012C28.0075 52.9986 27.7746 52.9946 27.5417 52.9907V46.3918H28.2417ZM30.9089 46.3918V53.0367C30.676 53.0341 30.4431 53.0328 30.2102 53.0288V46.3918H30.9089ZM33.5774 46.3918V53.0512C33.3445 53.0525 33.1103 53.0512 32.8774 53.0499V46.3918H33.5774Z" fill="#72769C"/>
<path d="M36.2459 46.3918V53.0499C36.013 53.0512 35.7788 53.0525 35.5459 53.0512V46.3918H36.2459ZM38.9131 46.3918V53.0288C38.6802 53.0328 38.4473 53.0341 38.2131 53.0367V46.3918H38.9131ZM41.5816 46.3918V52.9907C41.3487 52.9946 41.1144 52.9999 40.8815 53.0012V46.3918H41.5816ZM44.2487 46.3918V52.9328C44.0145 52.9407 43.7816 52.946 43.5487 52.9499V46.3918H44.2487ZM46.9172 46.3918V52.8604C46.6843 52.867 46.4501 52.8749 46.2172 52.8815V46.3918H46.9172ZM49.5857 46.3918V52.3012C49.3633 52.4657 49.1225 52.5973 48.8857 52.6854V46.3918H49.5857Z" fill="#616484"/>
<path d="M34.5613 52.4907C36.115 52.4907 37.3745 51.2312 37.3745 49.6775C37.3745 48.1238 36.115 46.8643 34.5613 46.8643C33.0076 46.8643 31.748 48.1238 31.748 49.6775C31.748 51.2312 33.0076 52.4907 34.5613 52.4907Z" fill="#E6EAFF"/>
<path d="M34.5615 46.8629V52.4907C36.1155 52.4907 37.3761 51.2314 37.3761 49.6775C37.3761 48.1235 36.1155 46.8629 34.5615 46.8629Z" fill="#CAD4FF"/>
<path d="M34.5613 51.8565C35.7648 51.8565 36.7403 50.8809 36.7403 49.6775C36.7403 48.474 35.7648 47.4985 34.5613 47.4985C33.3579 47.4985 32.3823 48.474 32.3823 49.6775C32.3823 50.8809 33.3579 51.8565 34.5613 51.8565Z" fill="#616484"/>
<path d="M34.5615 47.4985V51.8565C35.7655 51.8565 36.7405 50.8801 36.7405 49.6775C36.7405 48.4735 35.7655 47.4985 34.5615 47.4985Z" fill="#424566"/>
<path d="M34.5614 47.3235L32.5771 50.8565H36.5443L34.5614 47.3235Z" fill="#E6EAFF"/>
<path d="M34.5615 47.3221V50.8564H36.5458L34.5615 47.3221Z" fill="#CAD4FF"/>
<path d="M33.7007 50.1986L34.5612 48.667L35.4205 50.1986H33.7007Z" fill="#616484"/>
<path d="M34.5615 48.667V50.1986H35.4221L34.5615 48.667Z" fill="#424566"/>
</g>
<defs>
<clipPath id="clip0_185_483">
<rect width="67.37" height="67.37" fill="white" transform="translate(0.876465 0.619751)"/>
</clipPath>
</defs>
</svg>
