<svg width="68" height="68" viewBox="0 0 68 68" fill="none" xmlns="http://www.w3.org/2000/svg">
<path d="M42.4925 48.0816C41.4887 48.489 40.6275 49.1837 40.0169 50.0786C39.4062 50.9735 39.0734 52.0288 39.0601 53.112C37.9279 53.4524 36.9356 54.1485 36.2302 55.0972C35.5247 56.0459 35.1438 57.1966 35.1438 58.3788C35.1425 59.1427 35.3022 59.8983 35.6124 60.5963C35.9227 61.2944 36.3765 61.9192 36.9444 62.4302C31.1824 67.2918 21.9656 67.1455 14.4705 65.2774C4.22957 62.7228 1.75373 57.5685 1.15728 55.2278C1.12204 55.0756 1.11904 54.9178 1.14846 54.7645C1.17789 54.6111 1.2391 54.4657 1.32814 54.3374C1.41718 54.2091 1.53209 54.1009 1.66548 54.0197C1.79886 53.9386 1.94776 53.8862 2.1026 53.866C21.4816 50.9288 27.2211 42.3759 28.6728 39.3486C29.225 40.2171 29.9678 40.9484 30.8448 41.4869C32.4162 42.4558 34.2455 42.923 36.0891 42.8261C38.0855 42.8182 40.0617 42.4097 41.8961 41.6219C42.2674 43.7556 42.4666 45.9164 42.4925 48.0816Z" fill="#FFDC00"/>
<path d="M41.8963 41.6219C40.8711 42.0957 39.7806 42.4176 38.6631 42.5763C38.941 44.3994 39.0907 46.2383 39.1132 48.0816C38.1094 48.4891 37.2482 49.1838 36.6376 50.0787C36.0269 50.9736 35.6941 52.0288 35.6808 53.1121C34.5486 53.4524 33.5563 54.1486 32.8509 55.0972C32.1455 56.0459 31.7645 57.1967 31.7645 58.3789C31.7632 59.1428 31.9229 59.8983 32.2331 60.5964C32.5434 61.2944 32.9972 61.9193 33.5651 62.4302C30.2663 64.9818 26.2248 66.3869 22.0547 66.4321C27.5285 66.7179 33.0305 65.7299 36.9412 62.4302C36.3734 61.9193 35.9195 61.2944 35.6093 60.5964C35.299 59.8983 35.1393 59.1428 35.1406 58.3789C35.1406 57.1967 35.5216 56.0459 36.227 55.0972C36.9324 54.1486 37.9248 53.4524 39.0569 53.1121C39.0703 52.0288 39.4031 50.9736 40.0137 50.0787C40.6243 49.1838 41.4855 48.4891 42.4893 48.0816C42.4641 45.916 42.2657 43.7559 41.8963 41.6219Z" fill="#FEC108"/>
<path d="M41.8961 41.6219C40.0617 42.4097 38.0855 42.8182 36.0891 42.8261C34.2455 42.923 32.4162 42.4558 30.8448 41.4868C29.9678 40.9484 29.225 40.2171 28.6729 39.3486C28.7404 39.2023 28.7966 39.0673 28.8529 38.9435C29.4328 37.3956 30.5516 36.1089 32.004 35.3198C32.3835 35.131 32.7839 34.9875 33.1969 34.8921C34.4558 34.6338 35.7629 34.7512 36.9557 35.2297C37.5681 35.4614 38.1442 35.7798 38.6662 36.1751C40.382 37.4594 41.5319 39.3598 41.8736 41.4756C41.8848 41.5206 41.8848 41.5769 41.8961 41.6219Z" fill="#FF9801"/>
<path d="M66.2383 58.3338C66.2398 59.4443 65.9421 60.5346 65.3765 61.4902C64.811 62.4459 63.9985 63.2316 63.0244 63.7647C62.0502 64.2978 60.9505 64.5587 59.8407 64.5199C58.731 64.4811 57.6521 64.1441 56.7176 63.5443C55.8955 64.5159 54.8632 65.2877 53.6989 65.8014C52.5345 66.3152 51.2685 66.5574 49.9967 66.5097C48.7249 66.4619 47.4807 66.1256 46.358 65.5261C45.2354 64.9266 44.2639 64.0795 43.5169 63.0491C42.6518 63.5859 41.654 63.8705 40.6359 63.8707C39.1812 63.8647 37.7878 63.2842 36.7591 62.2556C35.7305 61.227 35.15 59.8335 35.144 58.3788C35.1441 57.1966 35.525 56.0459 36.2304 55.0972C36.9359 54.1485 37.9282 53.4524 39.0604 53.112C39.0737 52.0288 39.4065 50.9735 40.0171 50.0786C40.6277 49.1837 41.4889 48.489 42.4928 48.0816C43.3761 47.7214 44.3383 47.5984 45.2839 47.7247C46.2294 47.8511 47.1255 48.2224 47.8833 48.8018C48.791 47.7236 49.9855 46.9246 51.3286 46.4973C52.6717 46.0701 54.1083 46.0321 55.4721 46.3878C56.8358 46.7434 58.0709 47.4782 59.0343 48.5069C59.9976 49.5357 60.6498 50.8163 60.9153 52.2005C62.3913 52.413 63.7415 53.1497 64.7189 54.2759C65.6963 55.4021 66.2357 56.8426 66.2383 58.3338Z" fill="#7F8E94"/>
<path d="M60.915 52.2005C60.7272 51.2102 60.3402 50.2684 59.7775 49.432C59.2148 48.5957 58.4882 47.8824 57.6417 47.3352C56.7952 46.788 55.8463 46.4185 54.8527 46.2489C53.8591 46.0793 52.8414 46.1132 51.8613 46.3485C53.079 46.6262 54.2079 47.2042 55.1451 48.0297C56.0823 48.8553 56.798 49.9022 57.2271 51.0751C57.4747 51.7391 58.0104 52.2557 58.6834 52.4774C59.9288 52.9066 61.0049 53.7219 61.7549 54.8048C62.505 55.8877 62.8901 57.1817 62.8541 58.4985C62.818 59.8153 62.3628 61.0863 61.5546 62.1266C60.7464 63.1669 59.6274 63.9222 58.3604 64.2826C59.439 64.598 60.5849 64.6015 61.6654 64.2926C62.7458 63.9837 63.7167 63.375 64.4656 62.5371C65.4538 61.547 66.072 60.2474 66.2167 58.856C66.3472 57.28 65.8712 55.7137 64.8859 54.4767C63.9006 53.2398 62.4803 52.4257 60.915 52.2005Z" fill="#545C60"/>
<path d="M62.2993 41.6444C63.8531 41.6444 65.1127 40.3848 65.1127 38.831C65.1127 37.2771 63.8531 36.0175 62.2993 36.0175C60.7455 36.0175 59.4858 37.2771 59.4858 38.831C59.4858 40.3848 60.7455 41.6444 62.2993 41.6444Z" fill="#7F8E94"/>
<path d="M54.9842 33.7668C56.2272 33.7668 57.2349 32.7591 57.2349 31.516C57.2349 30.273 56.2272 29.2653 54.9842 29.2653C53.7411 29.2653 52.7334 30.273 52.7334 31.516C52.7334 32.7591 53.7411 33.7668 54.9842 33.7668Z" fill="#7F8E94"/>
<path d="M7.71821 25.8891C7.41974 25.8891 7.1335 25.7705 6.92245 25.5595C6.7114 25.3484 6.59283 25.0622 6.59283 24.7637V22.513C6.59283 22.2145 6.7114 21.9282 6.92245 21.7172C7.1335 21.5061 7.41974 21.3876 7.71821 21.3876C8.01668 21.3876 8.30293 21.5061 8.51398 21.7172C8.72503 21.9282 8.84359 22.2145 8.84359 22.513V24.7637C8.84359 25.0622 8.72503 25.3484 8.51398 25.5595C8.30293 25.7705 8.01668 25.8891 7.71821 25.8891ZM7.71821 32.6414C7.41974 32.6414 7.1335 32.5228 6.92245 32.3118C6.7114 32.1007 6.59283 31.8145 6.59283 31.516V29.2652C6.59283 28.9668 6.7114 28.6805 6.92245 28.4695C7.1335 28.2584 7.41974 28.1399 7.71821 28.1399C8.01668 28.1399 8.30293 28.2584 8.51398 28.4695C8.72503 28.6805 8.84359 28.9668 8.84359 29.2652V31.516C8.84359 31.8145 8.72503 32.1007 8.51398 32.3118C8.30293 32.5228 8.01668 32.6414 7.71821 32.6414ZM5.46745 28.1399H3.21669C2.91822 28.1399 2.63197 28.0213 2.42092 27.8102C2.20988 27.5992 2.09131 27.3129 2.09131 27.0145C2.09131 26.716 2.20988 26.4298 2.42092 26.2187C2.63197 26.0077 2.91822 25.8891 3.21669 25.8891H5.46745C5.76592 25.8891 6.05216 26.0077 6.26321 26.2187C6.47426 26.4298 6.59283 26.716 6.59283 27.0145C6.59283 27.3129 6.47426 27.5992 6.26321 27.8102C6.05216 28.0213 5.76592 28.1399 5.46745 28.1399ZM12.2197 28.1399H9.96897C9.6705 28.1399 9.38426 28.0213 9.17321 27.8102C8.96216 27.5992 8.84359 27.3129 8.84359 27.0145C8.84359 26.716 8.96216 26.4298 9.17321 26.2187C9.38426 26.0077 9.6705 25.8891 9.96897 25.8891H12.2197C12.5182 25.8891 12.8044 26.0077 13.0155 26.2187C13.2265 26.4298 13.3451 26.716 13.3451 27.0145C13.3451 27.3129 13.2265 27.5992 13.0155 27.8102C12.8044 28.0213 12.5182 28.1399 12.2197 28.1399Z" fill="#EF314C"/>
<path d="M11.0944 43.8952C10.8718 43.8951 10.6543 43.8291 10.4693 43.7054C10.2843 43.5818 10.14 43.406 10.0549 43.2004C9.96973 42.9948 9.94745 42.7686 9.99085 42.5503C10.0343 42.332 10.1414 42.1315 10.2987 41.9741L11.9868 40.2861C12.1991 40.0811 12.4833 39.9676 12.7784 39.9702C13.0735 39.9728 13.3557 40.0911 13.5644 40.2998C13.773 40.5084 13.8914 40.7907 13.894 41.0858C13.8965 41.3808 13.7831 41.6651 13.5781 41.8774L11.89 43.5654C11.679 43.7765 11.3928 43.8951 11.0944 43.8952ZM16.1586 38.8309C15.936 38.8309 15.7185 38.7649 15.5335 38.6412C15.3485 38.5176 15.2043 38.3418 15.1191 38.1362C15.0339 37.9306 15.0117 37.7044 15.0551 37.4861C15.0985 37.2678 15.2056 37.0673 15.3629 36.9099L17.051 35.2219C17.2633 35.0169 17.5475 34.9034 17.8426 34.906C18.1377 34.9086 18.4199 35.0269 18.6286 35.2356C18.8373 35.4442 18.9556 35.7265 18.9582 36.0215C18.9607 36.3166 18.8473 36.6009 18.6423 36.8131L16.9542 38.5012C16.7432 38.7123 16.457 38.8309 16.1586 38.8309ZM17.8467 43.8952C17.5482 43.8951 17.262 43.7765 17.051 43.5654L15.3629 41.8774C15.158 41.6651 15.0445 41.3808 15.0471 41.0858C15.0496 40.7907 15.168 40.5084 15.3767 40.2998C15.5853 40.0911 15.8676 39.9728 16.1626 39.9702C16.4577 39.9676 16.742 40.0811 16.9542 40.2861L18.6423 41.9741C18.7996 42.1315 18.9068 42.332 18.9502 42.5503C18.9936 42.7686 18.9713 42.9948 18.8862 43.2004C18.801 43.406 18.6568 43.5818 18.4718 43.7054C18.2867 43.8291 18.0692 43.8951 17.8467 43.8952ZM12.7824 38.8309C12.484 38.8309 12.1978 38.7123 11.9868 38.5012L10.2987 36.8131C10.0937 36.6009 9.98031 36.3166 9.98287 36.0215C9.98543 35.7265 10.1038 35.4442 10.3124 35.2356C10.5211 35.0269 10.8034 34.9086 11.0984 34.906C11.3935 34.9034 11.6778 35.0169 11.89 35.2219L13.5781 36.9099C13.7354 37.0673 13.8426 37.2678 13.886 37.4861C13.9294 37.7044 13.9071 37.9306 13.8219 38.1362C13.7368 38.3418 13.5926 38.5176 13.4076 38.6412C13.2225 38.7649 13.005 38.8309 12.7824 38.8309Z" fill="#02A9F4"/>
<path d="M56.4979 54.1756C56.2363 54.1756 55.9829 54.0845 55.7812 53.9179C55.5795 53.7513 55.4422 53.5197 55.3927 53.2629C55.3272 52.9222 55.1665 52.607 54.9293 52.3539C54.6921 52.1007 54.388 51.9199 54.0523 51.8324C53.7166 51.745 53.363 51.7543 53.0324 51.8595C52.7018 51.9647 52.4077 52.1613 52.1843 52.4267C52.0889 52.5398 51.9723 52.6329 51.841 52.7009C51.7096 52.7689 51.5662 52.8103 51.4188 52.8229C51.2715 52.8354 51.1231 52.8188 50.9822 52.774C50.8413 52.7292 50.7105 52.6571 50.5975 52.5618C50.4844 52.4664 50.3912 52.3498 50.3233 52.2184C50.2553 52.0871 50.2139 51.9437 50.2013 51.7963C50.1888 51.649 50.2054 51.5006 50.2502 51.3597C50.295 51.2188 50.3671 51.088 50.4624 50.975C50.9602 50.3849 51.6149 49.9477 52.3507 49.714C53.0865 49.4804 53.8734 49.4598 54.6205 49.6546C55.3675 49.8494 56.0442 50.2517 56.5722 50.815C57.1001 51.3782 57.4579 52.0794 57.6041 52.8375C57.6355 53.0004 57.6304 53.1682 57.5893 53.329C57.5482 53.4897 57.4721 53.6394 57.3663 53.7672C57.2606 53.8951 57.1279 53.998 56.9778 54.0686C56.8277 54.1392 56.6638 54.1757 56.4979 54.1756Z" fill="#F5F5F5"/>
<path d="M7.71821 25.8891C7.41974 25.8891 7.1335 25.7705 6.92245 25.5595C6.7114 25.3484 6.59283 25.0622 6.59283 24.7637V22.513C6.59283 22.2145 6.7114 21.9282 6.92245 21.7172C7.1335 21.5061 7.41974 21.3876 7.71821 21.3876C8.01668 21.3876 8.30293 21.5061 8.51398 21.7172C8.72503 21.9282 8.84359 22.2145 8.84359 22.513V24.7637C8.84359 25.0622 8.72503 25.3484 8.51398 25.5595C8.30293 25.7705 8.01668 25.8891 7.71821 25.8891ZM7.71821 32.6414C7.41974 32.6414 7.1335 32.5228 6.92245 32.3118C6.7114 32.1007 6.59283 31.8145 6.59283 31.516V29.2652C6.59283 28.9668 6.7114 28.6805 6.92245 28.4695C7.1335 28.2584 7.41974 28.1399 7.71821 28.1399C8.01668 28.1399 8.30293 28.2584 8.51398 28.4695C8.72503 28.6805 8.84359 28.9668 8.84359 29.2652V31.516C8.84359 31.8145 8.72503 32.1007 8.51398 32.3118C8.30293 32.5228 8.01668 32.6414 7.71821 32.6414ZM5.46745 28.1399H3.21669C2.91822 28.1399 2.63197 28.0213 2.42092 27.8102C2.20988 27.5992 2.09131 27.3129 2.09131 27.0145C2.09131 26.716 2.20988 26.4298 2.42092 26.2187C2.63197 26.0077 2.91822 25.8891 3.21669 25.8891H5.46745C5.76592 25.8891 6.05216 26.0077 6.26321 26.2187C6.47426 26.4298 6.59283 26.716 6.59283 27.0145C6.59283 27.3129 6.47426 27.5992 6.26321 27.8102C6.05216 28.0213 5.76592 28.1399 5.46745 28.1399ZM12.2197 28.1399H9.96897C9.6705 28.1399 9.38426 28.0213 9.17321 27.8102C8.96216 27.5992 8.84359 27.3129 8.84359 27.0145C8.84359 26.716 8.96216 26.4298 9.17321 26.2187C9.38426 26.0077 9.6705 25.8891 9.96897 25.8891H12.2197C12.5182 25.8891 12.8044 26.0077 13.0155 26.2187C13.2265 26.4298 13.3451 26.716 13.3451 27.0145C13.3451 27.3129 13.2265 27.5992 13.0155 27.8102C12.8044 28.0213 12.5182 28.1399 12.2197 28.1399Z" fill="#EF314C"/>
<path d="M11.0944 43.8952C10.8718 43.8951 10.6543 43.8291 10.4693 43.7054C10.2843 43.5818 10.14 43.406 10.0549 43.2004C9.96973 42.9948 9.94745 42.7686 9.99085 42.5503C10.0343 42.332 10.1414 42.1315 10.2987 41.9741L11.9868 40.2861C12.1991 40.0811 12.4833 39.9676 12.7784 39.9702C13.0735 39.9728 13.3557 40.0911 13.5644 40.2998C13.773 40.5084 13.8914 40.7907 13.894 41.0858C13.8965 41.3808 13.7831 41.6651 13.5781 41.8774L11.89 43.5654C11.679 43.7765 11.3928 43.8951 11.0944 43.8952ZM16.1586 38.8309C15.936 38.8309 15.7185 38.7649 15.5335 38.6412C15.3485 38.5176 15.2043 38.3418 15.1191 38.1362C15.0339 37.9306 15.0117 37.7044 15.0551 37.4861C15.0985 37.2678 15.2056 37.0673 15.3629 36.9099L17.051 35.2219C17.2633 35.0169 17.5475 34.9034 17.8426 34.906C18.1377 34.9086 18.4199 35.0269 18.6286 35.2356C18.8373 35.4442 18.9556 35.7265 18.9582 36.0215C18.9607 36.3166 18.8473 36.6009 18.6423 36.8131L16.9542 38.5012C16.7432 38.7123 16.457 38.8309 16.1586 38.8309ZM17.8467 43.8952C17.5482 43.8951 17.262 43.7765 17.051 43.5654L15.3629 41.8774C15.158 41.6651 15.0445 41.3808 15.0471 41.0858C15.0496 40.7907 15.168 40.5084 15.3767 40.2998C15.5853 40.0911 15.8676 39.9728 16.1626 39.9702C16.4577 39.9676 16.742 40.0811 16.9542 40.2861L18.6423 41.9741C18.7996 42.1315 18.9068 42.332 18.9502 42.5503C18.9936 42.7686 18.9713 42.9948 18.8862 43.2004C18.801 43.406 18.6568 43.5818 18.4718 43.7054C18.2867 43.8291 18.0692 43.8951 17.8467 43.8952ZM12.7824 38.8309C12.484 38.8309 12.1978 38.7123 11.9868 38.5012L10.2987 36.8131C10.0937 36.6009 9.98031 36.3166 9.98287 36.0215C9.98543 35.7265 10.1038 35.4442 10.3124 35.2356C10.5211 35.0269 10.8034 34.9086 11.0984 34.906C11.3935 34.9034 11.6778 35.0169 11.89 35.2219L13.5781 36.9099C13.7354 37.0673 13.8426 37.2678 13.886 37.4861C13.9294 37.7044 13.9071 37.9306 13.8219 38.1362C13.7368 38.3418 13.5926 38.5176 13.4076 38.6412C13.2225 38.7649 13.005 38.8309 12.7824 38.8309Z" fill="#02A9F4"/>
<path d="M61.8491 51.2372C61.4424 49.8228 60.6793 48.5367 59.6327 47.502C58.5862 46.4674 57.2913 45.719 55.8724 45.3285C54.4535 44.9381 52.9581 44.9188 51.5295 45.2724C50.101 45.626 48.7873 46.3406 47.7143 47.3479C46.457 46.6489 44.9984 46.4011 43.5808 46.6456C43.4893 44.8495 43.2913 43.0604 42.9877 41.2877C42.6282 39.1392 41.5392 37.1802 39.9042 35.7407L45.9058 4.69369C46.0074 4.19009 46.008 3.67133 45.9076 3.1675C45.8071 2.66368 45.6076 2.18481 45.3206 1.7587C44.8889 1.10782 44.2732 0.600256 43.5519 0.300706C42.8306 0.00115488 42.0364 -0.0768075 41.2707 0.0767581C40.5049 0.230324 39.8022 0.60846 39.2522 1.16296C38.7021 1.71745 38.3297 2.42319 38.1823 3.19018L32.2178 34.0121C31.9736 34.0976 31.7339 34.1967 31.5009 34.3103C29.8007 35.2095 28.4888 36.7005 27.8131 38.5013C26.7035 41.0896 21.5593 49.7776 1.94283 52.7508C1.62902 52.7945 1.32783 52.9034 1.05862 53.0705C0.789414 53.2376 0.558142 53.4591 0.379674 53.7209C0.20535 53.9799 0.0873289 54.2725 0.0332433 54.58C-0.0208424 54.8875 -0.00978759 55.2028 0.0656926 55.5058C0.502697 57.09 1.2839 58.5582 2.35359 59.8058C2.42449 59.933 2.52015 60.0455 2.63381 60.1367C4.67803 62.3246 7.20863 64.0005 10.0208 65.0287C10.0512 65.0411 10.0793 65.0557 10.1108 65.0659C11.4422 65.5903 12.8073 66.0258 14.1971 66.369C16.6538 66.9768 19.16 67.3639 21.6854 67.5282C21.7304 67.5372 21.7754 67.5439 21.8216 67.5473C21.8339 67.5473 21.8463 67.5394 21.8576 67.5394C22.5215 67.5777 23.1956 67.6047 23.8832 67.6047C28.2418 67.6047 33.0495 66.7258 36.9095 63.8493C37.8237 64.4729 38.8802 64.8563 39.9816 64.9643C41.0829 65.0723 42.1937 64.9013 43.2117 64.4672C44.0668 65.423 45.1064 66.1961 46.2679 66.7399C47.4295 67.2837 48.689 67.587 49.9708 67.6316C51.2526 67.6761 52.5301 67.4611 53.7266 66.9993C54.9232 66.5375 56.014 65.8385 56.9334 64.9443C57.8559 65.3795 58.8593 65.617 59.879 65.6415C60.8988 65.666 61.9124 65.4769 62.8547 65.0864C63.797 64.6959 64.6473 64.1127 65.3509 63.3742C66.0545 62.6356 66.5958 61.7581 66.9401 60.7979C67.2845 59.8378 67.4242 58.8162 67.3503 57.7989C67.2764 56.7815 66.9906 55.7908 66.5112 54.8905C66.0317 53.9902 65.3693 53.2 64.5664 52.5709C63.7635 51.9417 62.8379 51.4874 61.8491 51.2372ZM40.3926 3.6167C40.4777 3.18051 40.7314 2.7955 41.0987 2.5452C41.4659 2.2949 41.917 2.19952 42.3541 2.27975C42.802 2.3664 43.1959 2.62861 43.4491 3.00787C43.6967 3.37474 43.7856 3.82602 43.6978 4.25929L37.8627 34.4195C37.6928 34.3396 37.5251 34.2484 37.3529 34.1809C36.4695 33.8419 35.5339 33.6591 34.5879 33.6407L40.3926 3.6167ZM32.4992 36.3304C33.133 36.0377 33.8214 35.8819 34.5195 35.8731C35.2175 35.8644 35.9096 36.003 36.5505 36.2798C37.5404 36.6869 38.4213 37.3198 39.123 38.1279C39.8246 38.9361 40.3276 39.8972 40.5918 40.9343C39.1288 41.4205 37.5983 41.6793 36.0565 41.7007C34.4431 41.795 32.8397 41.3907 31.4638 40.5427C30.9 40.1875 30.3957 39.7459 29.9693 39.2339C30.4448 37.9986 31.3406 36.9705 32.4992 36.3304ZM14.1656 64.026C20.1796 61.9688 27.0681 58.4261 31.1588 52.4053C31.3212 52.1584 31.38 51.8575 31.3224 51.5677C31.2649 51.2778 31.0956 51.0222 30.8512 50.8561C30.6067 50.69 30.3068 50.6267 30.016 50.6799C29.7253 50.7331 29.4672 50.8985 29.2975 51.1404C24.8747 57.6507 16.7213 61.0663 10.516 62.8016C8.79646 62.1208 7.1879 61.1878 5.74324 60.0332C10.1356 59.4037 14.402 58.0891 18.3869 56.1371C18.5186 56.0674 18.6351 55.9723 18.7297 55.8573C18.8244 55.7423 18.8952 55.6096 18.9382 55.4669C18.9812 55.3243 18.9954 55.1746 18.98 55.0264C18.9647 54.8782 18.9201 54.7346 18.8488 54.6038C18.7775 54.473 18.681 54.3576 18.5648 54.2644C18.4486 54.1712 18.315 54.102 18.1719 54.0608C18.0287 54.0196 17.8788 54.0073 17.7309 54.0245C17.5829 54.0416 17.4398 54.088 17.3099 54.1609C13.1966 56.4049 7.33228 57.5461 3.82334 58.0626C3.10055 57.1516 2.57201 56.1022 2.27031 54.9791C19.5663 52.3558 26.3535 45.2828 28.8473 41.3316C29.2727 41.7412 29.7364 42.1092 30.2338 42.43C31.8851 43.4626 33.8009 43.9931 35.7481 43.9571C35.8753 43.9571 36.0013 43.9571 36.1296 43.9503C37.7785 43.9226 39.4154 43.6658 40.9935 43.1873C41.1882 44.5873 41.3064 45.9974 41.348 47.4098C40.4463 47.9099 39.6735 48.6132 39.0908 49.4639C38.5082 50.3146 38.1316 51.2893 37.991 52.3108C36.8131 52.8307 35.8109 53.6805 35.1052 54.7574C34.3995 55.8343 34.0205 57.0924 34.0139 58.38C34.0154 59.7784 34.4624 61.1399 35.2901 62.267C32.5462 64.0875 29.3603 65.1306 26.071 65.2853C27.9805 64.024 29.7021 62.499 31.1847 60.7556C31.376 60.5263 31.4684 60.2303 31.4415 59.9328C31.4146 59.6353 31.2706 59.3607 31.0412 59.1694C30.8119 58.9781 30.5159 58.8857 30.2184 58.9127C29.9209 58.9396 29.6463 59.0835 29.455 59.3129C27.2691 61.8203 24.5902 63.8507 21.5852 65.2774C19.2775 65.1075 16.9884 64.7412 14.7429 64.1824C14.5415 64.1352 14.358 64.0778 14.1656 64.026ZM60.0474 63.3947C59.0816 63.3934 58.1365 63.1154 57.3239 62.5934C57.0948 62.4469 56.8205 62.3883 56.5515 62.4284C56.2826 62.4686 56.0373 62.6047 55.8609 62.8117C55.1498 63.654 54.2564 64.3233 53.2483 64.7691C52.2402 65.2149 51.1439 65.4255 50.0424 65.3848C48.9408 65.3441 47.863 65.0533 46.8905 64.5344C45.918 64.0155 45.0764 63.2821 44.4293 62.3897C44.2624 62.1599 44.0149 62.0017 43.7362 61.9468C43.4576 61.8919 43.1685 61.9444 42.9269 62.0937C42.3977 62.421 41.8046 62.6314 41.1874 62.7108C40.5702 62.7903 39.9432 62.7369 39.3483 62.5543C38.7534 62.3717 38.2044 62.0642 37.7381 61.6522C37.2717 61.2402 36.8988 60.7332 36.6443 60.1654C36.3898 59.5976 36.2595 58.9819 36.2623 58.3596C36.2651 57.7374 36.4007 57.1229 36.6603 56.5573C36.9198 55.9917 37.2972 55.4882 37.7672 55.0803C38.2372 54.6725 38.7889 54.3697 39.3854 54.1924C39.6153 54.1236 39.8171 53.983 39.9615 53.7913C40.1059 53.5995 40.1851 53.3667 40.1878 53.1267C40.2054 51.9779 40.6729 50.8818 41.4897 50.0739C42.3065 49.2659 43.4076 48.8104 44.5565 48.8052C45.5123 48.8009 46.4426 49.1131 47.2023 49.6932C47.4321 49.8679 47.7204 49.9475 48.0073 49.9157C48.2943 49.8839 48.558 49.743 48.744 49.5221C49.5156 48.6072 50.5304 47.9294 51.6711 47.5673C52.8118 47.2051 54.0317 47.1732 55.1898 47.4755C56.3478 47.7777 57.3966 48.4016 58.2148 49.275C59.033 50.1484 59.5872 51.2357 59.8133 52.411C59.8579 52.6412 59.9733 52.8517 60.1434 53.0131C60.3135 53.1745 60.5298 53.2787 60.762 53.3113C62.0337 53.4883 63.1906 54.1417 63.9988 55.1394C64.807 56.1371 65.2061 57.4045 65.1153 58.6852C65.0245 59.966 64.4506 61.1644 63.5097 62.0381C62.5689 62.9118 61.3313 63.3955 60.0474 63.3913V63.3947Z" fill="black"/>
<path d="M62.2992 42.7698C63.3439 42.7698 64.3457 42.3548 65.0844 41.6161C65.8231 40.8775 66.238 39.8756 66.238 38.831C66.238 37.7863 65.8231 36.7845 65.0844 36.0458C64.3457 35.3071 63.3439 34.8921 62.2992 34.8921C61.2546 34.8921 60.2527 35.3071 59.514 36.0458C58.7754 36.7845 58.3604 37.7863 58.3604 38.831C58.3604 39.8756 58.7754 40.8775 59.514 41.6161C60.2527 42.3548 61.2546 42.7698 62.2992 42.7698ZM62.2992 37.1429C62.7469 37.1429 63.1763 37.3207 63.4929 37.6373C63.8094 37.9539 63.9873 38.3833 63.9873 38.831C63.9873 39.2787 63.8094 39.708 63.4929 40.0246C63.1763 40.3412 62.7469 40.519 62.2992 40.519C61.8515 40.519 61.4221 40.3412 61.1056 40.0246C60.789 39.708 60.6111 39.2787 60.6111 38.831C60.6111 38.3833 60.789 37.9539 61.1056 37.6373C61.4221 37.3207 61.8515 37.1429 62.2992 37.1429ZM54.9842 34.8921C55.8796 34.8921 56.7384 34.5364 57.3715 33.9033C58.0047 33.2701 58.3604 32.4114 58.3604 31.516C58.3604 30.6206 58.0047 29.7618 57.3715 29.1287C56.7384 28.4955 55.8796 28.1398 54.9842 28.1398C54.0888 28.1398 53.2301 28.4955 52.5969 29.1287C51.9638 29.7618 51.6081 30.6206 51.6081 31.516C51.6081 32.4114 51.9638 33.2701 52.5969 33.9033C53.2301 34.5364 54.0888 34.8921 54.9842 34.8921ZM54.9842 30.3906C55.2827 30.3906 55.569 30.5092 55.78 30.7202C55.9911 30.9313 56.1096 31.2175 56.1096 31.516C56.1096 31.8145 55.9911 32.1007 55.78 32.3117C55.569 32.5228 55.2827 32.6414 54.9842 32.6414C54.6858 32.6414 54.3995 32.5228 54.1885 32.3117C53.9774 32.1007 53.8589 31.8145 53.8589 31.516C53.8589 31.2175 53.9774 30.9313 54.1885 30.7202C54.3995 30.5092 54.6858 30.3906 54.9842 30.3906ZM13.1493 11.3402L32.2808 14.7163C32.5716 14.7611 32.8683 14.6903 33.1075 14.519C33.3467 14.3477 33.5093 14.0896 33.5605 13.7999C33.6117 13.5102 33.5474 13.212 33.3814 12.9691C33.2154 12.7262 32.9609 12.558 32.6724 12.5004L13.541 9.12428C13.2502 9.07947 12.9535 9.15028 12.7143 9.32156C12.4751 9.49285 12.3125 9.75097 12.2613 10.0407C12.2101 10.3304 12.2744 10.6286 12.4404 10.8715C12.6063 11.1144 12.8608 11.2826 13.1493 11.3402ZM32.4586 19.4305C32.5103 19.1369 32.4434 18.8347 32.2725 18.5903C32.1015 18.346 31.8407 18.1795 31.5471 18.1273L19.3491 15.9734C19.2035 15.9476 19.0543 15.9508 18.9099 15.9828C18.7656 16.0147 18.629 16.0748 18.5079 16.1596C18.3868 16.2443 18.2835 16.3521 18.2041 16.4767C18.1246 16.6014 18.0705 16.7405 18.0447 16.886C18.019 17.0316 18.0222 17.1808 18.0542 17.3251C18.0861 17.4695 18.1462 17.6061 18.231 17.7272C18.3157 17.8483 18.4235 17.9516 18.5481 18.031C18.6728 18.1105 18.8119 18.1646 18.9574 18.1904L31.1554 20.3432C31.4493 20.3949 31.7516 20.3278 31.996 20.1566C32.2403 19.9855 32.4067 19.7243 32.4586 19.4305ZM30.4217 23.6552L15.6724 21.0499C15.5269 21.0243 15.3777 21.0276 15.2334 21.0596C15.0891 21.0916 14.9525 21.1517 14.8314 21.2365C14.7104 21.3214 14.6072 21.4292 14.5278 21.5538C14.4484 21.6785 14.3943 21.8176 14.3687 21.9632C14.343 22.1088 14.3463 22.258 14.3783 22.4023C14.4104 22.5466 14.4705 22.6831 14.5553 22.8042C14.6401 22.9253 14.7479 23.0284 14.8726 23.1078C14.9973 23.1872 15.1364 23.2413 15.2819 23.2669L30.03 25.8699C30.1782 25.9023 30.3313 25.9044 30.4803 25.8761C30.6292 25.8478 30.771 25.7897 30.8969 25.7052C31.0228 25.6208 31.1304 25.5118 31.2132 25.3847C31.2959 25.2577 31.3522 25.1152 31.3785 24.9659C31.4048 24.8166 31.4007 24.6635 31.3664 24.5158C31.3321 24.3681 31.2683 24.2289 31.1788 24.1064C31.0893 23.984 30.976 23.881 30.8457 23.8034C30.7154 23.7259 30.5719 23.6755 30.4217 23.6552Z" fill="black"/>
</svg>
