<svg width="68" height="68" viewBox="0 0 68 68" fill="none" xmlns="http://www.w3.org/2000/svg">
<path d="M24.3332 64.8318H22.2279C21.6695 64.8318 21.134 64.61 20.7392 64.2151C20.3444 63.8203 20.1226 63.2848 20.1226 62.7265V56.4105H26.4385V62.7265C26.4385 63.2848 26.2167 63.8203 25.8219 64.2151C25.427 64.61 24.8915 64.8318 24.3332 64.8318ZM60.1235 64.8318H58.0182C57.4598 64.8318 56.9243 64.61 56.5295 64.2151C56.1347 63.8203 55.9129 63.2848 55.9129 62.7265V56.4105H62.2288V62.7265C62.2288 63.2848 62.007 63.8203 61.6122 64.2151C61.2174 64.61 60.6819 64.8318 60.1235 64.8318Z" fill="#78909C"/>
<path d="M53.8266 31.9067C51.3149 31.5952 46.7317 31.1467 41.1758 31.1467C35.6198 31.1467 31.0387 31.5952 28.5249 31.9067C27.3712 32.0478 26.1396 33.092 25.7712 34.1952L21.1753 47.9892H61.1762L56.5782 34.1952C56.2119 33.0941 54.9803 32.0499 53.8266 31.9067Z" fill="white"/>
<path d="M25.7715 47.9893H61.1765L56.5785 34.1953L56.5722 34.1826C54.3179 33.7379 52.0256 33.5143 49.7278 33.5153C37.237 33.5153 26.9715 39.8649 25.7715 47.9893Z" fill="#ECEFF1"/>
<path d="M18.0176 58.5158V50.0946C18.0176 43.2523 28.0178 43.7786 41.176 43.7786C54.3342 43.7786 64.3345 43.2523 64.3345 50.0946V58.5158H18.0176Z" fill="#F27670"/>
<path d="M54.8606 49.0419C55.9773 49.0419 57.0483 48.5983 57.8379 47.8087C58.6276 47.019 59.0712 45.948 59.0712 44.8313V44.665C54.8858 43.6165 48.5257 43.7786 41.176 43.7786C28.74 43.7786 19.1376 43.3176 18.1187 49.0419H54.8606Z" fill="#FF8A80"/>
<path d="M30.6494 58.5159V54.3052C30.6494 53.1885 31.093 52.1175 31.8827 51.3279C32.6723 50.5382 33.7433 50.0946 34.86 50.0946H47.4919C48.6086 50.0946 49.6796 50.5382 50.4693 51.3279C51.2589 52.1175 51.7025 53.1885 51.7025 54.3052V58.5159H30.6494Z" fill="#CFD8DC"/>
<path d="M64.3345 50.0946V54.3052H55.9132V52.1999C55.9132 51.042 56.8606 50.0946 58.0185 50.0946H64.3345ZM26.4388 52.1999V54.3052H18.0176V50.0946H24.3335C25.4914 50.0946 26.4388 51.042 26.4388 52.1999Z" fill="white"/>
<path d="M19.0701 18.5149H8.54355C7.14765 18.5149 5.80891 19.0694 4.82185 20.0565C3.8348 21.0435 3.28027 22.3823 3.28027 23.7782V26.9361C3.28027 28.0529 3.72389 29.1239 4.51354 29.9135C5.30318 30.7031 6.37417 31.1468 7.4909 31.1468V41.6733L3.28027 65.8844H7.55406L13.8068 41.6733L15.9121 65.8844H20.1228V31.1468C21.2395 31.1468 22.3105 30.7031 23.1001 29.9135C23.8898 29.1239 24.3334 28.0529 24.3334 26.9361V23.7782C24.3334 20.8834 21.9649 18.5149 19.0701 18.5149Z" fill="#65C7EA"/>
<path d="M13.8067 14.3043C16.7136 14.3043 19.07 11.9478 19.07 9.04099C19.07 6.13416 16.7136 3.77771 13.8067 3.77771C10.8999 3.77771 8.54346 6.13416 8.54346 9.04099C8.54346 11.9478 10.8999 14.3043 13.8067 14.3043Z" fill="#FFE0B2"/>
<path d="M24.3331 65.8844H20.1225C19.8433 65.8844 19.5756 65.7735 19.3781 65.5761C19.1807 65.3787 19.0698 65.1109 19.0698 64.8317C19.0698 64.5525 19.1807 64.2848 19.3781 64.0874C19.5756 63.89 19.8433 63.7791 20.1225 63.7791H24.3331C24.6123 63.7791 24.88 63.6682 25.0774 63.4708C25.2749 63.2733 25.3858 63.0056 25.3858 62.7264V58.5158C25.3858 58.2366 25.4967 57.9689 25.6941 57.7714C25.8915 57.574 26.1592 57.4631 26.4384 57.4631C26.7176 57.4631 26.9853 57.574 27.1828 57.7714C27.3802 57.9689 27.4911 58.2366 27.4911 58.5158V62.7264C27.4911 64.4675 26.0742 65.8844 24.3331 65.8844ZM60.1234 65.8844H58.0181C56.277 65.8844 54.8601 64.4675 54.8601 62.7264V58.5158C54.8601 58.2366 54.971 57.9689 55.1685 57.7714C55.3659 57.574 55.6336 57.4631 55.9128 57.4631C56.192 57.4631 56.4597 57.574 56.6571 57.7714C56.8545 57.9689 56.9655 58.2366 56.9655 58.5158V62.7264C56.9655 63.0056 57.0764 63.2733 57.2738 63.4708C57.4712 63.6682 57.7389 63.7791 58.0181 63.7791H60.1234C60.4026 63.7791 60.6703 63.6682 60.8678 63.4708C61.0652 63.2733 61.1761 63.0056 61.1761 62.7264V58.5158C61.1761 58.2366 61.287 57.9689 61.4844 57.7714C61.6818 57.574 61.9496 57.4631 62.2287 57.4631C62.5079 57.4631 62.7757 57.574 62.9731 57.7714C63.1705 57.9689 63.2814 58.2366 63.2814 58.5158V62.7264C63.2814 64.4675 61.8645 65.8844 60.1234 65.8844Z" fill="#455A64"/>
<path d="M64.3344 59.5685H24.3335C24.0543 59.5685 23.7865 59.4575 23.5891 59.2601C23.3917 59.0627 23.2808 58.795 23.2808 58.5158C23.2808 58.2366 23.3917 57.9689 23.5891 57.7715C23.7865 57.574 24.0543 57.4631 24.3335 57.4631H64.3344C64.6136 57.4631 64.8813 57.574 65.0787 57.7715C65.2761 57.9689 65.3871 58.2366 65.3871 58.5158C65.3871 58.795 65.2761 59.0627 65.0787 59.2601C64.8813 59.4575 64.6136 59.5685 64.3344 59.5685ZM64.3344 53.6483C64.0552 53.6483 63.7875 53.5374 63.5901 53.34C63.3926 53.1426 63.2817 52.8748 63.2817 52.5957V50.0945C63.2817 46.3829 60.2101 44.8313 41.176 44.8313C32.7758 44.8313 27.7946 45.0944 24.5208 45.7092C24.3851 45.7349 24.2456 45.7336 24.1103 45.7054C23.9751 45.6772 23.8467 45.6227 23.7325 45.5449C23.6184 45.4671 23.5206 45.3675 23.4449 45.2519C23.3692 45.1364 23.317 45.007 23.2913 44.8713C23.2656 44.7355 23.2669 44.596 23.2951 44.4608C23.3233 44.3255 23.3778 44.1971 23.4556 44.083C23.5335 43.9688 23.633 43.8711 23.7486 43.7954C23.8641 43.7197 23.9935 43.6675 24.1292 43.6418C27.5398 42.9996 32.6368 42.726 41.176 42.726C59.0437 42.726 65.3871 43.8397 65.3871 50.0945V52.5957C65.3871 52.8748 65.2761 53.1426 65.0787 53.34C64.8813 53.5374 64.6136 53.6483 64.3344 53.6483Z" fill="#455A64"/>
<path d="M64.334 55.3579H55.9128C55.6336 55.3579 55.3659 55.247 55.1685 55.0496C54.971 54.8521 54.8601 54.5844 54.8601 54.3052V52.1999C54.8601 50.4588 56.277 49.0419 58.0181 49.0419H64.334C64.6132 49.0419 64.881 49.1528 65.0784 49.3502C65.2758 49.5477 65.3867 49.8154 65.3867 50.0946V54.3052C65.3867 54.5844 65.2758 54.8521 65.0784 55.0496C64.881 55.247 64.6132 55.3579 64.334 55.3579ZM56.9655 53.2526H63.2814V51.1472H58.0181C57.7389 51.1472 57.4712 51.2581 57.2738 51.4556C57.0764 51.653 56.9655 51.9207 56.9655 52.1999V53.2526ZM26.4384 55.3579H20.1225C19.8433 55.3579 19.5756 55.247 19.3781 55.0496C19.1807 54.8521 19.0698 54.5844 19.0698 54.3052C19.0698 54.026 19.1807 53.7583 19.3781 53.5609C19.5756 53.3635 19.8433 53.2526 20.1225 53.2526H25.3858V52.1999C25.3858 51.9207 25.2749 51.653 25.0774 51.4556C24.88 51.2581 24.6123 51.1472 24.3331 51.1472H23.2804C23.0013 51.1472 22.7335 51.0363 22.5361 50.8389C22.3387 50.6415 22.2278 50.3738 22.2278 50.0946C22.2278 49.8154 22.3387 49.5477 22.5361 49.3502C22.7335 49.1528 23.0013 49.0419 23.2804 49.0419H24.3331C26.0742 49.0419 27.4911 50.4588 27.4911 52.1999V54.3052C27.4911 54.5844 27.3802 54.8521 27.1828 55.0496C26.9853 55.247 26.7176 55.3579 26.4384 55.3579ZM51.7022 55.3579C51.423 55.3579 51.1552 55.247 50.9578 55.0496C50.7604 54.8521 50.6495 54.5844 50.6495 54.3052C50.6495 52.5641 49.2326 51.1472 47.4915 51.1472H34.8597C33.1186 51.1472 31.7017 52.5641 31.7017 54.3052C31.7017 54.5844 31.5908 54.8521 31.3934 55.0496C31.196 55.247 30.9282 55.3579 30.649 55.3579C30.3699 55.3579 30.1021 55.247 29.9047 55.0496C29.7073 54.8521 29.5964 54.5844 29.5964 54.3052C29.5964 51.4041 31.9564 49.0419 34.8597 49.0419H47.4915C50.3948 49.0419 52.7548 51.4041 52.7548 54.3052C52.7548 54.5844 52.6439 54.8521 52.4465 55.0496C52.2491 55.247 51.9813 55.3579 51.7022 55.3579ZM60.2687 46.3177C60.0475 46.3179 59.8318 46.2485 59.6523 46.1193C59.4728 45.99 59.3386 45.8075 59.2687 45.5976L55.5865 34.5321C55.3338 33.7889 54.4475 33.0458 53.6938 32.9489C51.4769 32.6689 46.8957 32.1994 41.1756 32.1994C35.4555 32.1994 30.8743 32.6689 28.6553 32.9489C27.9037 33.0458 27.0174 33.7889 26.7626 34.5384L24.9773 39.8986C24.9352 40.0314 24.867 40.1546 24.7769 40.2609C24.6867 40.3673 24.5763 40.4546 24.4521 40.5179C24.3279 40.5813 24.1924 40.6193 24.0534 40.6298C23.9144 40.6403 23.7747 40.6231 23.6424 40.5792C23.5101 40.5353 23.3878 40.4655 23.2827 40.374C23.1775 40.2824 23.0916 40.1709 23.03 40.0459C22.9683 39.9209 22.9321 39.7848 22.9234 39.6457C22.9147 39.5066 22.9337 39.3671 22.9794 39.2354L24.7668 33.8689C25.2847 32.3489 26.8405 31.0605 28.3921 30.8605C30.6617 30.5741 35.3418 30.0941 41.1756 30.0941C47.0094 30.0941 51.6895 30.5741 53.9591 30.8605C55.5107 31.0584 57.0686 32.3489 57.5844 33.8605L61.2687 44.9324C61.3214 45.0907 61.3358 45.2593 61.3105 45.4243C61.2853 45.5892 61.2212 45.7458 61.1235 45.8811C61.0258 46.0164 60.8974 46.1266 60.7487 46.2025C60.6001 46.2784 60.4356 46.3179 60.2687 46.3177Z" fill="#455A64"/>
<path d="M3.2823 65.8844C3.12802 65.8847 2.97556 65.8511 2.83571 65.786C2.69586 65.7208 2.57204 65.6257 2.47302 65.5074C2.37399 65.3891 2.30218 65.2505 2.26267 65.1013C2.22316 64.9522 2.21692 64.7962 2.24438 64.6444L6.45501 41.4859L6.44027 32.0941C5.25159 31.8508 4.18331 31.2047 3.4158 30.265C2.64829 29.3253 2.22858 28.1495 2.22754 26.9361V23.7782C2.22754 20.296 5.06129 17.4622 8.54348 17.4622H19.07C22.5522 17.4622 25.386 20.296 25.386 23.7782V26.9361C25.386 27.8625 25.1418 28.7762 24.6786 29.572C24.3042 30.2144 23.7988 30.7708 23.1952 31.205C22.5917 31.6391 21.9034 31.9414 21.1754 32.092V64.8318C21.1754 65.1109 21.0644 65.3787 20.867 65.5761C20.6696 65.7735 20.4019 65.8844 20.1227 65.8844C19.8435 65.8844 19.5758 65.7735 19.3784 65.5761C19.1809 65.3787 19.07 65.1109 19.07 64.8318V31.1468C19.07 30.8676 19.1809 30.5998 19.3784 30.4024C19.5758 30.205 19.8435 30.0941 20.1227 30.0941C20.5378 30.0955 20.9491 30.0148 21.3328 29.8565C21.7166 29.6983 22.0653 29.4658 22.3588 29.1723C22.6523 28.8787 22.8849 28.53 23.0431 28.1463C23.2013 27.7625 23.2821 27.3512 23.2807 26.9361V23.7782C23.2807 21.456 21.3922 19.5675 19.07 19.5675H8.54348C6.22132 19.5675 4.33285 21.456 4.33285 23.7782V26.9361C4.33285 28.6772 5.74973 30.0941 7.49082 30.0941C7.77 30.0941 8.03775 30.205 8.23516 30.4024C8.43257 30.5998 8.54348 30.8676 8.54348 31.1468V41.6733L4.31601 65.0191C4.27217 65.2615 4.14471 65.4808 3.95583 65.639C3.76696 65.7971 3.52862 65.8839 3.2823 65.8844ZM13.8068 15.3569C10.3246 15.3569 7.49082 12.5232 7.49082 9.04097C7.49082 5.55879 10.3246 2.72504 13.8068 2.72504C17.2889 2.72504 20.1227 5.55879 20.1227 9.04097C20.1227 12.5232 17.2889 15.3569 13.8068 15.3569ZM13.8068 4.83035C11.4846 4.83035 9.59613 6.71881 9.59613 9.04097C9.59613 11.3631 11.4846 13.2516 13.8068 13.2516C16.1289 13.2516 18.0174 11.3631 18.0174 9.04097C18.0174 6.71881 16.1289 4.83035 13.8068 4.83035Z" fill="#455A64"/>
<path d="M20.1225 29.0414C19.8433 29.0414 19.5756 28.9305 19.3782 28.7331C19.1808 28.5357 19.0699 28.268 19.0699 27.9888V27.3172C19.0712 27.1637 19.0382 27.0119 18.9734 26.8727C18.9085 26.7336 18.8135 26.6107 18.6951 26.513C18.5797 26.4138 18.4438 26.3415 18.2971 26.3011C18.1504 26.2607 17.9966 26.2532 17.8467 26.2793L10.1139 27.5656C9.66139 27.6416 9.19778 27.6179 8.75539 27.4962C8.31301 27.3745 7.9025 27.1578 7.5525 26.8611C7.20251 26.5645 6.92146 26.195 6.72897 25.7785C6.53648 25.362 6.43717 24.9086 6.43799 24.4498C6.43799 24.1706 6.5489 23.9028 6.74631 23.7054C6.94372 23.508 7.21147 23.3971 7.49065 23.3971C7.76983 23.3971 8.03758 23.508 8.23499 23.7054C8.4324 23.9028 8.54331 24.1706 8.54331 24.4498C8.54331 24.7634 8.67594 25.0498 8.91595 25.2519C9.15595 25.454 9.45912 25.5403 9.7686 25.4877L17.4993 24.2013C17.9517 24.1257 18.4152 24.1497 18.8574 24.2715C19.2997 24.3933 19.71 24.6101 20.0599 24.9067C20.4098 25.2033 20.6909 25.5726 20.8835 25.9889C21.0761 26.4052 21.1756 26.8585 21.1752 27.3172V27.9888C21.1752 28.268 21.0643 28.5357 20.8669 28.7331C20.6695 28.9305 20.4017 29.0414 20.1225 29.0414ZM7.49065 65.8844C7.32997 65.8841 7.17148 65.8471 7.02733 65.7761C6.88318 65.7051 6.75721 65.602 6.65905 65.4748C6.56089 65.3476 6.49316 65.1996 6.46105 65.0421C6.42893 64.8847 6.43329 64.722 6.47378 64.5665L12.7897 40.3554C12.8534 40.1166 12.9991 39.9078 13.2013 39.7656C13.4035 39.6234 13.6493 39.5569 13.8956 39.5778C14.1418 39.5986 14.373 39.7055 14.5484 39.8796C14.7238 40.0537 14.8324 40.284 14.855 40.5301L16.9603 64.7412C16.9787 65.0161 16.8886 65.2872 16.7094 65.4964C16.5301 65.7055 16.2761 65.8361 16.0016 65.8601C15.7272 65.8841 15.4543 65.7995 15.2415 65.6246C15.0287 65.4496 14.893 65.1983 14.8635 64.9244L13.2866 46.7871L8.50752 65.097C8.44953 65.3226 8.31811 65.5224 8.13399 65.6649C7.94987 65.8075 7.72352 65.8847 7.49065 65.8844ZM20.1225 32.1994H11.7013C11.4221 32.1994 11.1543 32.0885 10.9569 31.8911C10.7595 31.6937 10.6486 31.4259 10.6486 31.1467C10.6486 30.8676 10.7595 30.5998 10.9569 30.4024C11.1543 30.205 11.4221 30.0941 11.7013 30.0941H20.1225C20.4017 30.0941 20.6695 30.205 20.8669 30.4024C21.0643 30.5998 21.1752 30.8676 21.1752 31.1467C21.1752 31.4259 21.0643 31.6937 20.8669 31.8911C20.6695 32.0885 20.4017 32.1994 20.1225 32.1994Z" fill="#455A64"/>
</svg>
