<svg width="64" height="60" viewBox="0 0 64 60" fill="none" xmlns="http://www.w3.org/2000/svg">
<path d="M42.9848 17.8809L43.0175 58.9113C43.0175 59.4344 43.4415 59.8584 43.9646 59.8584H49.8962C50.0207 59.8585 50.1441 59.8341 50.2592 59.7865C50.3743 59.7389 50.4788 59.6691 50.5669 59.581C50.655 59.4929 50.7248 59.3883 50.7724 59.2733C50.82 59.1582 50.8444 59.0348 50.8443 58.9103L50.8126 17.9037C52.4484 17.1478 53.8331 15.9385 54.8025 14.4194C55.7718 12.9002 56.2851 11.1349 56.2815 9.33288C56.283 7.51778 55.7586 5.74113 54.7717 4.21778C53.7848 2.69444 52.3776 1.48966 50.7205 0.749146L50.7244 8.30846C50.7244 8.87417 50.2627 9.33684 49.697 9.33783L44.0915 9.34278C43.9564 9.34291 43.8227 9.31644 43.6978 9.26488C43.573 9.21332 43.4596 9.13768 43.364 9.04228C43.2684 8.94687 43.1925 8.83358 43.1407 8.70886C43.0889 8.58414 43.0622 8.45044 43.0621 8.31539L43.0581 0.756081C41.3764 1.51091 39.9537 2.74326 38.9666 4.3C37.9795 5.85673 37.4716 7.66921 37.506 9.5122C37.5694 13.174 39.8105 16.4028 42.9848 17.8809Z" fill="#70C1F9"/>
<path d="M0.516846 50.7307V36.16C0.516846 35.5973 0.976547 35.1376 1.53829 35.1376L22.8024 35.1128L24.2192 33.6306C27.5401 30.1571 34.181 27.3226 38.9821 27.3226H42.9926V32.0603L59.1733 32.0474C59.9907 32.0474 60.7308 32.3793 61.2677 32.9163C61.7481 33.3913 62.0517 34.0162 62.1283 34.6874C62.2048 35.3586 62.0498 36.0358 61.6888 36.6068C61.4229 37.0387 61.0511 37.3956 60.6086 37.6435C60.1661 37.8914 59.6677 38.0223 59.1604 38.0236L60.8586 38.0117C61.6888 38.0117 62.4299 38.3436 62.9659 38.8934C63.5286 39.4413 63.8476 40.1953 63.8347 41.0384C63.8347 41.6001 63.6683 42.1232 63.3879 42.57C63.1038 43.0025 62.7173 43.3582 62.2628 43.6055C61.8083 43.8528 61.2997 43.9841 60.7823 43.9878H58.2797C59.1089 43.9878 59.85 44.3197 60.386 44.8695C60.9487 45.4045 61.2806 46.1714 61.2549 47.0145C61.2549 47.5772 61.0884 48.1003 60.808 48.5472C60.5269 48.9824 60.1411 49.3402 59.6858 49.5877C59.2306 49.8352 58.7206 49.9646 58.2024 49.9639H54.4228C55.252 49.9639 56.006 50.2968 56.5429 50.8457C57.1294 51.4332 57.4742 52.2634 57.4108 53.1838C57.283 54.7541 55.8524 55.9281 54.2563 55.941L36.7599 55.9539C33.3508 55.9539 30.0051 55.086 27.0418 53.4127L24.0537 51.7274L1.53829 51.7532C1.26746 51.7524 1.00796 51.6444 0.816538 51.4528C0.625121 51.2612 0.517368 51.0016 0.516846 50.7307Z" fill="#FFCBBA"/>
<path d="M60.8011 48.5472L46.4195 48.56C46.2322 48.5598 46.0524 48.634 45.9198 48.7662C45.7871 48.8985 45.7124 49.0781 45.7122 49.2654C45.7119 49.4528 45.7861 49.6326 45.9184 49.7652C46.0506 49.8979 46.2302 49.9726 46.4176 49.9728L58.2043 49.9609C58.7207 49.9608 59.2287 49.8314 59.6821 49.5844C60.1356 49.3375 60.5199 48.9809 60.8001 48.5472H60.8011ZM63.378 42.571L47.6748 42.5869C47.4875 42.5866 47.3077 42.6608 47.175 42.7931C47.0424 42.9254 46.9677 43.105 46.9674 43.2923C46.9672 43.4797 47.0413 43.6594 47.1736 43.7921C47.3059 43.9248 47.4855 43.9994 47.6728 43.9997L60.7822 43.9858C61.2986 43.9856 61.8068 43.856 62.2602 43.6089C62.7136 43.3617 63.0979 43.0049 63.378 42.571ZM61.6977 36.6019L46.9753 36.6157C46.8826 36.6156 46.7907 36.6338 46.7049 36.6691C46.6192 36.7045 46.5412 36.7564 46.4756 36.8219C46.4099 36.8874 46.3577 36.9652 46.3221 37.0509C46.2865 37.1365 46.2681 37.2284 46.268 37.3211C46.2678 37.4139 46.286 37.5058 46.3214 37.5915C46.3567 37.6773 46.4087 37.7552 46.4742 37.8209C46.5397 37.8866 46.6175 37.9388 46.7031 37.9744C46.7888 38.01 46.8806 38.0284 46.9734 38.0285L59.1564 38.0166C59.6654 38.0164 60.1659 37.8864 60.6105 37.6388C61.0552 37.3913 61.4294 37.0344 61.6977 36.6019Z" fill="#EFB7A8"/>
<path d="M19.3398 34.0844L1.54219 34.0933C0.977467 34.0933 0.521729 34.551 0.521729 35.1148V51.7651C0.521729 52.3298 0.978457 52.7875 1.54219 52.7865L19.313 52.7776C19.8787 52.7776 20.3384 52.3189 20.3384 51.7532L20.3622 35.1078C20.3622 34.5431 19.9045 34.0844 19.3398 34.0844Z" fill="#E9E9FF"/>
<path d="M0.516863 53.5534V33.3245C0.516863 32.7628 0.976564 32.3031 1.53831 32.3031L16.3141 32.2902C17.1573 32.2902 17.8468 32.9798 17.8468 33.8358L17.822 53.0303C17.822 53.8853 17.1325 54.5758 16.2765 54.5758H1.53831C1.40391 54.5765 1.2707 54.5505 1.14641 54.4993C1.02212 54.4482 0.909216 54.3728 0.814222 54.2778C0.719227 54.1827 0.644034 54.0697 0.592992 53.9454C0.541951 53.821 0.516076 53.6878 0.516863 53.5534Z" fill="#7BD681"/>
<path d="M14.175 36.5028C14.8437 36.5028 15.3857 35.9607 15.3857 35.2921C15.3857 34.6235 14.8437 34.0814 14.175 34.0814C13.5064 34.0814 12.9644 34.6235 12.9644 35.2921C12.9644 35.9607 13.5064 36.5028 14.175 36.5028Z" fill="#74C579"/>
<g opacity="0.2">
<path d="M44.7117 59.8604H43.9686C43.7164 59.8604 43.4745 59.7602 43.2961 59.5818C43.1177 59.4035 43.0175 59.1615 43.0175 58.9093V55.947L36.7561 55.9569C33.4371 55.9569 30.1776 55.1247 27.2648 53.5296L21.0728 35.1118H22.8065L24.2233 33.6356C26.4921 31.2579 30.2965 29.1872 34.0217 28.1073L44.7117 59.8604ZM51.6568 55.9371H50.8444V58.9093C50.8444 59.4344 50.4183 59.8604 49.8932 59.8604H48.6449L37.7171 27.394C38.153 27.3445 38.5791 27.3246 38.9853 27.3246H42.0367L42.9878 30.1482L42.9977 30.1681L51.6568 55.9371Z" fill="white"/>
</g>
</svg>
