<svg width="68" height="68" viewBox="0 0 68 68" fill="none" xmlns="http://www.w3.org/2000/svg">
<g clip-path="url(#clip0_185_463)">
<path fill-rule="evenodd" clip-rule="evenodd" d="M34.948 62.6921C35.758 63.3553 36.1612 63.7159 36.5681 63.7313C36.9712 63.7158 37.3782 63.3551 38.1883 62.6921L59.548 40.8203C65.8657 34.0609 65.8657 22.9971 59.548 16.2339C53.8079 10.0911 44.3819 11.4563 38.4013 17.339L37.2774 18.4443C36.6262 19.0842 36.5022 19.0842 35.8355 18.4288L34.7309 17.339C28.762 11.4523 19.3243 10.0911 13.5842 16.2339C7.26654 22.9971 7.26654 34.0609 13.5842 40.8203L16.1461 43.4457L34.948 62.6921Z" fill="#FD8087"/>
<path fill-rule="evenodd" clip-rule="evenodd" d="M41.0332 15.1869C44.1067 19.6466 45.8896 24.9438 45.8896 30.6252C45.8896 31.2456 45.8663 31.8584 45.8237 32.4634C45.4826 37.5086 43.7307 42.201 40.9324 46.207C39.6998 47.9715 38.2657 49.604 36.6535 51.0777C34.9326 52.6523 33.014 54.0406 30.9327 55.2078C30.2146 55.6104 29.4816 55.9855 28.7351 56.3325L34.9481 62.6924C35.7582 63.3555 36.1613 63.7162 36.5683 63.7316C36.9714 63.7161 37.3783 63.3554 38.1885 62.6924L44.7231 55.9989L59.5481 40.8203C64.5402 35.4803 65.5866 27.449 62.6914 20.9806C61.9201 19.2627 60.8736 17.6533 59.5481 16.2339C58.6759 15.3032 57.7187 14.5431 56.7031 13.946C53.3932 12.0031 49.4514 11.7821 45.7306 12.9221C44.0989 13.4224 42.506 14.1903 41.0332 15.1869Z" fill="#FE636E"/>
<path d="M42.8664 38.4521L42.8484 38.4519C42.6693 38.4487 42.4942 38.3982 42.3408 38.3056C42.1874 38.2129 42.0613 38.0814 41.9751 37.9243L36.72 28.3429L32.8073 35.1829C32.7201 35.3352 32.595 35.4624 32.4441 35.5521C32.2932 35.6417 32.1217 35.6907 31.9462 35.6944C31.7707 35.6981 31.5973 35.6563 31.4428 35.5731C31.2883 35.4898 31.1579 35.368 31.0644 35.2195L28.634 31.3555L26.7999 34.4034C26.7095 34.5537 26.5818 34.678 26.4292 34.7643C26.2766 34.8506 26.1043 34.8959 25.9289 34.8959H19.5764C19.015 34.8959 18.5598 34.4405 18.5598 33.8788C18.5598 33.3171 19.015 32.8617 19.5764 32.8617H25.3543L27.7438 28.8907C27.8333 28.7419 27.9595 28.6185 28.1102 28.5323C28.2609 28.4461 28.4312 28.3999 28.6048 28.3981L28.6148 28.398C28.7867 28.398 28.9558 28.4416 29.1063 28.5248C29.2568 28.6079 29.3837 28.7279 29.4752 28.8734L31.8834 32.7021L35.8563 25.757C35.9452 25.6016 36.0736 25.4723 36.2286 25.3825C36.3835 25.2926 36.5594 25.2452 36.7385 25.2452L36.7477 25.2453C36.9284 25.247 37.1054 25.2967 37.2604 25.3895C37.4155 25.4823 37.543 25.6147 37.6299 25.7731L42.9025 35.3866L45.5626 30.919C45.6526 30.7676 45.7805 30.6423 45.9336 30.5553C46.0868 30.4682 46.2599 30.4224 46.436 30.4224H54.9086C55.47 30.4224 55.9252 30.8778 55.9252 31.4395C55.9252 32.0013 55.47 32.4567 54.9086 32.4567H47.0138L43.7397 37.9555C43.6497 38.1068 43.5218 38.2321 43.3687 38.3192C43.2156 38.4062 43.0425 38.452 42.8664 38.4521Z" fill="#F8F2F0"/>
<path fill-rule="evenodd" clip-rule="evenodd" d="M56.703 22.7451C62.7803 22.7451 67.7376 17.7851 67.7376 11.7006C67.7376 5.61996 62.7803 0.659973 56.703 0.659973C50.6218 0.659973 45.6646 5.61996 45.6646 11.7006C45.6646 17.7851 50.6218 22.7451 56.703 22.7451Z" fill="#F8F2F0"/>
<path fill-rule="evenodd" clip-rule="evenodd" d="M52.7458 1.38907C56.6255 3.10319 59.3308 6.98117 59.3308 11.4951C59.3308 11.5648 59.3308 11.6347 59.327 11.7006C59.3037 12.9842 59.0635 14.2136 58.6371 15.3498C57.5365 18.3126 55.1954 20.6743 52.2498 21.8067C53.6102 22.4117 55.1178 22.7451 56.7032 22.7451C58.9085 22.7451 60.9665 22.0975 62.6913 20.9806C65.7299 19.0105 67.7376 15.5902 67.7376 11.7006C67.7376 5.60443 62.7959 0.659973 56.703 0.659973C55.3077 0.659973 53.9745 0.9159 52.7458 1.38907Z" fill="#D6DCEA"/>
<path d="M60.7185 10.6834H57.7197V7.68302C57.7197 7.1213 57.2646 6.66589 56.7031 6.66589C56.1416 6.66589 55.6865 7.1213 55.6865 7.68302V10.6835H52.6877C52.1263 10.6835 51.6711 11.1389 51.6711 11.7006C51.6711 12.2623 52.1263 12.7177 52.6877 12.7177H55.6865V15.7182C55.6865 16.2799 56.1416 16.7353 56.7031 16.7353C57.2646 16.7353 57.7197 16.2799 57.7197 15.7182V12.7176H60.7185C61.2799 12.7176 61.7351 12.2622 61.7351 11.7005C61.7351 11.1388 61.2801 10.6834 60.7185 10.6834Z" fill="#FD8087"/>
<path fill-rule="evenodd" clip-rule="evenodd" d="M9.78203 45.9043L7.51855 53.2493L9.78203 61.0323L20.2081 63.871L28.6651 66.1706C33.599 67.7063 35.7772 66.8298 40.3159 65.3718L56.9472 60.0357C61.7222 58.504 61.0092 51.9346 54.021 54.1799L44.7229 55.9987L43.2035 56.2972C40.9478 56.7354 40.6376 56.9176 38.3626 56.5649L30.9325 55.2076L29.5837 54.9594C26.5373 53.9861 27.7232 49.9064 30.3821 50.3097C32.1805 50.5385 34.5913 50.8642 36.6532 51.0775C36.6958 51.0813 36.7385 51.0853 36.7773 51.0891C40.7578 51.4924 42.3546 48.518 40.9322 46.2067C40.3935 45.3264 39.4129 44.5392 37.9594 44.0777L32.3587 43.0501C28.7271 42.3831 26.1457 43.213 20.5103 44.1398L17.336 44.6634L9.78203 45.9043Z" fill="#FED1A3"/>
<path fill-rule="evenodd" clip-rule="evenodd" d="M0.367676 44.5897V62.4865C0.367676 62.7114 0.604129 62.8938 0.890978 62.8938H9.25512C9.54579 62.8938 9.78224 62.7116 9.78224 62.4865V44.5897C9.78224 44.3648 9.54579 44.1824 9.25512 44.1824H0.890978C0.604129 44.1826 0.367676 44.3648 0.367676 44.5897Z" fill="#99E6FC"/>
<path fill-rule="evenodd" clip-rule="evenodd" d="M0.367676 59.737V62.4865C0.367676 62.7114 0.604129 62.8938 0.890978 62.8938H9.25512C9.54579 62.8938 9.78224 62.7115 9.78224 62.4865V59.737C9.78224 59.9581 9.54579 60.1442 9.25512 60.1442H0.890978C0.604129 60.1442 0.367676 59.9581 0.367676 59.737Z" fill="#62DBFB"/>
<path fill-rule="evenodd" clip-rule="evenodd" d="M9.78223 59.7371V61.0323L20.2083 63.871L28.6653 66.1706C33.5992 67.7063 35.7774 66.8298 40.3161 65.3718L56.9474 60.0357C59.6412 59.1748 60.5868 56.7084 59.6489 55.1223C59.1877 56.0375 58.2847 56.8596 56.9474 57.2862L40.3161 62.6222C35.7774 64.0765 33.5992 64.9568 28.6653 63.4211L20.2083 61.1214L9.78223 58.2789V59.7371ZM30.3823 47.5603C28.2738 47.2423 27.0917 49.7359 28.2079 51.2676C28.6536 50.6045 29.4211 50.1663 30.3823 50.3097C32.1806 50.5385 34.5915 50.8642 36.6534 51.0775L36.7775 51.0891C40.5719 51.473 42.1998 48.7934 41.1145 46.5402C40.8161 47.1141 40.3161 47.6066 39.6262 47.9362C38.8898 48.2891 37.9325 48.4559 36.7775 48.3395L36.6534 48.328C34.5915 48.1148 32.1808 47.789 30.3823 47.5603Z" fill="#FFBC85"/>
</g>
<defs>
<clipPath id="clip0_185_463">
<rect width="67.37" height="67.37" fill="white" transform="translate(0.367676 0.133667)"/>
</clipPath>
</defs>
</svg>
