<svg width="68" height="68" viewBox="0 0 68 68" fill="none" xmlns="http://www.w3.org/2000/svg">
<g clip-path="url(#clip0_185_574)">
<path d="M25.7554 3.86971C21.7833 3.86971 18.5632 7.08979 18.5632 11.0619V19.9744H25.7554V23.3473H49.2966V13.5385C49.2966 6.95794 43.962 1.62347 37.3816 1.62347H29.819C25.6638 1.62334 25.7554 3.86971 25.7554 3.86971Z" fill="#494A47"/>
<path d="M28.8224 3.86972C28.8224 3.86972 28.7308 1.62335 32.8859 1.62335H29.8189C25.6638 1.62335 25.7554 3.86972 25.7554 3.86972C21.7833 3.86972 18.5632 7.0898 18.5632 11.0619V19.9744H21.6301V11.0619C21.6303 7.0898 24.8502 3.86972 28.8224 3.86972Z" fill="#333331"/>
<path d="M15.3394 40.324V50.6876H20.9896V66.9862H46.8702V50.6876H52.5205V40.324H15.3394Z" fill="#68C0E0"/>
<path d="M15.3394 40.324H18.4064V50.6876H15.3394V40.324ZM20.9896 50.6876H24.0567V66.9862H20.9896V50.6876Z" fill="#3282A1"/>
<path d="M39.2494 41.4185C36.1379 43.9017 31.7221 43.9017 28.6106 41.4185V31.7026H39.2494V41.4185Z" fill="#FFB09E"/>
<path d="M23.0951 25.9176H20.5096C18.7688 25.9176 17.3574 24.5064 17.3574 22.7655C17.3574 21.0246 18.7686 19.6133 20.5096 19.6133H23.0951V25.9176ZM44.765 25.9176H47.3505C49.0913 25.9176 50.5027 24.5064 50.5027 22.7655C50.5027 21.0246 49.0915 19.6133 47.3505 19.6133H44.765V25.9176Z" fill="#FFB09E"/>
<path d="M40.5846 14.0718C34.1374 14.6207 26.3091 12.0132 26.3091 12.0132C26.3091 17.0909 21.697 19.3647 21.697 19.3647V24.4115C21.697 31.1448 27.1554 36.6032 33.8888 36.6032C40.6221 36.6032 46.0805 31.1448 46.0805 24.4115V19.6132C43.1952 19.1681 40.5846 14.0718 40.5846 14.0718Z" fill="#FFCEBF"/>
<path d="M24.7641 24.4115V19.3647C24.7641 19.3647 28.8596 17.3437 29.3305 12.8599C27.4979 12.4091 26.3091 12.0132 26.3091 12.0132C26.3091 17.0909 21.697 19.3647 21.697 19.3647V24.4115C21.697 31.1448 27.1554 36.6032 33.8888 36.6032C34.4014 36.6033 34.9136 36.5713 35.4222 36.5074C29.4129 35.7533 24.7641 30.6255 24.7641 24.4115Z" fill="#FFB09E"/>
<path d="M9.13576 40.324L9.77827 25.4305L12.1823 25.6908C12.7817 25.7557 13.3857 25.6189 13.8987 25.3021C14.4117 24.9854 14.8045 24.5067 15.015 23.9417L15.3749 22.9756C15.513 22.6048 15.5683 22.2083 15.5369 21.8138C15.5055 21.4194 15.3882 21.0366 15.1931 20.6924L14.7998 19.9981C14.55 19.5572 14.1817 19.1951 13.7365 18.9529C13.2914 18.7107 12.7873 18.5981 12.2814 18.6279L9.8938 18.7684C9.45456 18.7943 9.02822 18.9266 8.65155 19.154C8.27489 19.3815 7.95921 19.6971 7.73178 20.0738L5.15764 24.3375L1.35939 41.8626C0.632137 45.2181 3.18865 48.3879 6.62188 48.3879H15.3395V40.3239H9.13576V40.324Z" fill="#FFCEBF"/>
<path d="M12.8505 25.6799C13.077 25.6482 13.2986 25.588 13.5099 25.5007L12.8612 25.4304L12.8505 25.6799ZM4.44236 41.8626L8.24074 24.3373L10.8149 20.0737C11.0423 19.697 11.358 19.3813 11.7346 19.1539C12.1113 18.9265 12.5377 18.7941 12.9769 18.7683L13.2616 18.7516C12.9452 18.6505 12.6129 18.6086 12.2814 18.6279L9.8938 18.7684C9.45455 18.7942 9.02819 18.9266 8.65152 19.154C8.27485 19.3815 7.95919 19.6971 7.73178 20.0738L5.15764 24.3375L1.35939 41.8626C0.632137 45.2181 3.18865 48.3879 6.62188 48.3879H9.70498C6.27161 48.3879 3.7151 45.218 4.44236 41.8626Z" fill="#FFB09E"/>
<path d="M58.7242 40.324L58.0817 25.4305L55.6777 25.6908C55.0782 25.7557 54.4743 25.6189 53.9613 25.3021C53.4483 24.9854 53.0555 24.5067 52.845 23.9417L52.4851 22.9756C52.3469 22.6048 52.2916 22.2083 52.323 21.8138C52.3544 21.4194 52.4717 21.0366 52.6668 20.6924L53.0601 19.9981C53.3099 19.5572 53.6783 19.1951 54.1234 18.9529C54.5686 18.7107 55.0727 18.5981 55.5786 18.6279L57.9661 18.7684C58.4054 18.7943 58.8317 18.9266 59.2084 19.154C59.585 19.3815 59.9007 19.6971 60.1282 20.0738L62.7023 24.3375L66.5007 41.8627C67.2279 45.2182 64.6714 48.388 61.2382 48.388H52.5206V40.324H58.7242Z" fill="#FFCEBF"/>
<path d="M56.3509 45.1836C53.8615 45.1836 51.6817 46.4772 50.4234 48.4228C49.1652 46.4772 46.9853 45.1835 44.496 45.1835C40.5938 45.1835 37.4304 48.3468 37.4304 52.2489C37.4303 57.966 49.4179 66.0912 50.4231 66.9999C51.4284 66.0913 63.4162 57.9664 63.4163 52.2493C63.4163 48.3471 60.2531 45.1836 56.3509 45.1836Z" fill="#E15F4F"/>
<path d="M40.4973 52.2489C40.4973 48.8733 42.8653 46.0525 46.0302 45.352C45.5265 45.2398 45.012 45.1832 44.496 45.1833C40.5938 45.1833 37.4304 48.3467 37.4304 52.2488C37.4303 57.9659 49.4179 66.0911 50.4231 66.9998C50.6085 66.8322 51.1682 66.4186 51.9567 65.8204C48.4703 63.1756 40.4973 56.9117 40.4973 52.2489Z" fill="#CA4336"/>
<path d="M49.8816 58.8999C49.6908 58.9001 49.5019 58.8627 49.3257 58.7897C49.1495 58.7167 48.9895 58.6096 48.8548 58.4746L45.7725 55.3923C45.2054 54.8253 45.2054 53.9058 45.7725 53.3387C46.3395 52.7717 47.259 52.7717 47.8261 53.3387L49.8816 55.3941L55.2048 50.071C55.772 49.5039 56.6914 49.5039 57.2584 50.071C57.8256 50.638 57.8256 51.5575 57.2584 52.1246L50.9083 58.4746C50.7736 58.6096 50.6136 58.7167 50.4374 58.7897C50.2612 58.8626 50.0723 58.9001 49.8816 58.8999Z" fill="#4EB7A2"/>
<path d="M28.7783 21.7916C28.5931 21.7916 28.4155 21.8652 28.2845 21.9961C28.1536 22.1271 28.08 22.3047 28.08 22.4899C28.08 22.6751 28.1536 22.8527 28.2845 22.9837C28.4155 23.1146 28.5931 23.1882 28.7783 23.1882C28.9635 23.1882 29.1411 23.1146 29.2721 22.9837C29.403 22.8527 29.4766 22.6751 29.4766 22.4899C29.4766 22.3047 29.403 22.1271 29.2721 21.9961C29.1411 21.8652 28.9635 21.7916 28.7783 21.7916ZM39.0817 21.7916C38.8965 21.7916 38.7189 21.8652 38.5879 21.9961C38.457 22.1271 38.3834 22.3047 38.3834 22.4899C38.3834 22.6751 38.457 22.8527 38.5879 22.9837C38.7189 23.1146 38.8965 23.1882 39.0817 23.1882C39.2669 23.1882 39.4445 23.1146 39.5755 22.9837C39.7064 22.8527 39.78 22.6751 39.78 22.4899C39.78 22.3047 39.7064 22.1271 39.5755 21.9961C39.4445 21.8652 39.2669 21.7916 39.0817 21.7916ZM30.9183 19.3161C30.2592 18.9172 29.5034 18.7063 28.7329 18.7063C27.9624 18.7063 27.2066 18.9172 26.5474 19.3161C26.473 19.3606 26.408 19.4193 26.3563 19.4889C26.3045 19.5586 26.2671 19.6378 26.2461 19.7219C26.2251 19.8061 26.221 19.8936 26.2339 19.9793C26.2469 20.0651 26.2767 20.1475 26.3216 20.2217C26.3665 20.2959 26.4256 20.3605 26.4955 20.4118C26.5655 20.4631 26.6449 20.5 26.7292 20.5205C26.8135 20.541 26.901 20.5446 26.9867 20.5311C27.0724 20.5176 27.1546 20.4873 27.2285 20.4419C27.6823 20.1674 28.2026 20.0222 28.733 20.0222C29.2634 20.0222 29.7837 20.1674 30.2375 20.4419C30.3114 20.4867 30.3935 20.5165 30.4789 20.5295C30.5643 20.5426 30.6514 20.5387 30.7353 20.518C30.8193 20.4974 30.8983 20.4604 30.9679 20.4092C31.0375 20.358 31.0963 20.2935 31.141 20.2196C31.2312 20.0702 31.2585 19.8912 31.2167 19.7218C31.175 19.5523 31.0676 19.4064 30.9183 19.3161ZM37.6226 20.4419C38.0764 20.1673 38.5967 20.0222 39.1271 20.0222C39.6575 20.0222 40.1778 20.1673 40.6316 20.4419C40.7055 20.4867 40.7875 20.5165 40.8729 20.5295C40.9583 20.5426 41.0455 20.5387 41.1294 20.518C41.2133 20.4974 41.2923 20.4604 41.3619 20.4092C41.4315 20.358 41.4904 20.2935 41.535 20.2196C41.6253 20.0703 41.6527 19.8912 41.611 19.7218C41.5693 19.5524 41.462 19.4065 41.3127 19.3161C40.6535 18.9172 39.8977 18.7063 39.1272 18.7063C38.3567 18.7063 37.6009 18.9172 36.9418 19.3161C36.7954 19.4078 36.691 19.5534 36.651 19.7214C36.611 19.8894 36.6387 20.0664 36.728 20.2141C36.8174 20.3619 36.9613 20.4686 37.1286 20.5113C37.296 20.5539 37.4734 20.529 37.6226 20.4419ZM36.1154 30.6272C36.1899 30.5828 36.2549 30.524 36.3066 30.4544C36.3583 30.3847 36.3958 30.3056 36.4168 30.2214C36.4378 30.1372 36.4419 30.0497 36.429 29.964C36.416 29.8782 36.3862 29.7958 36.3413 29.7216C36.2964 29.6474 36.2373 29.5828 36.1673 29.5315C36.0974 29.4802 36.018 29.4433 35.9337 29.4228C35.8494 29.4024 35.7619 29.3988 35.6762 29.4122C35.5905 29.4257 35.5083 29.456 35.4344 29.5014C34.9806 29.776 34.4603 29.9212 33.9299 29.9212C33.3994 29.9212 32.8791 29.776 32.4253 29.5014C32.2761 29.4124 32.0977 29.386 31.9291 29.4281C31.7605 29.4701 31.6154 29.5772 31.5254 29.7259C31.4355 29.8745 31.408 30.0528 31.449 30.2217C31.49 30.3905 31.5962 30.5363 31.7443 30.6272C32.4035 31.026 33.1593 31.2369 33.9299 31.2369C34.7004 31.2369 35.4562 31.026 36.1154 30.6272Z" fill="black"/>
<path d="M67.1437 41.7232L63.3453 24.198C63.33 24.1271 63.303 24.0593 63.2656 23.9973L60.6914 19.7336C60.4089 19.2655 60.0167 18.8732 59.5486 18.5906C59.0806 18.308 58.5507 18.1436 58.0049 18.1115L55.6172 17.971C54.3408 17.8962 53.116 18.5645 52.4875 19.6738L52.0944 20.3679C51.8515 20.7955 51.7054 21.2712 51.6664 21.7615C51.6274 22.2517 51.6964 22.7445 51.8686 23.2052L52.2285 24.1713C52.4896 24.8737 52.9776 25.4689 53.6152 25.8626C54.2528 26.2563 55.0036 26.426 55.7485 26.3447L57.4548 26.16L58.0373 39.666H39.9074V35.7615C43.3583 33.9242 45.8769 30.5596 46.5554 26.5754H47.3505C49.4514 26.5754 51.1605 24.8661 51.1605 22.7653C51.1605 21.6708 50.6961 20.6834 49.9546 19.9879V13.5385C49.9546 6.60571 44.3143 0.965576 37.3815 0.965576H29.819C27.9646 0.965576 26.6177 1.38914 25.8157 2.22455C25.4809 2.57338 25.3014 2.93378 25.2056 3.23089C21.1327 3.51419 17.9054 6.91835 17.9054 11.0619V19.9744C17.9054 19.9787 17.9065 19.9826 17.9066 19.9868C17.1645 20.6825 16.6995 21.6704 16.6995 22.7654C16.6995 24.8663 18.4086 26.5755 20.5096 26.5755H21.2223C21.9063 30.5914 24.4597 33.9778 27.9526 35.8051V39.666H9.8226L10.4052 26.16L12.1115 26.3447C12.8564 26.4258 13.6071 26.256 14.2447 25.8623C14.8823 25.4687 15.3703 24.8736 15.6316 24.1713L15.9914 23.2052C16.1636 22.7445 16.2326 22.2517 16.1935 21.7615C16.1545 21.2712 16.0085 20.7955 15.7656 20.3679L15.3723 19.6736C14.7439 18.5644 13.5165 17.8965 12.2427 17.9708L9.8551 18.1114C9.30928 18.1434 8.77946 18.3079 8.3114 18.5905C7.84334 18.8731 7.45111 19.2654 7.16859 19.7335L4.59445 23.9972C4.55695 24.0591 4.52998 24.127 4.51471 24.1978L0.716335 41.7232C0.327378 43.5179 0.765415 45.367 1.91821 46.7965C3.071 48.226 4.78538 49.0458 6.62187 49.0458H14.6815V50.6877C14.6815 50.7741 14.6985 50.8596 14.7316 50.9394C14.7647 51.0193 14.8131 51.0918 14.8742 51.1529C14.9353 51.214 15.0078 51.2624 15.0877 51.2955C15.1675 51.3286 15.253 51.3456 15.3394 51.3456H20.3318V66.9862C20.3318 67.1607 20.4011 67.328 20.5245 67.4514C20.6479 67.5748 20.8152 67.6441 20.9897 67.6441H46.8703C47.0448 67.6441 47.2121 67.5748 47.3355 67.4514C47.4589 67.328 47.5282 67.1607 47.5282 66.9862V65.6009C48.0257 65.9881 48.5261 66.3715 49.0293 66.7512C49.4954 67.1031 49.8634 67.3808 49.9818 67.4879C50.1071 67.6012 50.265 67.6578 50.423 67.6578C50.5811 67.6578 50.7388 67.6012 50.8642 67.4879C50.9826 67.3808 51.3505 67.1031 51.8165 66.7515C57.0784 62.779 64.074 56.9537 64.0741 52.2493C64.0741 50.9757 63.7624 49.7742 63.2141 48.7141C64.2722 48.3497 65.218 47.6942 65.9419 46.7965C67.0946 45.367 67.5326 43.5179 67.1437 41.7232ZM47.3505 25.2597H46.7099C46.7283 24.9793 46.7386 24.6967 46.7386 24.4115V20.2712H47.3505C48.7258 20.2712 49.8447 21.3901 49.8447 22.7654C49.8447 24.1407 48.7258 25.2597 47.3505 25.2597ZM19.2212 11.0619C19.2212 7.45889 22.1525 4.52763 25.7555 4.52763C25.9403 4.52763 26.1177 4.46632 26.2425 4.32973C26.3655 4.19499 26.428 4.03144 26.4135 3.85012C26.4194 3.71275 26.5608 2.28113 29.819 2.28113H37.3815C43.5888 2.28113 48.6388 7.33112 48.6388 13.5382V19.1798C48.2256 19.0309 47.7897 18.9549 47.3505 18.9552H46.1428C44.0635 18.5961 41.851 15.0979 41.17 13.7714C41.1104 13.6553 41.0177 13.5595 40.9035 13.4962C40.7893 13.4329 40.6589 13.405 40.5288 13.416C39.9376 13.4664 39.334 13.4892 38.7241 13.489C32.9039 13.4889 26.5867 11.4119 26.5169 11.3887C26.4181 11.3558 26.3128 11.3469 26.2097 11.3626C26.1067 11.3784 26.0089 11.4184 25.9244 11.4793C25.8398 11.5403 25.771 11.6204 25.7235 11.7132C25.676 11.806 25.6513 11.9087 25.6513 12.0129C25.6513 16.6059 21.5783 18.6886 21.4062 18.7743C21.3193 18.8173 21.2431 18.879 21.183 18.9551H20.5094C20.0574 18.9551 19.6238 19.0346 19.2211 19.1797V11.0619H19.2212ZM20.5096 25.2597C19.1343 25.2597 18.0153 24.1409 18.0153 22.7654C18.0153 21.39 19.1341 20.2712 20.5096 20.2712H21.0392V24.4115C21.0392 24.6965 21.0494 24.9792 21.0679 25.2597H20.5096ZM22.355 24.4115V19.7519C23.4373 19.1093 26.5234 16.9386 26.9241 12.8936C29.0654 13.531 34.9629 15.096 40.209 14.7595C40.8637 15.9263 42.9489 19.3269 45.4228 20.1296V24.4115C45.4228 30.7713 40.2487 35.9453 33.889 35.9453C27.5291 35.9455 22.355 30.7713 22.355 24.4115ZM33.889 37.2613C35.5479 37.2613 37.1346 36.9452 38.5916 36.3702V41.0943C35.8051 43.1476 32.0551 43.1476 29.2686 41.0943V36.4015C30.7424 36.9712 32.3089 37.2627 33.889 37.2613ZM6.62187 47.73C5.18539 47.73 3.8443 47.0886 2.94244 45.9705C2.04071 44.8523 1.69794 43.4058 2.00229 42.0019L5.77751 24.5838L8.29493 20.4138C8.46715 20.1285 8.70623 19.8894 8.99153 19.7171C9.27683 19.5448 9.59977 19.4446 9.93247 19.4251L12.32 19.2846C13.0958 19.2384 13.8444 19.6463 14.2276 20.3223L14.6209 21.0166C14.7689 21.2772 14.858 21.5671 14.8817 21.8659C14.9055 22.1647 14.8635 22.4651 14.7585 22.7458L14.3986 23.7119C14.2396 24.1401 13.9422 24.5029 13.5535 24.7429C13.1649 24.9829 12.7072 25.0863 12.2532 25.0367L9.84905 24.7764C9.7596 24.7667 9.66912 24.7755 9.58319 24.8022C9.49727 24.8289 9.41773 24.8729 9.34949 24.9315C9.28126 24.9902 9.22578 25.0622 9.18647 25.1431C9.14717 25.224 9.12489 25.3122 9.12101 25.4021L8.47849 40.2956C8.47466 40.3843 8.48881 40.4728 8.52011 40.5559C8.55141 40.639 8.59921 40.7149 8.66062 40.779C8.72202 40.8432 8.79578 40.8942 8.87743 40.9291C8.95909 40.9639 9.04696 40.9819 9.13574 40.9819H14.6815V47.73H6.62187ZM46.2124 66.3283H21.6476V50.6877C21.6476 50.6013 21.6306 50.5157 21.5975 50.4359C21.5645 50.3561 21.516 50.2835 21.4549 50.2225C21.3938 50.1614 21.3213 50.1129 21.2415 50.0798C21.1617 50.0468 21.0761 50.0298 20.9897 50.0298H15.9974V40.9819H27.9528V41.4186C27.9528 41.5174 27.975 41.615 28.0179 41.704C28.0607 41.793 28.1231 41.8712 28.2003 41.9329C29.8212 43.2266 31.8561 43.939 33.93 43.939C36.004 43.939 38.0389 43.2264 39.6599 41.9329C39.7371 41.8712 39.7994 41.793 39.8423 41.704C39.8851 41.6149 39.9074 41.5174 39.9074 41.4186V40.9819H51.8627V45.9722C51.3278 46.356 50.8442 46.8065 50.4233 47.3127C48.963 45.5527 46.8077 44.5254 44.4959 44.5254H44.4958C40.2375 44.5254 36.7726 47.9904 36.7724 52.2488C36.7723 56.1461 41.5733 60.8128 46.2124 64.558V66.3283ZM51.0236 65.7013C50.7829 65.883 50.584 66.0332 50.423 66.1567C50.2618 66.033 50.063 65.8829 49.8222 65.701C46.9201 63.5099 38.0881 56.842 38.0883 52.2489C38.0884 48.7156 40.9629 45.8412 44.4959 45.8412C46.6716 45.8412 48.681 46.9398 49.8709 48.7799C49.9305 48.8721 50.0123 48.948 50.1088 49.0005C50.2053 49.053 50.3134 49.0806 50.4233 49.0806C50.5331 49.0806 50.6412 49.0531 50.7377 49.0006C50.8342 48.9481 50.916 48.8722 50.9757 48.78C52.1658 46.9399 54.1752 45.8414 56.3509 45.8415C59.884 45.8415 62.7583 48.716 62.7583 52.2493C62.7582 56.8425 53.926 63.5102 51.0236 65.7013ZM64.9176 45.9705C64.295 46.745 63.443 47.3023 62.4838 47.5623C61.0712 45.7181 58.8482 44.5257 56.3509 44.5255C55.2568 44.5253 54.1752 44.7589 53.1786 45.2106V40.9817H58.7243C58.8131 40.9816 58.9009 40.9637 58.9826 40.9288C59.0642 40.8939 59.138 40.8429 59.1994 40.7788C59.2608 40.7146 59.3086 40.6388 59.3399 40.5557C59.3712 40.4726 59.3854 40.384 59.3815 40.2953L58.7391 25.4018C58.7352 25.3119 58.7129 25.2238 58.6736 25.1429C58.6343 25.062 58.5788 24.99 58.5106 24.9313C58.4424 24.8727 58.3628 24.8286 58.2769 24.8019C58.191 24.7752 58.1005 24.7664 58.0111 24.776L55.607 25.0363C55.1529 25.0857 54.6954 24.9822 54.3068 24.7423C53.9182 24.5023 53.6207 24.1396 53.4615 23.7115L53.1016 22.7453C52.9967 22.4645 52.9546 22.1642 52.9784 21.8654C53.0022 21.5666 53.0912 21.2767 53.2393 21.016L53.6324 20.322C54.0153 19.6459 54.7619 19.2378 55.5399 19.2842L57.9275 19.4247C58.2602 19.4442 58.5832 19.5444 58.8684 19.7167C59.1537 19.889 59.3928 20.1281 59.565 20.4134L62.0825 24.5834L65.8576 42.0015C66.1619 43.4058 65.8194 44.8523 64.9176 45.9705Z" fill="black"/>
<path d="M56.2316 48.9878C55.9544 48.987 55.6798 49.0413 55.4236 49.1474C55.1675 49.2534 54.935 49.4093 54.7395 49.6058L49.8813 54.4638L48.291 52.8735C47.4685 52.051 46.1299 52.0508 45.3071 52.8735C44.9086 53.2721 44.689 53.802 44.689 54.3656C44.689 54.9291 44.9086 55.4591 45.3071 55.8576L48.3893 58.9399C48.5848 59.1364 48.8173 59.2923 49.0734 59.3984C49.3295 59.5044 49.6041 59.5587 49.8813 59.5579C50.4448 59.5579 50.9748 59.3384 51.3733 58.9399L57.7235 52.5899C58.122 52.1913 58.3415 51.6615 58.3415 51.0978C58.3415 50.5342 58.122 50.0043 57.7236 49.606C57.5282 49.4094 57.2957 49.2535 57.0395 49.1474C56.7834 49.0413 56.5088 48.987 56.2316 48.9878ZM56.7932 51.6593L50.443 58.0093C50.3695 58.0833 50.2819 58.142 50.1855 58.182C50.0891 58.2219 49.9857 58.2424 49.8813 58.2421C49.777 58.2424 49.6736 58.222 49.5772 58.182C49.4808 58.1421 49.3932 58.0834 49.3196 58.0095L46.2374 54.927C46.0873 54.777 46.0047 54.5777 46.0047 54.3656C46.0047 54.1534 46.0873 53.9541 46.2374 53.804C46.3111 53.7302 46.3987 53.6717 46.495 53.6318C46.5914 53.592 46.6947 53.5715 46.799 53.5717C47.0024 53.5717 47.2059 53.6491 47.3607 53.804L49.4162 55.8594C49.4773 55.9205 49.5498 55.969 49.6296 56.002C49.7094 56.0351 49.7949 56.0521 49.8813 56.0521C49.9677 56.0521 50.0532 56.0351 50.1331 56.002C50.2129 55.969 50.2854 55.9205 50.3465 55.8594L55.6697 50.5363C55.8199 50.3863 56.0194 50.3036 56.2316 50.3036C56.4438 50.3036 56.6431 50.3863 56.7932 50.5363C56.8672 50.6098 56.9258 50.6974 56.9658 50.7938C57.0057 50.8902 57.0261 50.9935 57.0258 51.0978C57.026 51.2022 57.0056 51.3055 56.9657 51.4019C56.9257 51.4982 56.8671 51.5857 56.7932 51.6593Z" fill="black"/>
</g>
<defs>
<clipPath id="clip0_185_574">
<rect width="67.37" height="67.37" fill="white" transform="translate(0.245117 0.619751)"/>
</clipPath>
</defs>
</svg>
