<svg width="68" height="68" viewBox="0 0 68 68" fill="none" xmlns="http://www.w3.org/2000/svg">
<path d="M10.8944 15.3569H18.263C18.8213 15.3569 19.3568 15.5787 19.7516 15.9736C20.1465 16.3684 20.3683 16.9039 20.3683 17.4622V33.2521H8.78906V17.4622C8.78906 16.9039 9.01087 16.3684 9.40569 15.9736C9.80052 15.5787 10.336 15.3569 10.8944 15.3569Z" fill="#93C581"/>
<path d="M12.9995 61.6738V65.8845H19.3154C19.8738 65.8845 20.4093 65.6626 20.8041 65.2678C21.199 64.873 21.4208 64.3375 21.4208 63.7791C21.4208 63.2208 21.199 62.6853 20.8041 62.2905C20.4093 61.8956 19.8738 61.6738 19.3154 61.6738H12.9995Z" fill="#B3B3B3"/>
<path d="M29.842 61.6738V65.8845H36.158C36.7163 65.8845 37.2518 65.6626 37.6467 65.2678C38.0415 64.873 38.2633 64.3375 38.2633 63.7791C38.2633 63.2208 38.0415 62.6853 37.6467 62.2905C37.2518 61.8956 36.7163 61.6738 36.158 61.6738H29.842Z" fill="#A0A0A0"/>
<path d="M30.8948 43.7787L20.3683 38.5154V33.2521H8.78906V35.1817C8.78935 37.6372 9.61028 40.0222 11.1214 41.9577C12.6325 43.8931 14.7471 45.2681 17.1293 45.864L25.6316 47.9893L29.8422 61.6739H35.1055L30.8948 43.7787Z" fill="#B3B3B3"/>
<path d="M8.78908 17.4623C8.7888 17.1858 8.84314 16.912 8.949 16.6565C9.05486 16.4011 9.21015 16.1691 9.40594 15.9738L7.73643 14.3043H2.47314V35.3574H8.7954C8.7954 35.2985 8.78908 35.2406 8.78908 35.1817V17.4623ZM17.1293 45.864C15.6244 45.4841 14.217 44.7899 12.9997 43.8271V61.6739H18.263L20.4041 46.683L17.1293 45.864Z" fill="#A0A0A0"/>
<path d="M17.5018 20.6497L23.6662 23.7782H30.8948C31.4532 23.7782 31.9886 24 32.3835 24.3948C32.7783 24.7896 33.0001 25.3251 33.0001 25.8835C33.0001 26.4419 32.7783 26.9774 32.3835 27.3722C31.9886 27.767 31.4532 27.9888 30.8948 27.9888H20.5556L15.2534 24.914C14.7229 24.6012 14.3304 24.0993 14.1546 23.509C13.9789 22.9187 14.033 22.2839 14.306 21.7318C14.4429 21.4492 14.6346 21.1967 14.8701 20.9889C15.1055 20.7811 15.3799 20.6223 15.6773 20.5215C15.9747 20.4208 16.2892 20.3803 16.6025 20.4023C16.9157 20.4243 17.2214 20.5084 17.5018 20.6497Z" fill="#78B761"/>
<path d="M14.0523 13.2517C16.9592 13.2517 19.3156 10.8952 19.3156 7.98838C19.3156 5.08155 16.9592 2.7251 14.0523 2.7251C11.1455 2.7251 8.78906 5.08155 8.78906 7.98838C8.78906 10.8952 11.1455 13.2517 14.0523 13.2517Z" fill="#FADAA5"/>
<path d="M46.6847 55.3578C47.8474 55.3578 48.79 54.4153 48.79 53.2525C48.79 52.0898 47.8474 51.1472 46.6847 51.1472C45.5219 51.1472 44.5793 52.0898 44.5793 53.2525C44.5793 54.4153 45.5219 55.3578 46.6847 55.3578Z" fill="#C18E5C"/>
<path d="M46.6846 63.779C48.4287 63.779 49.8425 61.8939 49.8425 59.5684C49.8425 57.2429 48.4287 55.3578 46.6846 55.3578C44.9405 55.3578 43.5266 57.2429 43.5266 59.5684C43.5266 61.8939 44.9405 63.779 46.6846 63.779Z" fill="#C18E5C"/>
<path d="M60.3692 55.3578C61.532 55.3578 62.4745 54.4153 62.4745 53.2525C62.4745 52.0898 61.532 51.1472 60.3692 51.1472C59.2065 51.1472 58.2639 52.0898 58.2639 53.2525C58.2639 54.4153 59.2065 55.3578 60.3692 55.3578Z" fill="#C18E5C"/>
<path d="M60.3692 63.779C62.1132 63.779 63.5271 61.8939 63.5271 59.5684C63.5271 57.2429 62.1132 55.3578 60.3692 55.3578C58.6251 55.3578 57.2112 57.2429 57.2112 59.5684C57.2112 61.8939 58.6251 63.779 60.3692 63.779Z" fill="#C18E5C"/>
<path d="M36.1581 60.6212H35.9391L31.9201 43.5376C31.8847 43.3872 31.8167 43.2464 31.7208 43.1253C31.6249 43.0041 31.5036 42.9055 31.3653 42.8366L21.4209 37.8649V29.0415H30.8948C31.5054 29.0405 32.1027 28.8625 32.6142 28.529C33.1258 28.1955 33.5296 27.7208 33.777 27.1625L53.0006 31.9689V33.4426C52.3865 33.6598 51.8545 34.0615 51.4776 34.5927C51.1007 35.1239 50.8973 35.7587 50.8953 36.4101V38.5154C50.8953 38.7946 51.0062 39.0623 51.2036 39.2597C51.401 39.4572 51.6687 39.5681 51.9479 39.5681H56.1585C56.4377 39.5681 56.7055 39.4572 56.9029 39.2597C57.1003 39.0623 57.2112 38.7946 57.2112 38.5154V36.4101C57.2085 35.7593 57.0048 35.1252 56.6279 34.5946C56.2511 34.064 55.7195 33.6627 55.1059 33.4458V31.1468C55.1058 30.912 55.0272 30.684 54.8827 30.4989C54.7381 30.3139 54.5358 30.1826 54.308 30.1257L33.9201 25.0288C33.7354 24.3678 33.3399 23.7853 32.7939 23.3695C32.2479 22.9538 31.5811 22.7277 30.8948 22.7256H23.9188L21.4209 21.4624V18.5149C21.4209 17.3982 20.9773 16.3272 20.1876 15.5376C19.398 14.7479 18.327 14.3043 17.2103 14.3043H11.947C11.1977 14.308 10.4633 14.5142 9.82166 14.9012L8.48058 13.5601C8.28321 13.3627 8.01551 13.2517 7.73635 13.2516H2.47307C2.19388 13.2516 1.92614 13.3626 1.72873 13.56C1.53131 13.7574 1.42041 14.0251 1.42041 14.3043V35.3574C1.42041 35.6366 1.53131 35.9044 1.72873 36.1018C1.92614 36.2992 2.19388 36.4101 2.47307 36.4101H7.80582C8.11669 39.487 9.59951 42.3264 11.947 44.3397V65.8845C11.947 66.1636 12.0579 66.4314 12.2553 66.6288C12.4527 66.8262 12.7204 66.9371 12.9996 66.9371H19.3156C20.141 66.9422 20.9354 66.6232 21.5282 66.0487C22.1209 65.4742 22.4646 64.6902 22.4854 63.865C22.5062 63.0398 22.2025 62.2394 21.6395 61.6358C21.0765 61.0322 20.2991 60.6736 19.4745 60.637L21.2819 47.9893L24.7999 48.8693L28.7895 61.8328V65.8845C28.7895 66.1636 28.9004 66.4314 29.0978 66.6288C29.2952 66.8262 29.5629 66.9371 29.8421 66.9371H36.1581C36.9956 66.9371 37.7989 66.6044 38.3911 66.0122C38.9833 65.4199 39.316 64.6167 39.316 63.7792C39.316 62.9416 38.9833 62.1384 38.3911 61.5461C37.7989 60.9539 36.9956 60.6212 36.1581 60.6212ZM55.1059 37.4627H53.0006V36.4101C53.0006 36.1309 53.1115 35.8632 53.3089 35.6657C53.5063 35.4683 53.774 35.3574 54.0532 35.3574C54.3324 35.3574 54.6002 35.4683 54.7976 35.6657C54.995 35.8632 55.1059 36.1309 55.1059 36.4101V37.4627ZM23.6672 24.8309H30.8948C31.174 24.8309 31.4417 24.9418 31.6391 25.1392C31.8365 25.3366 31.9474 25.6043 31.9474 25.8835C31.9474 26.1627 31.8365 26.4305 31.6391 26.6279C31.4417 26.8253 31.174 26.9362 30.8948 26.9362H20.8388L15.786 24.0024C15.4856 23.8244 15.2637 23.5394 15.1649 23.2045C15.0661 22.8696 15.0977 22.5097 15.2534 22.1971C15.3306 22.0372 15.439 21.8944 15.5722 21.7771C15.7055 21.6598 15.8608 21.5703 16.0292 21.5139C16.1925 21.4587 16.3652 21.4368 16.5372 21.4495C16.7091 21.4621 16.8768 21.5091 17.0303 21.5876L23.1957 24.7172C23.3419 24.7913 23.5033 24.8302 23.6672 24.8309ZM17.2103 16.4096C17.7686 16.4096 18.3041 16.6314 18.6989 17.0262C19.0938 17.4211 19.3156 17.9566 19.3156 18.5149V20.3897L17.9776 19.7107C17.5762 19.5051 17.1376 19.3819 16.6878 19.3484C16.238 19.315 15.7861 19.372 15.3586 19.516C14.9253 19.6596 14.5251 19.8885 14.1817 20.1891C13.8382 20.4898 13.5583 20.8561 13.3586 21.2666C12.9686 22.0585 12.893 22.9687 13.1469 23.8141C13.4007 24.6595 13.9653 25.3775 14.727 25.8235L19.3156 28.4867V32.1995H9.84166V18.5149C9.84166 17.9566 10.0635 17.4211 10.4583 17.0262C10.8531 16.6314 11.3886 16.4096 11.947 16.4096H17.2103ZM3.52572 15.357H7.30055L8.3332 16.3896C7.94625 17.0313 7.74001 17.7656 7.73635 18.5149V34.3048H3.52572V15.357ZM20.3682 63.7792C20.3682 64.0583 20.2573 64.3261 20.0599 64.5235C19.8625 64.7209 19.5947 64.8318 19.3156 64.8318H14.0523V62.7265H19.3156C19.5947 62.7265 19.8625 62.8374 20.0599 63.0348C20.2573 63.2322 20.3682 63.5 20.3682 63.7792ZM17.3503 60.6212H14.0523V45.7787C14.9427 46.2647 15.8909 46.6364 16.8745 46.8851L19.2282 47.4735L17.3503 60.6212ZM25.8862 46.9682L17.3839 44.8429C15.2297 44.3036 13.3175 43.06 11.951 41.3096C10.5845 39.5592 9.84207 37.4023 9.84166 35.1816V34.3048H19.3156V36.8122L18.7334 36.5206L17.7924 38.4049L29.9832 44.4998L33.7759 60.6212H30.6179L26.6378 47.6798C26.5845 47.5065 26.4872 47.3499 26.3555 47.2253C26.2239 47.1006 26.0622 47.0121 25.8862 46.9682ZM36.1581 64.8318H30.8948V62.7265H36.1581C36.4372 62.7265 36.705 62.8374 36.9024 63.0348C37.0998 63.2322 37.2107 63.5 37.2107 63.7792C37.2107 64.0583 37.0998 64.3261 36.9024 64.5235C36.705 64.7209 36.4372 64.8318 36.1581 64.8318Z" fill="black"/>
<path d="M20.3682 7.98837C20.3682 6.73919 19.9978 5.51807 19.3038 4.47942C18.6098 3.44077 17.6234 2.63124 16.4693 2.1532C15.3152 1.67516 14.0453 1.55008 12.8201 1.79379C11.5949 2.03749 10.4695 2.63902 9.58623 3.52232C8.70293 4.40562 8.10139 5.53101 7.85769 6.75619C7.61399 7.98136 7.73906 9.25128 8.2171 10.4054C8.69514 11.5595 9.50467 12.5459 10.5433 13.2399C11.582 13.9339 12.8031 14.3043 14.0523 14.3043C15.7268 14.3026 17.3324 13.6367 18.5165 12.4526C19.7006 11.2685 20.3665 9.66294 20.3682 7.98837ZM14.0523 12.199C13.2195 12.199 12.4054 11.952 11.713 11.4894C11.0205 11.0267 10.4809 10.3691 10.1622 9.5997C9.84347 8.83031 9.76008 7.98369 9.92255 7.16691C10.085 6.35013 10.486 5.59987 11.0749 5.011C11.6638 4.42214 12.414 4.02111 13.2308 3.85865C14.0476 3.69618 14.8942 3.77956 15.6636 4.09825C16.433 4.41695 17.0906 4.95663 17.5533 5.64907C18.0159 6.3415 18.2629 7.15558 18.2629 7.98837C18.2629 9.10509 17.8193 10.1761 17.0296 10.9657C16.24 11.7554 15.169 12.199 14.0523 12.199ZM53.0006 41.6734H55.1059V43.7787H53.0006V41.6734ZM53.0006 45.884H55.1059V47.9893H53.0006V45.884ZM53.0006 50.0946H55.1059V52.1999H53.0006V50.0946ZM46.9836 43.0355L49.0889 40.9302L50.5773 42.4186L48.472 44.524L46.9836 43.0355ZM43.8256 46.1924L45.9309 44.0871L47.4194 45.5756L45.3141 47.6809L43.8256 46.1924ZM40.6676 49.3493L42.7729 47.244L44.2614 48.7325L42.1561 50.8378L40.6676 49.3493ZM56.4564 42.4208L57.9449 40.9312L60.0502 43.0366L58.5617 44.525L56.4564 42.4208ZM59.6133 45.5787L61.1018 44.0892L63.2071 46.1945L61.7187 47.683L59.6133 45.5787ZM62.7713 48.7367L64.2598 47.2472L66.3651 49.3525L64.8766 50.841L62.7713 48.7367ZM50.6152 57.7274L51.3658 57.3527C51.5699 57.2508 51.7354 57.0852 51.8374 56.8811L52.89 54.7758L51.0058 53.8347L50.111 55.6242L49.6615 55.8484C49.4908 55.6373 49.3016 55.4418 49.0963 55.2642C49.5746 54.7028 49.839 53.9902 49.8426 53.2526C49.8426 52.415 49.5099 51.6118 48.9176 51.0196C48.3254 50.4273 47.5222 50.0946 46.6846 50.0946C45.8471 50.0946 45.0438 50.4273 44.4516 51.0196C43.8594 51.6118 43.5266 52.415 43.5266 53.2526C43.5298 53.9909 43.7941 54.7043 44.273 55.2663C44.0676 55.4439 43.8784 55.6394 43.7077 55.8505L43.2582 55.6263L42.3635 53.8368L40.4792 54.7779L41.5319 56.8832C41.6338 57.0874 41.7993 57.2529 42.0035 57.3548L42.754 57.7295C42.5715 58.3256 42.4771 58.9452 42.474 59.5685H40.3687V61.6738H42.8308C42.908 61.8841 42.9972 62.0897 43.0982 62.2896L42.0035 62.837C41.7993 62.9389 41.6338 63.1045 41.5319 63.3086L40.4792 65.4139L42.3635 66.355L43.2582 64.5655L44.4161 63.9886C45.0472 64.5341 45.8536 64.8343 46.6878 64.8343C47.522 64.8343 48.3283 64.5341 48.9594 63.9886L50.1173 64.5655L51.0121 66.355L52.8963 65.4139L51.8437 63.3086C51.7418 63.1045 51.5762 62.9389 51.3721 62.837L50.2773 62.2896C50.3762 62.0896 50.4633 61.884 50.5384 61.6738H53.0006V59.5685H50.8952C50.8923 58.9444 50.798 58.3242 50.6152 57.7274ZM46.6846 52.1999C46.8928 52.1999 47.0963 52.2617 47.2694 52.3773C47.4425 52.493 47.5775 52.6574 47.6571 52.8498C47.7368 53.0421 47.7577 53.2538 47.717 53.458C47.6764 53.6621 47.5762 53.8497 47.429 53.9969C47.2817 54.1441 47.0942 54.2444 46.89 54.285C46.6858 54.3256 46.4741 54.3048 46.2818 54.2251C46.0894 54.1454 45.925 54.0105 45.8094 53.8374C45.6937 53.6643 45.632 53.4608 45.632 53.2526C45.632 52.9734 45.7429 52.7057 45.9403 52.5082C46.1377 52.3108 46.4054 52.1999 46.6846 52.1999ZM46.6846 62.7265C45.5435 62.7265 44.5793 61.2801 44.5793 59.5685C44.5793 57.8569 45.5435 56.4106 46.6846 56.4106C47.8257 56.4106 48.7899 57.8569 48.7899 59.5685C48.7899 61.2801 47.8257 62.7265 46.6846 62.7265ZM66.6851 61.6738V59.5685H64.5798C64.5768 58.9444 64.4825 58.3242 64.2998 57.7274L65.0503 57.3527C65.2545 57.2508 65.42 57.0852 65.5219 56.8811L66.5746 54.7758L64.6903 53.8347L63.7955 55.6242L63.3461 55.8484C63.1753 55.6373 62.9862 55.4418 62.7808 55.2642C63.2591 54.7028 63.5235 53.9902 63.5271 53.2526C63.5271 52.415 63.1944 51.6118 62.6022 51.0196C62.0099 50.4273 61.2067 50.0946 60.3691 50.0946C59.5316 50.0946 58.7284 50.4273 58.1361 51.0196C57.5439 51.6118 57.2112 52.415 57.2112 53.2526C57.2143 53.9909 57.4787 54.7043 57.9575 55.2663C57.7521 55.4439 57.563 55.6394 57.3922 55.8505L56.9427 55.6263L56.048 53.8368L54.1637 54.7779L55.2164 56.8832C55.3183 57.0874 55.4838 57.2529 55.688 57.3548L56.4385 57.7295C56.256 58.3256 56.1617 58.9452 56.1585 59.5685H54.0532V61.6738H56.5154C56.5925 61.8841 56.6818 62.0897 56.7827 62.2896L55.688 62.837C55.4838 62.9389 55.3183 63.1045 55.2164 63.3086L54.1637 65.4139L56.048 66.355L56.9427 64.5655L58.1007 63.9886C58.7318 64.5341 59.5381 64.8343 60.3723 64.8343C61.2065 64.8343 62.0128 64.5341 62.6439 63.9886L63.8019 64.5655L64.6966 66.355L66.5809 65.4139L65.5282 63.3086C65.4263 63.1045 65.2608 62.9389 65.0566 62.837L63.9619 62.2896C64.0607 62.0896 64.1479 61.884 64.2229 61.6738H66.6851ZM60.3691 52.1999C60.5773 52.1999 60.7809 52.2617 60.954 52.3773C61.1271 52.493 61.262 52.6574 61.3417 52.8498C61.4213 53.0421 61.4422 53.2538 61.4016 53.458C61.361 53.6621 61.2607 53.8497 61.1135 53.9969C60.9663 54.1441 60.7787 54.2444 60.5745 54.285C60.3703 54.3256 60.1587 54.3048 59.9663 54.2251C59.774 54.1454 59.6096 54.0105 59.4939 53.8374C59.3782 53.6643 59.3165 53.4608 59.3165 53.2526C59.3165 52.9734 59.4274 52.7057 59.6248 52.5082C59.8222 52.3108 60.09 52.1999 60.3691 52.1999ZM60.3691 62.7265C59.2281 62.7265 58.2638 61.2801 58.2638 59.5685C58.2638 57.8569 59.2281 56.4106 60.3691 56.4106C61.5102 56.4106 62.4745 57.8569 62.4745 59.5685C62.4745 61.2801 61.5102 62.7265 60.3691 62.7265Z" fill="black"/>
</svg>
