<svg width="68" height="68" viewBox="0 0 68 68" fill="none" xmlns="http://www.w3.org/2000/svg">
<path d="M40.0007 64.8318C41.7448 64.8318 43.1587 63.4179 43.1587 61.6738C43.1587 59.9297 41.7448 58.5159 40.0007 58.5159C38.2566 58.5159 36.8428 59.9297 36.8428 61.6738C36.8428 63.4179 38.2566 64.8318 40.0007 64.8318Z" fill="#3E3D42"/>
<path d="M57.8958 64.8318C59.6399 64.8318 61.0537 63.4179 61.0537 61.6738C61.0537 59.9297 59.6399 58.5159 57.8958 58.5159C56.1517 58.5159 54.7378 59.9297 54.7378 61.6738C54.7378 63.4179 56.1517 64.8318 57.8958 64.8318Z" fill="#3E3D42"/>
<path d="M29.4743 55.3579C42.8457 55.3579 53.6854 44.5182 53.6854 31.1468C53.6854 17.7753 42.8457 6.93567 29.4743 6.93567C16.1029 6.93567 5.26318 17.7753 5.26318 31.1468C5.26318 44.5182 16.1029 55.3579 29.4743 55.3579Z" fill="#3D9AE2"/>
<path d="M29.4743 55.3579C42.8457 55.3579 53.6854 44.5182 53.6854 31.1468C53.6854 17.7753 42.8457 6.93567 29.4743 6.93567C16.1029 6.93567 5.26318 17.7753 5.26318 31.1468C5.26318 44.5182 16.1029 55.3579 29.4743 55.3579Z" fill="#3D9AE2"/>
<path d="M49.1589 17.0622C51.4698 20.2877 52.9519 24.0321 53.4746 27.9654C53.9973 31.8987 53.5444 35.9002 52.156 39.6173C50.7676 43.3343 48.4862 46.6528 45.5128 49.2803C42.5395 51.9078 38.9655 53.7636 35.1059 54.6841L33.6848 51.1472L30.5268 44.8313L28.4215 41.6733L25.2636 37.4627L26.3162 32.1994L28.4215 26.9361L36.8428 24.8308L44.2114 22.7255L49.1589 17.0622ZM43.6219 11.5042C43.0745 12.4726 42.5166 13.2516 42.1061 13.2516C41.0534 13.2516 37.8954 16.4095 36.8428 16.4095C35.7901 16.4095 30.5268 18.5149 30.5268 18.5149L22.1056 15.3569L16.0318 11.0199C20.1309 8.27671 24.9711 6.85284 29.9027 6.93939C34.8343 7.02595 39.6215 8.61878 43.6219 11.5042ZM23.1582 43.7786L22.1056 49.0419L19.3687 53.1472C16.1808 51.6831 13.3491 49.5436 11.0697 46.8769C8.79034 44.2102 7.1177 41.08 6.16758 37.703C5.21746 34.3261 5.01255 30.7829 5.56705 27.3189C6.12155 23.8549 7.4222 20.5528 9.37897 17.6411L15.7897 19.5675L17.895 24.8308L23.1582 29.0414C23.1582 29.0414 21.0529 31.1467 21.0529 32.1994C21.0529 33.252 20.0003 36.41 21.0529 37.4627C22.1056 38.5153 23.1582 43.7786 23.1582 43.7786Z" fill="#91DC5A"/>
<path d="M30.5268 14.3043H23.8056L18.9476 3.77771H14.7369V14.3043H8.72206L7.36834 10.0936H3.15771V24.8308H7.36834L8.72206 20.6202H14.7369V31.1468H18.9476L23.8056 20.6202H30.5268C31.3643 20.6202 32.1676 20.2875 32.7598 19.6953C33.352 19.103 33.6847 18.2998 33.6847 17.4622C33.6847 16.6247 33.352 15.8215 32.7598 15.2292C32.1676 14.637 31.3643 14.3043 30.5268 14.3043Z" fill="#ED626F"/>
<path d="M62.1063 26.9362H35.7899C34.6272 26.9362 33.6846 27.8787 33.6846 29.0415V59.5685C33.6846 60.7312 34.6272 61.6738 35.7899 61.6738H62.1063C63.269 61.6738 64.2116 60.7312 64.2116 59.5685V29.0415C64.2116 27.8787 63.269 26.9362 62.1063 26.9362Z" fill="#FFA733"/>
<path d="M56.8431 26.9361H54.7378V7.98832C54.7378 7.15077 54.4051 6.34753 53.8129 5.7553C53.2206 5.16306 52.4174 4.83035 51.5799 4.83035H47.3692C46.5317 4.83035 45.7285 5.16306 45.1362 5.7553C44.544 6.34753 44.2113 7.15077 44.2113 7.98832V26.9361H42.106V7.98832C42.1076 6.59292 42.6627 5.25516 43.6494 4.26846C44.6361 3.28177 45.9738 2.72671 47.3692 2.72504H51.5799C52.9753 2.72671 54.313 3.28177 55.2997 4.26846C56.2864 5.25516 56.8415 6.59292 56.8431 7.98832V26.9361Z" fill="#57565C"/>
<path d="M57.8961 32.1994H60.0014V57.0842H57.8961V32.1994ZM51.5801 32.1994H53.6854V57.0842H51.5801V32.1994ZM45.2642 32.1994H47.3695V57.0842H45.2642V32.1994ZM38.9482 32.1994H41.0536V57.0842H38.9482V32.1994Z" fill="#EF8746"/>
<path d="M59.4643 48.3314L54.4294 53.3662C54.3025 53.4932 54.1453 53.5855 53.9727 53.6346C53.8 53.6837 53.6177 53.6878 53.443 53.6465C53.2684 53.6053 53.1071 53.5201 52.9747 53.399C52.8422 53.2779 52.7429 53.1249 52.6862 52.9546L50.1693 45.4029C50.1074 45.2174 50.0985 45.0184 50.1434 44.8281C50.1883 44.6378 50.2853 44.4638 50.4236 44.3255C50.5618 44.1873 50.7358 44.0903 50.9261 44.0454C51.1164 44.0004 51.3154 44.0094 51.5009 44.0713L59.0537 46.5882C59.2239 46.645 59.3768 46.7444 59.4977 46.8769C59.6187 47.0094 59.7038 47.1707 59.7449 47.3453C59.7861 47.52 59.7819 47.7023 59.7328 47.8748C59.6836 48.0474 59.5912 48.2046 59.4643 48.3314Z" fill="#5BCBFA"/>
<path d="M37.8765 39.1059L45.3187 31.6636L50.5283 36.8732L43.0861 44.3155L37.8765 39.1059Z" fill="#ED626F"/>
</svg>
